<?xml version="1.0" standalone="no"?>
<!DOCTYPE svg PUBLIC "-//W3C//DTD SVG 1.1//EN" "http://www.w3.org/Graphics/SVG/1.1/DTD/svg11.dtd" >
<svg>
<metadata>
Created by FontForge 20120731 at Mon Dec  3 07:41:21 2018
 By www
Copyright (c) P22 type foundry, 2005. All rights reserved.
</metadata>
<defs>
<font id="P22CezanneW01-Regular" horiz-adv-x="629" >
  <font-face 
    font-family="P22CezanneW01-Regular"
    font-weight="400"
    font-stretch="normal"
    units-per-em="1000"
    panose-1="2 0 5 0 0 0 0 0 0 0"
    ascent="332"
    descent="-668"
    x-height="148"
    cap-height="662"
    bbox="-658 -683 1768.92 1127"
    underline-thickness="20"
    underline-position="-133"
    unicode-range="U+000D-2122"
  />
<missing-glyph horiz-adv-x="0" 
 />
    <glyph glyph-name=".notdef" horiz-adv-x="0" 
 />
    <glyph glyph-name=".null" horiz-adv-x="0" 
 />
    <glyph glyph-name="uni000D" unicode="&#xd;" horiz-adv-x="0" 
 />
    <glyph glyph-name="space" unicode=" " horiz-adv-x="300" 
 />
    <glyph glyph-name="exclam" unicode="!" horiz-adv-x="331" 
d="M210 -17q0 -20 -12.5 -33.5t-32.5 -13.5q-9 0 -15 5.5t-9.5 13.5t-5 17t-1.5 16q0 6 3 17t7.5 21.5t11 18t14.5 7.5q18 0 18 -16q0 -5 -4 -13q14 -1 20 -14.5t6 -25.5zM243 159q0 1 8 14.5t18.5 29t20 30t12.5 19.5q14 23 27.5 46.5t27.5 46.5q22 38 40 72.5t32 58.5
q13 23 22 48.5t22 48.5q5 10 15 32.5t21.5 45.5t24 40.5t22.5 17.5q8 0 13 -7q8 1 14.5 -3.5t6.5 -13.5q0 -6 -6.5 -18.5t-14.5 -27t-17 -28t-13 -22.5q-16 -32 -31 -64.5t-32 -63.5q-16 -27 -28 -50t-35 -55q-27 -39 -53 -78t-50 -80q-6 -10 -10.5 -20.5t-11.5 -19.5
q-10 -13 -25 -13q-6 0 -13 3t-7 11z" />
    <glyph glyph-name="quotedbl" unicode="&#x22;" horiz-adv-x="368" 
d="M475 511q0 -7 -9 -22.5t-21 -32.5t-23.5 -32.5t-15.5 -22.5q-3 -5 -11.5 -18.5t-20 -31t-24.5 -36.5t-25.5 -34.5t-23 -25.5t-16.5 -10q-2 0 -5 1t-3 4q5 7 16 22.5t23 33t23 33t15 23.5q6 12 18 39t27 55t31.5 49t31.5 21q6 0 9.5 -5t3.5 -10zM577 502q0 -11 -11 -30.5
t-26 -41t-29.5 -41t-20.5 -29.5q-11 -17 -27 -42.5t-34 -52.5t-36.5 -50.5t-34.5 -36.5q-1 0 -3 -1t-3 -1q-8 0 -8 7q1 2 1 3t1 2q7 11 15.5 22t16.5 22q8 13 22 34t28 44.5t27 45t20 35.5q7 13 15.5 33.5t19.5 40.5t24.5 36.5t29.5 20.5h3q7 -2 8.5 -8t1.5 -12z" />
    <glyph glyph-name="numbersign" unicode="#" horiz-adv-x="439" 
d="M358 339q-14 -1 -28.5 -2t-28.5 -4q-3 -5 -6 -8.5t-6 -8.5l-26 -41q15 2 28 2t32 2q7 14 17.5 30t17.5 30zM415 511q0 -9 -6.5 -21t-15.5 -25t-19.5 -26.5t-19.5 -24.5q-10 -14 -18 -26.5t-13 -21.5h16q11 0 19 0.5t19 2.5q7 6 15 18.5t17 25.5t18 22.5t17 9.5
q6 0 13.5 -8t3.5 -15q-4 -8 -17.5 -20t-21.5 -29q14 2 31 3t31 1q4 0 9.5 0.5t10 -0.5t7 -3t0.5 -8q-4 -8 -18.5 -13t-32 -7t-34 -3t-22.5 -1q-14 -14 -29 -31.5t-23 -31.5q5 -1 15.5 -0.5t20.5 0t16.5 -4t2.5 -12.5q-4 -6 -11 -11t-14 -5h-22t-26 -3q-8 -12 -20 -31.5
t-24 -38t-22.5 -32t-15.5 -13.5q-7 0 -7.5 5.5t-0.5 11.5q11 25 27.5 51.5t30.5 49.5q-7 1 -13.5 1h-13.5q-9 0 -18 -1t-18 -3q-11 -10 -20 -21.5t-16 -21.5t-13 -16.5t-10 -6.5q-6 0 -8.5 4t1.5 11q0 3 3.5 9.5t8 13t8.5 13t6 9.5q-8 -2 -23 -3t-23 -1q-4 0 -8.5 0.5t-8 2
t-5.5 4.5t0 8q4 7 16.5 11.5t27.5 6.5t28.5 3t19.5 1q14 14 24 29t21 30q-3 0 -8.5 -0.5t-8.5 -0.5q-7 0 -19.5 1t-23.5 4t-18 9t-3 16q4 7 12 11t14 4q19 0 38.5 -2t38.5 -3q5 7 14.5 25t22.5 38q13 26 29.5 53.5t36.5 46.5h12q7 -2 8.5 -8t1.5 -12z" />
    <glyph glyph-name="dollar" unicode="$" horiz-adv-x="667" 
d="M422 356q0 -12 1.5 -22t3.5 -20l8 10l8 10q17 23 31 49t34 49l64 90q-9 3 -16 3q-49 0 -75.5 -21t-45.5 -65q-7 -16 -10 -41t-3 -42zM422 158q0 29 -5 48t-12 34q-8 -12 -16 -24.5t-16 -24.5q-5 -8 -22 -34t-40 -59.5t-48 -69.5t-44 -64q1 0 2 0.5t2 0.5q21 5 43.5 11.5
t49.5 17.5q21 10 38 26.5t33 33.5q21 23 28 46t7 58zM658 608q0 -1 -4 -7t-10 -14.5t-13.5 -18.5t-14.5 -19q14 -6 26 -18q14 -15 18.5 -29t4.5 -32q0 -17 -5 -36.5t-18 -32.5q-9 -7 -18 -7.5t-15 2.5t-8 8.5t4 11.5q8 15 11.5 27.5t3.5 28.5q0 8 -1.5 15.5t-6.5 12.5
q-6 4 -10 7.5t-9 6.5q-12 -19 -25.5 -37.5t-25.5 -37.5q-26 -39 -53 -77t-53 -76q11 -27 24 -53t13 -66v-35.5t-2.5 -24.5t-7.5 -23t-15 -30q-5 -8 -13.5 -19t-19 -21.5t-21 -19t-19.5 -12.5q-21 -10 -40.5 -18t-41.5 -16q-14 -5 -25 -8t-21.5 -4.5t-22.5 -2.5t-27 -1
q-4 -6 -6.5 -11t-4.5 -7q-6 -9 -19 -34.5t-28.5 -52.5t-30.5 -47.5t-25 -20.5q-3 0 -6.5 3.5t-5.5 6.5q-8 -1 -4.5 3t3.5 13q1 6 10 21.5t21 34t24 35.5t17 26q2 5 7 13t12 19q-23 2 -47.5 9t-35.5 18q-23 18 -30.5 38t-7.5 49q0 20 9.5 40.5t25.5 38.5t36 31t41 19
q3 1 6 -2t6 -7t5 -8t2 -7q0 -16 -13 -25t-29.5 -16.5t-32 -18t-20.5 -29.5q-5 -20 6.5 -41t25.5 -35q12 -12 32.5 -17.5t40.5 -7.5q21 31 47 69t50.5 73.5t44 63.5t25.5 39q20 32 43 61q-8 15 -12.5 33.5t-4.5 46.5q0 60 27 102.5t68 72.5q16 11 41 21.5t44 10.5h21.5
t20.5 -2l21 36q4 9 1.5 14t3.5 13q5 6 10.5 6t13.5 -1q12 0 12 -14z" />
    <glyph glyph-name="percent" unicode="%" horiz-adv-x="532" 
d="M504 110q0 -29 -16 -55.5t-40.5 -46.5t-54.5 -31.5t-57 -11.5q-26 0 -43.5 20t-17.5 46q0 17 9 33.5t23 29t31.5 20.5t34.5 8q7 0 7 -5q0 -8 -10.5 -19.5t-22.5 -24.5t-21.5 -26.5t-7.5 -24.5h-1q3 -12 13.5 -19t22.5 -7q10 0 25.5 8t30 20t25.5 25.5t14 23.5t3 22
q0 20 -11.5 27t-25 9t-25 3t-11.5 10q0 13 12.5 23.5t24.5 10.5q16 0 31.5 -3.5t28.5 -12t21 -21.5t8 -31zM605 485q-3 -10 -19.5 -25t-37.5 -30.5t-41 -29t-30 -20.5q-90 -63 -160.5 -143t-135.5 -166q-26 -35 -50 -71l-48 -72q-2 -3 -4.5 -7.5t-6 -9t-7.5 -7.5t-8 -2
q-3 1 -5.5 5.5t-4 10.5t-2 11.5t0.5 8.5q1 1 10 14.5t20.5 29t22.5 30t14 19.5q41 60 91 123t106 122t116.5 111.5t121.5 93.5q9 5 23.5 14t24.5 7q5 -1 8 -6.5t1 -10.5zM293 413q0 -29 -16 -55.5t-40.5 -46.5t-54.5 -31.5t-57 -11.5q-26 0 -43.5 20t-17.5 46q0 17 9 33.5
t23 29t31 20.5t34 8q2 0 5 -1t3 -4q0 -8 -10 -18.5t-22 -23t-22 -25.5t-10 -26t13 -20.5t24 -7.5q10 0 25.5 8t30 20t25.5 25.5t14 23.5t3 22q0 20 -11.5 27t-25 9t-25 3t-11.5 10q0 13 12.5 23.5t24.5 10.5q16 0 31.5 -3.5t28.5 -12t21 -21.5t8 -31z" />
    <glyph glyph-name="ampersand" unicode="&#x26;" horiz-adv-x="864" 
d="M458 349q1 8 -2 14t-11 6q-6 0 -16 -4.5t-19 -11.5t-15.5 -14.5t-7.5 -14.5t2 -14.5t11 -7.5q6 0 15.5 5t18.5 12.5t16 15.5t8 14zM866 319q-2 -12 -9 -24.5t-17 -24.5t-21 -23l-20 -20q-17 -16 -46 -28.5t-57.5 -23t-51 -19t-26.5 -15.5q-8 -15 -25 -39t-42 -51.5
t-56.5 -55.5t-69 -50.5t-79 -37t-86.5 -14.5q-99 0 -132 44.5t-21 139.5q4 35 28.5 72.5t57.5 72.5t69 65t65 49q12 36 23.5 61.5t27 46t39 37t59.5 34.5q11 5 26.5 8.5t32 5.5t32 3t27.5 1q23 0 31 -17t6 -38q-1 -5 -3.5 -14t-7 -18t-10.5 -15.5t-13 -6.5q-11 0 -15 7
t-5.5 17t-3 21t-5.5 18q-9 13 -32 13.5t-45 -3.5q-20 -5 -36.5 -18t-28.5 -30t-19.5 -35t-9.5 -32l22 4q11 1 21 6t21 5q13 0 19 -5t8.5 -12.5t1.5 -17t-2 -18.5q-2 -16 -6 -26t-18 -21q-7 -6 -18 -12t-24 -11t-25 -8t-20 -3q-9 0 -23.5 8t-18.5 16q-1 1 -2 5.5l-2 9t-2.5 8
t-2.5 2.5q-15 -9 -41.5 -32t-53.5 -53.5t-48.5 -65.5t-25.5 -68q-4 -32 -1 -63q-2 -14 1 -27.5t14 -24.5q14 -25 41.5 -39t73.5 -14q7 0 17 1t20 2.5t19.5 3t16.5 3.5q32 9 58.5 26t49.5 38.5t43 47.5t39 53q5 7 9.5 20t5.5 21q1 5 -8 5.5t-11 0.5h-19.5t-39.5 -1
t-49.5 -4.5t-49 -10.5t-38.5 -18.5t-18 -28.5q-2 -14 4.5 -22t20.5 -8l2 1l6 25.5t13 8.5q5 0 11 -4.5t4 -15.5q-2 -17 -16.5 -30t-31.5 -13q-23 0 -41.5 9t-14.5 39q2 16 16 30.5t32 26t37 19.5t32 12t32.5 7.5t40.5 6t40.5 4t32.5 1.5h14.5t15.5 1q5 2 8 6.5t6.5 9t8 7.5
t13.5 3q10 0 14.5 -0.5t5 -2.5t-0.5 -6.5t-2 -12.5q25 5 46 9.5t40 12t36 19.5t34 31q34 37 10 57q-4 3 -9.5 0.5t-11.5 -6.5l-12 -8t-10 -4h-11t-3 7q1 10 12 19t25.5 15.5t29 10t23.5 3.5q20 0 28 -6t5 -27z" />
    <glyph glyph-name="quotesingle" unicode="'" horiz-adv-x="171" 
d="M436 514q0 -10 -13.5 -32.5t-30.5 -47.5t-33.5 -47.5t-23.5 -32.5q-8 -12 -25.5 -33.5t-38.5 -44.5t-42.5 -44.5t-36.5 -33.5q-3 0 -7.5 1t-4.5 6q37 36 67.5 73.5t44.5 59.5q23 36 43 71.5t36.5 63.5t28 45.5t17.5 17.5q9 0 14 -7t5 -15z" />
    <glyph glyph-name="parenleft" unicode="(" horiz-adv-x="375" 
d="M740 802q0 -10 -5 -21.5t-12.5 -22t-16.5 -19.5t-18 -14q-6 -4 -13 -6t-13 -5q-31 -15 -61 -35.5t-51 -47.5q-8 -11 -22.5 -23.5t-22.5 -23.5q-20 -25 -42 -48t-42 -49t-37 -49t-32.5 -45.5t-31 -46.5t-33.5 -51q-11 -16 -24 -39t-22 -40q-13 -23 -24.5 -58.5
t-20.5 -73.5t-14 -75t-5 -64q0 -6 1.5 -22.5t4 -34.5t5.5 -33t6 -19q7 -9 11.5 -12t7.5 -6t4.5 -9.5t1.5 -22.5q0 -13 -11 -13q-15 0 -25.5 7.5t-18 19.5t-13.5 25.5t-10 25.5q-5 13 -5.5 30.5t-0.5 31.5q0 31 2 57t6.5 50.5t11 49.5t15.5 54q9 30 19 56t22 51t27 48.5
t34 49.5q29 39 57 78t57 79q11 16 22 31t25 29q23 24 53.5 56.5t62.5 65.5t62 61.5t53 45.5q5 4 13.5 10.5t18.5 12.5t19 10.5t15 4.5q10 0 10 -11z" />
    <glyph glyph-name="parenright" unicode=")" horiz-adv-x="406" 
d="M-80 -198q-1 10 3 21.5t11 22t15 19.5t16 14q6 4 13 6t12 5q30 15 58.5 35.5t47.5 47.5q8 11 20.5 23.5t20.5 23.5q19 25 38.5 48t38.5 49q18 25 33 48.5t28.5 46t27.5 46.5t30 51q9 16 20 39t19 40q12 23 21 58.5t14.5 73.5t7.5 75t0 64q0 6 -3 22.5t-6.5 34.5t-8 33
t-7.5 19q-8 9 -13 12t-8 6t-5 9.5t-3 22.5q-2 13 10 13q15 0 26 -7.5t20 -19.5t15.5 -25.5t11.5 -25.5q5 -13 7 -30.5t4 -31.5q2 -31 2 -57t-2.5 -51t-7 -50t-11.5 -53q-14 -60 -32.5 -107t-53.5 -98q-26 -39 -51 -78t-50 -79q-11 -16 -20.5 -31t-22.5 -29
q-21 -24 -49 -56.5t-57 -65.5t-57 -62t-50 -45q-5 -4 -13 -10.5t-17 -12.5t-17.5 -10.5t-14.5 -4.5q-9 0 -11 11z" />
    <glyph glyph-name="asterisk" unicode="*" horiz-adv-x="394" 
d="M483 453q0 -12 -12.5 -15t-21.5 -3q-18 0 -35.5 4t-35.5 4q-9 0 -18 -0.5t-18 -1.5l-10 -13q5 -39 10 -76t28 -70q2 -3 3.5 -5t1.5 -5q0 -6 -3.5 -11t-10.5 -5q-9 0 -14 4q-9 -1 -17 16t-15 39t-12 42.5t-7 28.5q-5 -6 -15.5 -19t-23 -26t-25 -23t-19.5 -10
q-5 0 -9.5 5.5t-4.5 10.5q0 4 12 18t27 30t29 31t18 20l-3 15q-26 -2 -44 -3t-44 -11q-4 -2 -8 -2t-7.5 4t-6.5 9.5t-4.5 11.5t-1.5 10q0 8 13.5 13.5t30.5 8.5t34 4.5t23 1.5q-3 17 -6 32.5t-3 32.5q0 9 2.5 21t14.5 12q2 0 2.5 -0.5t2.5 -0.5q10 -2 16.5 -3t10 -3
t4.5 -7.5t1 -17.5q0 -17 2.5 -34t6.5 -34l9 -2q7 11 17 32.5t22 42.5t26 37t28 16q7 0 12 -4.5t5 -11.5q0 -12 -8.5 -28.5t-20 -33t-23.5 -31.5l-20 -25q5 -1 14 -1q17 0 35 3t35 3q10 0 20.5 -8t10.5 -19z" />
    <glyph glyph-name="plus" unicode="+" horiz-adv-x="439" 
d="M387 241q0 -7 -5 -17.5t-12 -10.5q-25 0 -49.5 5.5t-49.5 5.5q-2 -10 -3.5 -33t-6 -46.5t-14 -41.5t-26.5 -18q-7 0 -12 4.5t-5 11.5q0 12 8 27t13 27q6 17 9.5 34t6.5 34l-52 -8t-52 -4q-6 0 -14.5 1.5t-8.5 9.5q0 13 12 17q7 2 22.5 4.5t33.5 4.5t34.5 3.5t25.5 2.5
q2 30 4 62t13 61q4 13 17 13q5 0 8.5 -5t3.5 -10q0 -26 -4 -58.5t-8 -58.5q16 3 34 3q7 0 20 0.5t25.5 -1t22 -5.5t9.5 -14z" />
    <glyph glyph-name="comma" unicode="," horiz-adv-x="187" 
d="M142 20q0 -6 -15 -25t-34.5 -38.5t-38 -35t-24.5 -15.5q-4 0 -7.5 2.5t-3.5 7.5q5 6 20 27t32 43.5t31.5 40.5t18.5 18q9 0 11 -9q10 -5 10 -16z" />
    <glyph glyph-name="hyphen" unicode="-" horiz-adv-x="377" 
d="M335 142q0 -7 -5 -11t-11 -4q-30 0 -60 5.5t-60 5.5q-29 0 -58.5 -6.5t-58.5 -6.5q-8 0 -18 1.5t-10 12.5q0 6 4 9t9 5q2 1 16 3t34 4.5t43 5.5t44 5t36.5 3.5t20.5 1.5q7 0 19.5 -1.5t24.5 -5t21 -10.5t9 -17z" />
    <glyph glyph-name="period" unicode="." horiz-adv-x="219" 
d="M138 36q0 -1 0.5 -1.5t0.5 -1.5q0 -7 -4 -14.5t-9.5 -13.5t-12 -10t-10.5 -4q-6 0 -14.5 1.5t-16 5t-13 9t-5.5 13.5q0 2 6.5 10t16 16.5t20 15t19.5 6.5q3 0 6.5 -4t6.5 -9t5.5 -10.5t3.5 -8.5z" />
    <glyph glyph-name="slash" unicode="/" horiz-adv-x="426" 
d="M549 717q0 -2 -8.5 -14.5t-20 -27.5t-22 -29.5t-13.5 -18.5q-15 -22 -30 -44.5t-29 -45.5q-45 -67 -91.5 -131.5t-88.5 -133.5q-4 -7 -19.5 -30t-36 -53.5t-44.5 -64.5t-44.5 -64.5t-36 -53t-19.5 -29.5q-6 -10 -20 -37t-30.5 -55.5t-32.5 -50.5t-26 -22q-4 0 -7.5 3.5
t-5.5 6.5q-8 -1 -14.5 3.5t-6.5 13.5q1 6 11 23t23 36.5t25 38t18 27.5q5 10 22 35.5t39 58t47.5 69.5t48.5 69.5t40 58t23 35.5q23 36 49 69l52 66q19 25 34 52.5t35 51.5q29 38 56.5 76t53.5 77q7 9 12 19.5t12 19.5q10 12 25 11q6 0 13 -3.5t7 -11.5z" />
    <glyph glyph-name="zero" unicode="0" horiz-adv-x="484" 
d="M458 550q5 2 11 -1t9 -3t10 2t10 2q2 0 7 -6t0 -21q-4 -13 -10 -21t-12 -14t-12.5 -11t-12.5 -12q-7 -9 -18 -17t-23 -15t-23.5 -14t-20.5 -15q-5 -5 -16 -12.5t-26.5 -17t-34.5 -19t-38 -18.5q-8 -5 -18 -14t-20.5 -20.5t-20 -22.5t-15.5 -18l-8.5 -8.5t-16.5 -17
t-17 -19t-10 -14.5q-1 -3 -7 -13t-14 -22.5t-15.5 -26t-11.5 -23.5q-11 -29 -5 -49t17 -20q21 0 50.5 6.5t58.5 32.5q2 1 20 17t40 34l58 48q13 11 32 33.5t39 47.5t38.5 49.5t30.5 40.5q1 2 8.5 22.5t17.5 46t20 48.5t16 30q8 8 12.5 8.5t7.5 -2.5t5 -7.5t5 -6.5
q5 -6 0 -27.5t-16.5 -50t-28.5 -59t-36 -54.5q-42 -51 -81.5 -96.5t-87.5 -86.5q-28 -26 -56.5 -50.5t-57 -44t-57 -31t-55.5 -11.5q-38 0 -52.5 16t-12.5 43q1 25 11 53.5t24 55t29 49.5t25 38q1 1 8 9.5t15 18l16 19t12 13.5q5 8 17.5 18t26.5 24q46 53 89 90.5t78 62.5
t59.5 38t33.5 16z" />
    <glyph glyph-name="one" unicode="1" horiz-adv-x="391" 
d="M634 553q2 0 9 -3.5t9 -10.5q1 -6 -8.5 -17t-22.5 -22.5t-25 -20.5t-15 -11q-28 -26 -62 -56t-63 -55q-11 -13 -23.5 -30t-32.5 -25q-17 -20 -47.5 -53t-63.5 -68.5t-63.5 -68.5t-46.5 -53q-8 -9 -22.5 -22.5t-30 -27t-28.5 -23t-18 -9.5q-10 0 -19.5 4t-12.5 15
q-1 3 10 14.5t25 25t26.5 24.5t14.5 13q10 9 30 30t40 42.5t35 38.5l15 17q1 2 11.5 12.5t25 26t31.5 33.5t30.5 34t22 28t6.5 15q0 3 -2.5 6t-5.5 3t-6 -1t-6 -1l-5 -2.5t-10.5 -5.5t-11 -5.5t-6.5 -2.5q-46 -14 -91.5 -27.5t-87.5 -28.5q-2 -1 -12 -3t-22 -4.5t-22.5 -4.5
t-14.5 -2q-8 0 -11 8q-4 10 10 17t33.5 12.5t38 8.5t23.5 5q18 7 38.5 12.5t41 9.5t39 8.5t32.5 10.5q29 12 57 22.5t45 25.5q9 6 23 14.5t29.5 17t30.5 16.5t26 14q6 4 19 17t29 27t32.5 25t29.5 11z" />
    <glyph glyph-name="two" unicode="2" horiz-adv-x="593" 
d="M260 168q-5 -1 -15.5 -5.5t-22.5 -10t-22.5 -11t-15.5 -8.5q-5 -5 -10 -8t-9 -6q-9 -5 -18.5 -12t-17.5 -15q-11 -10 -14.5 -13t-10.5 -12q-6 -6 -12.5 -13t-14.5 -15q-7 -8 -12.5 -18t-5.5 -17q0 -4 6.5 -1t15.5 10t19.5 16t18.5 17q5 5 10 9t10 7l20 17.5t15 15.5
q7 8 19 17.5t23 18.5zM543 501q0 -41 -11 -72.5t-28 -58.5q-9 -13 -33 -36.5t-49.5 -48t-45.5 -44t-21 -25.5q-1 -8 8 -9t20 -1.5t20 -5.5t8 -22q-1 -16 -4 -27t-8.5 -20.5t-13.5 -19t-18 -22.5q-1 -2 0.5 -5.5t4.5 -3.5q6 0 21.5 12t34 28t36 32.5t28.5 25.5q9 8 17 17.5
t16.5 17.5t17 13.5t17.5 5.5q5 0 7.5 -5.5t2.5 -8.5t-3.5 -7.5t-7.5 -8t-7.5 -6l-3.5 -2.5q-8 -1 -14.5 -6t-12.5 -12t-11 -14t-10 -12q-3 -4 -11.5 -11.5t-14.5 -12.5q-4 -3 -11.5 -9.5t-15.5 -13t-15.5 -13.5t-11.5 -11q-4 -3 -16 -14.5t-27 -23.5t-30 -21.5t-24 -9.5
q-14 0 -20 8t-6 19q0 5 4 16.5t7 18.5q3 9 12 20t18 23.5t16.5 24.5t7.5 22q0 2 -3.5 3.5t-8 3t-9 2t-6.5 0.5q-19 0 -44 -21t-52 -49.5l-54 -57t-49 -42.5q-21 -20 -48.5 -34.5t-54.5 -12.5q-12 0 -15.5 14.5t-0.5 26.5q7 23 17 37.5t20 26.5q8 8 10 9.5t7 7.5q7 6 13.5 14
t17.5 18q9 8 15.5 15t22.5 17q4 2 7.5 5t8.5 6q10 6 28 15t37 17t37.5 13.5t30.5 5.5l4 2q11 10 17.5 17.5t11.5 15.5q8 12 16 20.5t16 16.5t17 16t20 20q10 12 18 21t15 18t15 18.5t19 21.5l1 1q26 41 26 92q0 17 -14 17q-24 0 -56.5 -15t-61.5 -37t-49 -46t-20 -42
q0 -9 7.5 -13.5t15.5 -4.5q11 0 19 5.5t16 10.5q4 6 7.5 20t8 29t9.5 25.5t12 8.5q4 4 9 4q8 0 11.5 -9t3.5 -23q0 -18 -8.5 -36.5t-22 -33.5t-32 -24.5t-37.5 -9.5q-25 0 -36 15t-11 38q0 20 10 41.5t25.5 41t34 35t35.5 23.5q8 3 15 6t14 7q25 14 51 27.5t55 13.5
q25 0 36 -16t11 -39z" />
    <glyph glyph-name="three" unicode="3" horiz-adv-x="485" 
d="M100 43q9 0 18 3q29 11 56 24t53 27q8 5 20 9.5t17 9.5q26 16 55.5 31t55.5 39q20 18 -20 18q-30 -3 -56 -6q-23 -2 -45 -4t-33 -2q-7 0 -15 1.5t-15 4.5t-12 8t-5 12q0 13 13 28t29.5 28.5t30.5 25t16 18.5l11.5 10t28.5 25t37 33t37 35t28.5 31t11.5 21q0 28 -21 28
q-19 0 -51.5 -14t-66 -32t-62 -35.5t-38.5 -24.5q-11 -6 -25.5 -14t-25.5 -19q-2 -2 -13.5 -11.5t-24.5 -22t-24 -27t-11 -24.5q0 -8 10.5 -14t13.5 -6q9 0 20 5.5t21 8.5h8t10.5 -1t9 -4t3.5 -10q0 -12 -12 -19.5t-27 -12.5t-29 -7t-18 -2q-11 0 -23 11.5t-17 19.5
q-2 2 -4 8t-2 11q1 19 7 32.5t14 26.5q6 9 16 19t20.5 19.5t20.5 17.5t15 13q17 17 42.5 31.5t47.5 29.5q14 10 36 21.5t45.5 22.5t47 20.5t40.5 14.5q8 2 18.5 3.5t33.5 2.5q10 0 21 -4t20 -11t15 -16t6 -18q0 -17 -2 -28t-6.5 -20t-12 -17t-17.5 -19q-12 -12 -29.5 -27
t-35.5 -32q-8 -8 -19.5 -15.5t-22.5 -15t-21 -15t-16 -14.5q-8 -9 -14 -14.5t-12 -10.5t-12 -11t-13 -16q3 -9 8.5 -9h9.5q3 0 16.5 1.5t30.5 4t33.5 4.5t24.5 4q23 4 47 7t38 3q8 0 13 -9.5t5 -11.5q0 -8 -7 -18t-16.5 -19t-19 -16.5t-13.5 -10.5q-18 -12 -51 -33
t-73.5 -43.5t-84.5 -43t-83 -30.5q-5 -2 -13 -3t-17 -3q-6 -2 -10 -2q-8 0 -16 -0.5t-16 2t-16 9.5t-17 21q-6 11 -13 22t-7 24q0 5 2 14t9 9q22 0 31 -10t14.5 -22.5t12.5 -22.5t27 -10z" />
    <glyph glyph-name="four" unicode="4" horiz-adv-x="465" 
d="M151 184q5 4 6.5 4.5t5.5 4.5q-10 -2 -24 -6t-30 -13q-9 -6 -13.5 -8.5t-8 -4.5t-7 -5t-11.5 -9q-3 -3 -8 -7.5t-17 -13.5h1q-8 -7 -14.5 -13.5t-2.5 -13.5q2 -4 17.5 5t31.5 22q11 9 17 12.5t16 12.5q8 6 18 14.5t24 18.5h-1zM446 234q0 -5 -7 -10.5t-10 -7.5
q-8 -5 -14.5 -18.5t-14.5 -21.5q-11 -11 -15.5 -21.5t-13.5 -22.5q-11 -14 -20 -28t-20 -28q-10 -13 -15 -26t-12 -28q-2 -5 -5.5 -13t-7.5 -14.5t-8.5 -10.5t-10.5 -1q-11 6 -18 9t-7 17q0 5 5 15t12.5 23t15.5 27t14 26q-17 -5 -29.5 0t-18.5 10q-8 6 -12 16.5t-8.5 21
t-11 18.5t-19.5 9q-8 -8 -17 -16t-23 -20q-10 -8 -14 -11.5t-7 -6t-6.5 -5.5t-12.5 -9q-8 -5 -15.5 -10t-17.5 -13q-26 -20 -44 -26t-46 -4q-14 1 -17.5 13t1.5 22l7.5 15t5.5 9t7 7.5t12 11.5q13 10 17.5 14t7.5 6q13 10 18.5 14.5t10 7.5t11 7t23.5 13q23 12 42.5 21
t44.5 8q2 0 3 -0.5t3 -0.5q7 5 16 13.5t18.5 17t17.5 16t13 11.5q9 9 23.5 22.5t30 28t29.5 27t23 18.5q6 5 12.5 13t12.5 13q7 7 17.5 16.5l21 19t20 18t15.5 14.5q7 6 20 20.5t24 24.5t23 22t20 11q5 0 14 -4t12 -10t1.5 -8.5t-3.5 -4.5q-4 -8 -12 -16l-16 -16
q-4 -3 -10 -8t-12.5 -11t-12 -11.5t-9.5 -8.5q-7 -6 -16.5 -14.5t-20 -18.5t-21 -19.5t-18.5 -17.5q-41 -38 -89.5 -82t-90.5 -82q-4 -3 -10 -9q18 -10 23 -21.5t7 -21.5t6.5 -16.5t19.5 -6.5q19 0 38.5 19t38.5 42t36.5 42t31.5 19q7 0 10 -11.5t3 -17.5z" />
    <glyph glyph-name="five" unicode="5" horiz-adv-x="406" 
d="M278 486q11 8 24.5 16t25.5 15q13 8 27 16q12 3 20 -4t20 -11q24 -8 44 -10t43 8q12 4 20.5 8t16 7.5t15.5 8t19 10.5q8 15 17.5 23.5t22.5 17.5q9 7 13 14.5t15 7.5q7 0 14.5 -5t5.5 -13q-2 -14 -14.5 -20.5t-26.5 -16.5q-17 -13 -30 -24t-32 -22q-36 -20 -69 -32.5
t-70 -12.5q-19 0 -28 4t-25 10q-11 -6 -15.5 -8.5t-18.5 -11.5q-25 -14 -39.5 -27.5t-33.5 -35.5q-9 -12 -18 -21t-12 -23q-2 -14 3.5 -22.5t14.5 -15.5t20.5 -13.5t20.5 -15.5q17 -15 27.5 -29.5t15.5 -31t4.5 -35.5t-4.5 -43q-8 -51 -29.5 -94.5t-61.5 -78.5
q-11 -11 -23.5 -22.5t-27.5 -21.5t-34 -16t-43 -6q-29 0 -43 23.5t-15 53.5q0 8 2 16.5t4 16.5q8 38 28 70.5t48 64.5q17 20 34 35t43 15q3 0 6 -4t0 -6q-23 -20 -44 -39t-38.5 -39t-30 -43t-17.5 -51q-3 -25 15.5 -39t42.5 -14t47 18t42.5 46t33.5 61.5t19 65.5
q4 22 -4.5 38t-23.5 28t-32.5 23t-32.5 23.5t-23.5 28t-4.5 38.5q6 30 23.5 48.5t39.5 42.5q17 13 32 28t35 28z" />
    <glyph glyph-name="six" unicode="6" horiz-adv-x="508" 
d="M253 119q0 -1 -5 -10t-9 -14q12 7 21 13.5t18.5 14t20.5 17t25 22.5q1 2 9.5 10t18 17t17 16.5t7.5 8.5q-1 11 -11.5 11.5t-27 -7t-37 -23.5t-39.5 -38q-6 -7 -6 -18.5t-2 -19.5zM524 602q8 0 16.5 -5t10.5 -15q1 -13 -12.5 -31.5t-31 -36t-33 -30.5t-18.5 -15
q-9 -1 -16 -6t-12.5 -11.5t-10.5 -13t-11 -10.5q-4 -5 -16 -16t-28 -25.5t-34.5 -31t-35 -31t-29 -26t-17.5 -17.5q-15 -17 -45 -49t-59.5 -66.5t-51.5 -65t-22 -43.5q-2 -11 7 -18t20 -7q29 0 51 11t33 25q-5 6 2 24.5t22.5 42.5t38.5 50t49.5 47.5t56 35.5t57.5 14
q27 0 37.5 -6.5t12.5 -22.5q1 -12 -12 -30t-32 -37t-39.5 -37.5t-35.5 -33.5q-13 -14 -28 -25.5t-31.5 -22.5t-32.5 -22.5t-31 -24.5q-7 -5 -17 -8.5t-19.5 -6.5t-17.5 -5.5t-11 -4.5q-10 -4 -27.5 -6t-23.5 -2q-19 -6 -43.5 2.5t-32.5 32.5q-7 18 -3 37t14.5 37t24 35.5
t25.5 32.5q15 15 29.5 35t30.5 28q15 15 26 28t21 31q17 16 46.5 44.5t61.5 59.5t61 60.5t44 48.5q14 10 29.5 23.5t31 28t31 28t30.5 23.5z" />
    <glyph glyph-name="seven" unicode="7" horiz-adv-x="383" 
d="M291 659q-4 -7 -8 -9t-7 -2.5t-5 -1.5t-2 -5v-24t1 -19q7 13 12 27.5t9 33.5zM195 478q5 8 10.5 15.5t11.5 19.5q4 8 6 11t7 11q-5 23 -9.5 50t-4.5 58v13.5t1 14.5t4 12t8 5q7 0 22.5 -3.5t22.5 -3.5q11 0 19 8.5t14 18.5t11.5 18.5t12.5 8.5q6 0 10.5 -3t4.5 -8
q0 -17 -7 -27t-12 -24q-12 -35 -24.5 -59t-28.5 -53q0 -1 0.5 -2t0.5 -2q3 -20 15 -37.5t32 -17.5q12 0 39 7t57 15t57 15t39 7q11 0 22.5 -8t7.5 -18q-15 -36 -37 -62.5t-47.5 -51t-53 -50.5t-53.5 -60q11 -2 25.5 -1.5t27 0.5t21.5 -1.5t9 -7.5q0 -8 -2 -11t-5.5 -4t-9 -2
t-12.5 -5q-9 -5 -13 -7.5t-7 -3.5t-7 -1.5t-12 -0.5q-15 0 -23 2.5t-22 2.5q-9 0 -20 -8t-22.5 -19.5t-21.5 -23.5t-17 -20q-16 -17 -29 -30.5t-25 -27t-24 -27.5t-27 -31q-29 -30 -54.5 -50t-51.5 -48q-8 -9 -15.5 -18.5t-15 -17.5t-16 -13t-18.5 -5q-7 0 -14 5.5t-6 11.5
l310 334q-4 4 -15 4.5t-21.5 1.5t-18 3.5t-3.5 9.5q4 11 8.5 14.5t16.5 9.5l54 -6q14 5 25.5 15t21.5 21.5t20.5 24.5t22.5 24q19 20 43 40.5t35 43.5q0 8 -10 8q-5 0 -22.5 -4t-39.5 -8.5t-42.5 -8t-31.5 -3.5q-21 0 -40.5 9.5t-21.5 31.5q-6 -14 -12 -22.5t-15 -20.5
q-13 -17 -21 -28t-16 -11q-10 0 -10 16q0 6 2.5 10.5t7 9t10.5 10t12 15.5z" />
    <glyph glyph-name="eight" unicode="8" horiz-adv-x="531" 
d="M233 152q-21 -15 -48 -29.5t-50.5 -29t-39.5 -29.5t-16 -32q0 -5 11 -5.5t16 -0.5q22 0 47 9.5t46 25.5t35 36.5t14 41.5q0 5 -2 9t-13 4zM824 607q13 0 18 -3t5 -26q0 -10 -9.5 -20.5t-24 -19.5t-30.5 -15.5t-29 -8.5q-11 -5 -18.5 -9.5t-16 -10.5t-20.5 -15t-33 -22
q-30 -20 -58 -35t-46 -33q-7 -8 -22 -19t-25 -20q-13 -12 -30.5 -22.5t-29.5 -18.5q-18 -12 -39 -26.5t-33 -26.5q-11 -8 -26.5 -16.5t-29.5 -19t-24 -23t-10 -28.5v-12t-2.5 -26.5t-8 -33t-15.5 -31.5q-11 -13 -23 -23t-28 -18q-27 -12 -45 -21.5t-33 -16t-31 -9.5t-38 -3
q-11 0 -20.5 5t-16.5 11.5t-11.5 14t-4.5 13.5q0 12 12 27t30 30.5t39 30t38 24.5q8 3 17.5 13t20.5 18q6 3 17 9t22 13.5t19.5 16.5t8.5 18l-7 87q0 38 1 74t14 67q5 12 9 19.5t9.5 14t13.5 13t20 14.5q15 10 34 19.5t28 10.5q6 0 13 3.5t17 7.5t22.5 7.5t29.5 3.5
q33 0 47.5 -11.5t14.5 -22.5q0 -29 -10 -51t-26.5 -40.5t-37.5 -35.5t-43 -36q-14 -11 -26.5 -9.5t-12.5 6.5q0 15 11.5 30.5t24.5 15.5q19 12 31 20.5t18.5 17t8.5 19t2 27.5q0 10 -16 15t-34 5q-9 0 -25.5 -5.5t-34 -19t-31.5 -36t-18 -57.5q-1 -17 -0.5 -29.5t-1.5 -35.5
q0 -11 -1 -24.5t0 -25t3.5 -19.5t9.5 -8q13 0 37.5 14t48.5 31.5t43 33t23 18.5q34 21 64 44.5t62 49.5q14 11 30.5 24.5t31.5 22.5q19 13 40 33t44 39t49 33t54 14z" />
    <glyph glyph-name="nine" unicode="9" horiz-adv-x="406" 
d="M518 567q14 0 20 -7t6 -12q0 -9 -18.5 -19t-47.5 -24q-16 -8 -34.5 -14.5t-37.5 -14.5t-37 -18.5t-33 -25.5q-6 -4 -9 -6.5t-7 -5.5q-24 -16 -51 -39t-47 -45q-5 -3 -17 -12.5t-24.5 -21.5t-22 -25t-9.5 -23q0 -1 1 -4.5t4 -3.5q19 0 40 7.5t41.5 18t38 22.5t29.5 20
l9.5 7t23.5 16.5t30 21.5t30 23q22 18 44.5 37t42 34.5t34 25t21.5 9.5q5 0 11.5 -4.5t6.5 -10.5q0 -9 -26.5 -33t-62.5 -53q-30 -25 -55 -46.5t-45 -38.5q-2 -2 -9 -7.5t-11 -7.5q-11 -6 -17.5 -16t-14.5 -19q-6 -8 -13.5 -15t-16.5 -15q-20 -19 -38.5 -40t-36.5 -41
q-8 -8 -14 -15t-11 -11q-5 -7 -12.5 -16.5t-15 -18.5t-14.5 -16.5t-11 -10.5q-11 -10 -29 -26.5t-36 -34.5q-14 -15 -29.5 -31t-30.5 -28.5t-28.5 -20.5t-25.5 -8t-19.5 6t-5.5 13q11 9 27 22.5t32.5 28.5t32 30.5t25.5 27.5q7 8 23.5 25t37.5 38l43.5 43.5t41 41.5t30.5 33
t12 18q0 3 -3 3q-1 -1 -3 -2t-4 -2.5t-4 -3.5q-15 -9 -46.5 -19t-65.5 -10l-5 0.5t-11 2t-10.5 5.5t-4.5 12q0 17 5 28.5t22 28.5q33 37 71.5 78t88.5 82q27 22 64 46t73.5 43t68 31.5t49.5 12.5z" />
    <glyph glyph-name="colon" unicode=":" horiz-adv-x="232" 
d="M149 93q-2 -14 -13 -30t-22 -16q-7 0 -15.5 1.5t-16 5t-12.5 9t-5 14.5q0 4 8.5 11.5t19 15.5t21 14t15.5 6q4 0 7 -4t5.5 -9t4 -10t3.5 -8zM225 294q0 -4 -9 -10t-21 -11t-23.5 -9t-15.5 -4q-5 0 -10.5 12.5t-5.5 20.5q0 3 4 9t9.5 12t10.5 11t8 7l6 1q15 -3 31 -12
t16 -27z" />
    <glyph glyph-name="semicolon" unicode=";" horiz-adv-x="215" 
d="M170 54q0 -7 -11.5 -28.5t-26 -45t-28.5 -41.5t-20 -18q-4 0 -9 3t-5 7q0 3 1 5t3 4q9 13 19.5 36t20 45.5t18.5 39t15 16.5q5 0 14 -9t9 -14zM229 216q0 -8 -13.5 -11.5t-22.5 -3.5q-3 0 -8.5 5t-11.5 11.5t-10.5 13.5t-4.5 10q4 14 13.5 29.5t26.5 15.5q5 0 10.5 -9.5
t10 -21.5t7.5 -23.5t3 -15.5z" />
    <glyph glyph-name="less" unicode="&#x3c;" horiz-adv-x="254" 
d="M237 300q2 -3 2 -9t-2 -8q-2 -3 -19.5 -14t-39 -24t-40.5 -25.5t-25 -19.5q-5 -8 1.5 -16.5t11.5 -12.5q6 -5 10 -11t10 -10q8 -5 15 -6t13 -7q2 0 5.5 -5t6.5 -11.5t4.5 -13t0.5 -7.5q-8 -10 -28 -3t-42 20t-41 27t-26 19q-8 7 -18 21.5t-3 27.5q3 4 19 12.5t37.5 19
t46 21t46 19t37 13.5t18.5 3z" />
    <glyph glyph-name="equal" unicode="=" horiz-adv-x="439" 
d="M367 177q0 -6 -4 -11t-11 -5q-28 0 -55.5 4.5t-55.5 4.5q-30 0 -59.5 -6.5t-59.5 -6.5q-8 0 -17 1.5t-9 12.5q0 5 3.5 8.5t8.5 5.5q1 1 14.5 2t33.5 2t43.5 2t44 2t36 1.5t19.5 0.5q7 0 18.5 0.5t22.5 -0.5t19 -5t8 -13zM421 289q0 -11 -12 -14q-11 -4 -32 -6.5t-44.5 -4
t-46 -2.5t-35.5 -2q-18 -2 -36 -5t-36 -3q-7 0 -18.5 -1t-22.5 1.5t-19 9.5t-9 23q0 7 5 11t11 4q31 0 61 -5.5t62 -5.5q34 0 71 7.5t75 7.5q8 0 17 -2t9 -13z" />
    <glyph glyph-name="greater" unicode="&#x3e;" horiz-adv-x="283" 
d="M142 284q10 -1 23.5 -6t27.5 -12t26 -15.5t19 -15.5q8 -7 12.5 -15.5t3.5 -18.5l-2 -10t-4 -9q-3 -5 -19.5 -16.5t-39.5 -26t-49.5 -30t-50.5 -28.5t-42 -21t-23 -8q-3 1 -3 6v7q0 7 12 17t30 21t38.5 23t38.5 23.5t30 21.5t12 18q1 10 -1 14t-10 11q-2 2 -7.5 6
t-12.5 8.5t-12.5 8t-6.5 3.5q-13 1 -26.5 13t-11.5 30q0 6 6 7t14 -0.5t16 -3.5t12 -2z" />
    <glyph glyph-name="question" unicode="?" horiz-adv-x="438" 
d="M219 -44q0 -11 -6.5 -24.5t-19.5 -13.5q-5 0 -11 3.5t-12.5 7.5t-13.5 7.5t-14 3.5q-40 0 -42.5 8t14.5 17.5t44 17.5t47 8q4 0 7 -4.5t4.5 -10t2 -11.5t0.5 -9zM245 107h-6.5t-4.5 3q-2 18 3.5 28t11.5 23q4 9 6 12.5t4.5 5.5t5.5 4.5t9 8.5q6 5 9.5 10t8.5 10
q11 8 31.5 16.5t37.5 11.5q13 2 21 4t14.5 4t14.5 4t20 4q31 5 50 17.5t39 28.5q23 26 34 60t19 69q6 24 5.5 44.5t-4.5 36t-9.5 27t-9.5 17.5q-1 2 -6.5 5t-12.5 6t-13 5t-7 1q-13 -2 -29 -9.5t-31 -17.5t-27.5 -21.5t-17.5 -21.5q-2 -4 -4 -11t-4.5 -14t-6 -12.5
t-7.5 -6.5q-3 -1 -7.5 0t-4.5 6q-2 3 -1.5 9t2.5 12t5 12l5 10q9 17 24 35t34.5 33.5t43.5 27t50 16.5q6 1 17 -1.5t22.5 -7t21 -11t11.5 -12.5q15 -43 19.5 -80.5t-1.5 -71.5t-21 -66.5t-38 -65.5q-10 -15 -27 -27.5t-38 -22t-43.5 -16.5t-42.5 -10q-34 -7 -60 -16t-49 -29
q-5 -5 -14 -17t-18.5 -24.5t-19 -23t-14.5 -11.5z" />
    <glyph glyph-name="at" unicode="@" horiz-adv-x="859" 
d="M542 137q0 4 -1.5 10.5t-4 13t-6 11.5t-8.5 5q-9 0 -14 -1q-2 0 -13.5 -9t-27.5 -22.5t-34.5 -29.5t-34.5 -30t-27 -24t-12 -12q-5 -12 -5 -23q0 -6 6.5 -7.5t11.5 -1.5q11 0 21 2.5t21 2.5q10 0 31 14.5t42.5 33.5t38 38t16.5 29zM851 393q0 -100 -39 -179t-126 -146
q-19 -14 -39 -30t-46 -16q-14 0 -35 3.5t-33 12.5q-4 3 -6 5.5t-7 2.5q-14 0 -30 -14.5t-35.5 -31.5t-43.5 -31.5t-54 -14.5q-15 0 -30.5 1.5t-28.5 7.5t-21 17.5t-8 30.5q0 9 14 27.5t36 41t48.5 46t52 43.5t46 33t30.5 15q7 2 14 2h14q12 0 17 -8t7 -17t3.5 -17t7.5 -8
q16 0 28 10t24 10q5 0 13.5 -1.5t8.5 -9.5t-9 -19t-19.5 -23t-19.5 -24.5t-9 -24.5q0 -18 10.5 -28.5t28.5 -10.5q9 0 21 7t24.5 17t23 20.5t16.5 17.5q41 48 62 87t29 73.5t6.5 66.5t-5.5 67q-2 17 -11 33t-22 29t-29.5 20.5t-33.5 7.5h-39.5t-47.5 -1t-46.5 -4.5
t-36.5 -9.5q-48 -23 -91.5 -41.5t-88.5 -47.5q-32 -20 -50.5 -41t-38.5 -46q-23 -28 -47.5 -59.5t-41.5 -62.5q-32 -59 -42 -117.5t-10 -126.5q0 -46 16.5 -63t39 -21t44 -3.5t32.5 -10.5q4 -4 6 -8.5t6 -7.5t9.5 -8.5t5.5 -10.5q0 -4 -6.5 -7t-15 -4.5t-17 -2t-11.5 -0.5
q-77 0 -120 39t-43 131q0 67 21 132.5t65 116.5q17 19 34 42.5t32 43.5q23 29 43.5 53.5t49.5 47.5q34 28 80.5 52t97 42t101.5 28t95 10q34 0 65 -6.5t54.5 -22t37 -41.5t13.5 -65z" />
    <glyph glyph-name="A" unicode="A" 
d="M390 19q-1 0 -1.5 0.5t-1.5 0.5q-5 0 -6.5 -2.5t-3.5 -6.5q-10 -21 -31.5 -54t-43.5 -68t-39 -67t-17 -52q0 -12 6 -28t21 -16q7 0 21 18.5t27.5 42t24.5 46t14 30.5q12 38 20 77t10 79zM365 357q0 3 -1.5 9.5t-4.5 14t-6 13t-6 5.5q-17 0 -35.5 -9.5t-34 -24t-26 -32.5
t-10.5 -35t11 -27.5t28 -10.5q5 0 19 13t28.5 30t26 32.5t11.5 21.5zM399 276q0 9 -5 19t-16 10q-12 0 -20.5 -11t-8.5 -22q0 -10 6.5 -15t15.5 -5q11 0 19.5 6t8.5 18zM612 605q-8 -4 -22 -19t-31 -37.5t-36 -48t-36.5 -50t-33 -44.5t-25.5 -30l-5 -5t-3 -7q0 -8 1.5 -24
t5.5 -31.5t11 -27.5t18 -12q16 0 30.5 16.5t28 42.5t25.5 58t22 62l18.5 55.5t14.5 38.5t14 27.5t10 28.5zM749 786q0 -17 -10 -47t-26 -67t-36 -78t-38.5 -80t-34 -73t-23.5 -56q-1 -3 -4.5 -9.5l-7 -13t-6 -12.5t-2.5 -7q0 -10 9 -10q23 0 42 18.5t36 41t33.5 41
t33.5 18.5q7 0 11 -5.5t4 -11.5q0 -5 -3 -8q-27 -32 -41 -55t-28 -42t-36 -36t-66 -37q-9 -4 -18.5 -8t-17.5 -9q-3 -2 -13.5 -18t-22.5 -35.5t-22 -37t-12 -22.5q-8 -23 -11.5 -46t-5 -46.5t-3 -47.5t-5.5 -47q-5 -25 -16 -47.5t-20 -45.5q-20 -51 -43 -94.5t-60 -83.5
q-5 -5 -16 -15.5t-24 -21.5t-24.5 -19.5t-16.5 -8.5q-14 0 -17.5 12t-3.5 23q0 19 4.5 36.5t10.5 34.5q15 42 30 83.5t33 83.5q24 56 54.5 107.5t63.5 102.5q16 24 28 50.5t12 55.5q0 14 -8.5 26t-24.5 12q-17 0 -34.5 -3t-33.5 -9q-13 -5 -30.5 -21t-38 -37.5t-42.5 -45
t-44 -43t-43.5 -32.5t-40.5 -13q-10 0 -22.5 2.5t-12.5 16.5q0 9 24.5 29.5t56 43.5t61 45t39.5 35q2 2 7 8.5t5 9.5q0 12 -8 12.5t-16 0.5q-14 0 -19.5 7t-5.5 21q0 21 8 40l16 38q9 23 17.5 44t19.5 39.5t27.5 33t42.5 24.5l6 2t6 1q12 0 21 -9t17 -20.5t15.5 -20.5
t16.5 -9q4 0 28 28.5t58.5 71.5t75 93t76 93t62.5 71.5t34 28.5q10 0 11.5 -7t1.5 -14z" />
    <glyph glyph-name="B" unicode="B" horiz-adv-x="780" 
d="M493 494q0 8 -5 19t-15 11q-13 0 -35 -16t-43.5 -38t-37 -44t-15.5 -35q0 -5 6.5 -13.5t20.5 -6.5q8 1 23.5 8t31.5 16t30 18t20 15q12 13 15.5 31t3.5 35zM822 572q0 -78 -39.5 -140t-113.5 -90l3 -3q13 -1 23 -22t17 -48.5t10 -54t3 -37.5q0 -60 -27.5 -112t-79.5 -83
q-21 -12 -38.5 -22.5t-35.5 -18t-38 -12t-45 -4.5q-11 0 -23 0.5t-23 2.5q-15 3 -31 14.5t-29 27t-21.5 33t-8.5 33.5q0 20 9 46.5t24 50.5t35 40.5t43 16.5q11 0 25 -11.5t14 -22.5q0 -7 -5 -15t-13 -8t-10.5 3t-3 6.5t-1.5 6.5t-7 3q-11 0 -22 -10t-20 -23.5t-14.5 -28.5
t-5.5 -25q0 -32 4 -51.5t16.5 -30t35 -14.5t59.5 -4q19 0 41 10.5t43 26t39.5 33t31.5 31.5q12 13 19 31t10.5 37.5t4 39.5t0.5 37q0 14 -0.5 30t-4 31t-11 28.5t-20.5 21.5q-3 4 -11.5 7t-18 4.5t-19 2t-14.5 0.5q-23 0 -51.5 -15.5t-59 -40.5t-61 -56t-58.5 -61.5
t-52 -57.5t-40 -44q-5 -6 -20 -18.5t-34.5 -28t-41 -32t-40.5 -30t-33.5 -22.5t-19.5 -9q-8 0 -16 -0.5t-8 9.5q0 7 6 13q17 17 38 28t40 25q63 48 116.5 106t108.5 114q16 16 30.5 32.5t31.5 30.5q-11 -1 -32 -10t-42.5 -19t-40.5 -18t-26 -8t-13.5 -0.5t-6.5 9.5t24 23.5
t55.5 27t60.5 24.5t40 16q47 23 93.5 61.5t80.5 77.5q12 14 23 29.5t25 27.5q5 4 15 4q17 0 17 -17q0 -9 -14.5 -29.5t-33.5 -43t-37.5 -42t-25.5 -27.5q5 -1 9 -1h9q7 0 19 2t25 5.5t24.5 7.5t18.5 7q17 9 33.5 30.5t30 47t22 51.5t8.5 45q0 18 -7.5 28.5t-19 16.5t-26 7.5
t-27.5 1.5q-22 0 -42.5 -6t-40.5 -14.5t-39.5 -18.5t-38.5 -19q14 -25 14 -52q0 -30 -19.5 -60.5t-49 -54.5t-63.5 -39t-62 -15q-21 0 -37 11t-16 34q0 22 19.5 47.5t42.5 49.5t42.5 42.5t19.5 26.5q0 5 -11.5 5.5t-15.5 0.5q-15 0 -30 -4t-30 -4q-8 0 -17.5 5t-9.5 15
t16 15.5t37 8.5t40.5 3.5t27.5 0.5q13 0 25.5 -4t25.5 -4q21 0 46.5 9.5t52 21t53 21t49.5 9.5q18 0 42 -2.5t45 -10t36 -22t15 -38.5z" />
    <glyph glyph-name="C" unicode="C" horiz-adv-x="601" 
d="M552 247q0 8 -13.5 10.5t-19.5 2.5q-20 0 -47 -12.5t-57 -32.5t-61 -45t-59.5 -49.5t-52 -46.5t-37.5 -36q-17 -17 -33 -35.5t-33 -35.5q21 -6 43 -6q51 0 94.5 17t81 45t69.5 64t60 74q8 11 16.5 22.5t18.5 22.5q8 9 19 18t11 23zM783 561q0 6 -2 17.5t-6 23t-10 19.5
t-14 8q-14 0 -36.5 -6t-49 -15.5t-53.5 -23t-48.5 -28.5t-35.5 -31.5t-14 -31.5t1 -36.5t7 -41.5t17.5 -34.5t32.5 -14.5q37 0 74.5 16t68 43t49.5 62.5t19 73.5zM820 601q0 -51 -19.5 -99.5t-53.5 -86t-80 -60.5t-99 -23q-36 0 -55.5 16.5t-29 41t-11 54t0.5 56.5
q-25 -14 -62.5 -39t-80 -57t-85 -69.5t-76.5 -75t-55.5 -73t-21.5 -65.5q0 -29 5.5 -57.5t23.5 -51.5q45 37 84.5 78t87.5 76q20 14 37 30.5t37 30.5q12 9 23.5 21t24 22.5t26 18t30.5 7.5q11 0 21.5 -2t21.5 -2q10 0 22.5 -2t23 -6.5t17.5 -13.5t7 -22q0 -23 -16 -46
t-29 -41q-17 -23 -33.5 -45.5t-33.5 -44.5q-23 -29 -56.5 -55t-72 -46t-79.5 -32t-78 -12t-73 17q-17 -16 -30 -35.5t-29 -36.5q-6 -6 -26 -24t-43 -37t-43 -34t-26 -15t-11.5 4t-5.5 11q0 4 12 17.5t30 31.5t40 39t42 40.5t35.5 35.5t21.5 25q-22 19 -33 45.5t-11 55.5
q0 22 4.5 43t9.5 42q7 27 14.5 45.5t17.5 34.5t24 30.5t35 32.5q48 41 93.5 85.5t100.5 76.5q36 21 72.5 40.5t72.5 41.5q1 8 9.5 31t19 47t22 43t19.5 19q6 0 11.5 -3.5t5.5 -10.5q0 -3 -4.5 -13.5t-10 -22.5t-10.5 -23.5t-7 -15.5q18 14 43 30t52.5 29.5t55 22t51.5 8.5
q34 0 58.5 -21.5t24.5 -56.5z" />
    <glyph glyph-name="D" unicode="D" horiz-adv-x="983" 
d="M357 51q-11 4 -23 8.5t-24 4.5q-25 0 -55.5 -1.5t-59.5 -8.5t-54.5 -20t-40.5 -37q-4 -6 -9.5 -18t-5.5 -20q0 -11 10 -15.5t19 -4.5q43 0 74.5 8.5t58 23.5t52.5 35.5t58 44.5zM952 409q0 25 -1.5 40.5t-6 28.5t-14.5 25.5t-26 30.5q-11 12 -25 22.5t-28 19.5
q-7 5 -26.5 9.5t-42 7.5t-43 5t-30.5 2q-39 0 -78 -2.5t-76 -12t-70.5 -28t-60.5 -49.5q-21 -24 -34 -45.5t-13 -55.5q0 -35 16.5 -58.5t42.5 -37.5t57 -19.5t60 -5.5q19 20 42 34.5t43 33.5q26 25 51 52.5t45 57.5q6 9 12 21t13 22.5t16.5 18t22.5 7.5q16 0 16 -14
q0 -5 -1 -9t-3 -9q5 3 13 7t14 4q18 0 24.5 -15.5t6.5 -29.5q0 -51 -20 -84.5t-52 -55.5t-72.5 -35.5t-81.5 -23.5q-17 -5 -34 -11t-35 -9q-37 -45 -71 -91.5t-72 -91.5q18 -9 36.5 -18.5t37.5 -17.5t39 -13t41 -5q24 0 49 9.5t49 24t46.5 30.5t41.5 30q21 15 38 26.5
t32 24.5t28 29.5t26 39.5q19 34 30.5 51.5t17.5 33.5t8 37t2 62zM834 460q0 8 -4 9.5t-11 1.5t-10 -1.5t-8 -6.5q-13 -12 -24 -26t-23 -28q-25 -28 -52.5 -53t-58.5 -46q25 9 58.5 21t62.5 29.5t49.5 42t20.5 57.5zM995 422q0 -68 -19.5 -127t-54 -109.5t-82.5 -91.5
t-105 -73q-16 -9 -35.5 -19t-40 -18.5t-41 -14t-39.5 -5.5q-22 0 -45.5 7.5t-47 18.5t-46 23t-42.5 21q-44 -33 -72.5 -58t-56.5 -42t-64.5 -25.5t-97.5 -8.5q-26 0 -44.5 19.5t-18.5 44.5q0 31 22 58.5t53.5 47.5t67.5 31.5t63 11.5q38 0 74.5 -6.5t70.5 -22.5
q29 44 62.5 83.5t67.5 80.5q-36 6 -62.5 9.5t-46 13.5t-35 30t-29.5 59q-5 13 -8 26t-3 27q0 32 15.5 61t34.5 53q15 18 36.5 34.5t46 29t50 21.5t48.5 14q25 5 50 6t51 4q25 3 51 3h35q38 0 80 -19t77 -50t57.5 -69.5t22.5 -78.5z" />
    <glyph glyph-name="E" unicode="E" horiz-adv-x="668" 
d="M645 608q0 17 -12.5 27.5t-28.5 10.5q-15 0 -42 -13.5t-56 -31.5t-54.5 -36.5t-37.5 -28.5q14 -18 36 -37t46 -19q17 0 42.5 13t49 32.5t40.5 42t17 40.5zM687 629q0 -16 -7.5 -29t-15.5 -26q-35 -56 -76 -87t-108 -39q-17 6 -30 9.5t-25 8t-24 12t-25 20.5
q-9 -11 -17.5 -22.5t-16.5 -24.5q-4 -23 -4 -51q0 -15 1 -30.5t3 -30.5q1 -15 8 -28.5t14.5 -26t13.5 -24t6 -23.5q0 -8 -6.5 -14t-14.5 -7q-10 4 -16 12t-14 14q-5 4 -16 7.5t-23 6t-23.5 4.5t-18.5 2q-28 -12 -48.5 -26t-37.5 -31t-32 -37.5t-30 -45.5q-3 -18 -3 -35
t2 -34t5 -34q14 -19 33 -36t45 -17q49 0 97 10.5t96 21.5t93 32.5t88 43.5q7 4 19.5 17t25.5 27.5t24 26t15 11.5q10 0 10 -9q0 -3 -4.5 -11t-10.5 -17t-12 -16.5t-9 -10.5q-36 -42 -93.5 -76t-123 -58t-131.5 -37.5t-120 -13.5q-29 0 -48.5 11t-32.5 29t-18.5 41.5
t-5.5 48.5q0 22 2.5 44t10.5 43q12 34 37.5 67t58.5 58.5t71 40.5t76 13q-9 27 -9 55q0 20 4.5 43t13 45t19.5 42t25 35q-11 11 -20.5 31t-16 43t-10.5 45t-4 38q0 6 5 13.5t12 7.5t17 -4q6 -19 13 -36.5t14 -36.5q5 -13 9 -24t13 -22q3 -3 7 -6t6 -8q16 15 41.5 35.5t54 40
t57 33t50.5 13.5q13 0 27.5 -3t27.5 -10t21.5 -17.5t8.5 -26.5z" />
    <glyph glyph-name="F" unicode="F" horiz-adv-x="677" 
d="M492 211q-26 -17 -68 -46t-90.5 -66t-98 -78.5t-89.5 -83t-65.5 -80t-25.5 -69.5q0 -19 20 -19q44 0 81.5 27t70 65t60.5 79.5t54 70.5q17 20 36 36.5t36 36.5q24 29 41 62.5t38 64.5zM1009 739q0 -14 -9.5 -27t-17.5 -24q-9 -12 -15.5 -23.5t-13.5 -22t-16 -20
t-23 -18.5q-35 -22 -75 -36.5t-80 -26.5q-42 -48 -78.5 -100t-64.5 -109q17 5 46 12.5t60 14.5t59.5 12t44.5 5q10 0 18 -4.5t8 -15.5q0 -9 -10.5 -14t-17.5 -7q-21 -5 -43 -7t-44 -6l-48 -10t-48 -9q-17 -12 -34.5 -23.5t-34.5 -25.5q-13 -11 -26 -27.5t-25.5 -35
t-23.5 -37t-20 -33.5q-17 -28 -46 -70t-66 -89t-79 -94.5t-84.5 -85t-83 -61.5t-74.5 -24q-19 0 -29 18.5t-10 34.5q0 7 3 16.5t7 20t8 20t7 16.5q20 48 37 79t37.5 56t47.5 48.5t66 55.5q23 19 42.5 41t42.5 42q59 53 125.5 95.5t136.5 78.5q18 26 33.5 53l31 54t32.5 53
t37 50q-30 0 -59 -7t-59 -7q-29 0 -58.5 2.5t-58.5 2.5q-32 0 -69.5 -7.5t-69.5 -25t-53 -45t-21 -66.5q0 -7 6 -15t14.5 -14.5t18 -10.5t15.5 -4q38 0 64.5 14t47 31.5t36.5 31.5t32 14q8 0 10.5 -7t2.5 -13q0 -12 -10.5 -27t-27 -30t-37.5 -30t-41.5 -26t-38.5 -18t-29 -7
q-18 0 -35.5 12t-31 29.5t-21.5 38t-8 37.5q0 20 5.5 38.5t14.5 35.5q18 34 35.5 55.5t39.5 32.5t49.5 15t65.5 4q39 0 78.5 1t78.5 1q26 0 52.5 4.5t52.5 4.5t52 9q26 33 49 54.5t47 38.5t50 34t58 40q10 7 23 18t25 11q4 0 7 -5t5 -12t2.5 -13.5t0.5 -9.5z" />
    <glyph glyph-name="G" unicode="G" horiz-adv-x="791" 
d="M541 98q-62 -35 -124 -69.5t-120 -76.5q-26 -19 -47.5 -42.5t-45.5 -44.5q-29 -25 -60 -46t-57 -50q-20 -21 -33 -46t-32 -47q-9 -11 -20 -22t-11 -26q0 -7 6.5 -9t11.5 -2q9 0 18 2.5t17 4.5q52 15 99 41.5t89.5 60t81 72t73.5 79.5q18 20 29.5 44.5t28.5 45.5
q25 32 49.5 64t46.5 67zM776 607q0 2 -4.5 2.5t-5.5 0.5q-10 2 -20.5 3t-20.5 1q-6 0 -11.5 0.5t-11.5 0.5q-8 0 -15 -1.5t-11 -9.5q-12 -23 -23.5 -32t-21 -12t-17 -4t-11.5 -10q1 -14 13.5 -17t23.5 -3q17 0 40.5 4.5t44.5 14.5t36 25.5t15 36.5zM934 300q0 -9 -15 -19.5
t-35 -20t-39.5 -17t-27.5 -10.5q-25 -9 -44.5 -23.5t-42.5 -25.5q-29 -14 -59.5 -25.5t-59.5 -25.5q-11 -15 -19 -31.5t-15.5 -33l-15 -33t-17.5 -31.5q-19 -28 -42 -52.5t-44 -50.5q-11 -14 -22.5 -26.5t-23.5 -25.5q-37 -38 -82 -84.5t-96 -87t-106 -68t-112 -27.5
q-24 0 -43 10.5t-19 38.5q0 21 13.5 37t25.5 31q18 24 33 49.5t35 48.5q26 29 58.5 50.5t61.5 47.5q26 22 48 46.5t50 43.5q72 50 148.5 94t155.5 82q18 32 40 61t45.5 57.5t45.5 58t40 61.5q-47 -28 -89.5 -62t-85.5 -67.5t-88.5 -63t-98.5 -47.5q-8 -2 -25.5 -7.5
t-24.5 -5.5q-11 0 -20.5 10.5t-16 24.5t-10 29.5t-3.5 24.5q0 15 5 27t12 23t15 21.5t15 22.5q6 11 11 22l10 22q13 26 35.5 54t49 55t53.5 50.5t51 41.5q-7 16 -7 30q0 6 5 6q7 0 14.5 -6.5t12.5 -11.5q24 16 44 27.5t40.5 19t43.5 11t52 3.5q26 0 42.5 -9t16.5 -38
q0 -26 -17.5 -48t-43 -37.5t-54.5 -24t-51 -8.5t-44 9.5t-32 30.5q-28 -18 -56.5 -43.5t-55 -54.5t-49.5 -60t-39 -59q-13 -22 -17.5 -47t-4.5 -51q0 -20 19 -20q11 0 21 4t20 7q29 9 54 23.5t48 31.5t44.5 35.5t44.5 37.5q15 12 45 35.5t63 47t64 40.5t49 17q8 0 12.5 -6.5
t4.5 -14.5q0 -7 -11.5 -26t-29.5 -44.5t-39.5 -54t-42 -54.5t-36.5 -46.5t-23 -29.5q17 6 37.5 12.5t35.5 16.5q26 17 52.5 28t54.5 22q5 2 18.5 7.5t28 11.5t26.5 10.5t15 4.5q10 0 10 -9z" />
    <glyph glyph-name="H" unicode="H" horiz-adv-x="627" 
d="M225 229q-38 0 -61.5 -5t-39.5 -17.5t-26 -35t-21 -57.5q-2 -7 -4.5 -14t-2.5 -15q0 -17 7 -32t27 -15q5 0 8.5 0.5t8.5 3.5q2 1 13 14t26 32.5t33 42t33.5 43t27 35.5t14.5 20h-43zM864 632q0 5 -3 9.5t-9 4.5t-11 -5l-9 -9q-17 -17 -36.5 -30.5t-35.5 -30.5
q-47 -52 -83 -113.5t-73 -119.5q75 40 128.5 100t101.5 129q11 16 20.5 30.5t9.5 34.5zM908 640q0 -26 -14 -48.5t-28 -43.5q-35 -54 -65.5 -92.5t-64.5 -68.5t-75.5 -56t-98.5 -56q-26 -38 -56 -72t-54 -73q-23 -38 -40 -79t-37 -80q-9 -17 -19.5 -34t-18.5 -35
q-7 -14 -20.5 -49.5t-27.5 -75t-24.5 -74t-10.5 -47.5q0 -23 4 -46t4 -46q0 -11 -0.5 -18.5t-3 -13t-7.5 -10t-15 -10.5q-4 -2 -7 -2q-9 0 -15 7.5t-6 15.5q0 9 3 18t3 18q0 13 -2 25t-2 25q0 54 12.5 107t35.5 101q8 17 18 33.5t18 33.5q13 28 24.5 56.5l23 57t25 56.5
t30.5 54q21 32 45 60.5t44 60.5q-44 -14 -89 -19l-90 -10q-24 -46 -58.5 -84t-68.5 -76q-12 -14 -23 -27t-22 -27q-11 -12 -23 -20t-29 -8q-15 0 -25 9t-17 22.5t-10 28t-3 26.5q0 15 3.5 29.5t6.5 28.5q4 19 7 37.5t8.5 35t16 31t28.5 26.5q24 16 56.5 20t61.5 4
q18 0 35.5 -1t35.5 -2q11 15 27 39.5t34 54t36 61.5t32 62.5t23 56.5t9 43q0 7 -7 12t-16.5 8.5t-19 5.5t-14.5 2q-30 0 -49.5 -10t-32 -22.5t-19.5 -22.5t-13 -10t-9 4.5t-3 9.5q0 26 10.5 45t28 31.5t40 18.5t45.5 6q6 0 11.5 3t11.5 3q14 0 28.5 -12t26 -28.5t19 -34.5
t7.5 -30t-10 -34.5t-25.5 -51t-34.5 -60.5t-37 -61.5t-33 -53.5t-22 -38q11 -1 23 -1h23q16 0 35.5 1.5t39.5 5.5t38 11t30 18q15 13 19 30.5t12 34.5q17 35 39.5 68t44.5 65q23 34 40.5 62.5t37.5 51t47 40.5t70 32q8 3 17 5.5t18 2.5q23 0 33 -13t10 -34z" />
    <glyph glyph-name="I" unicode="I" horiz-adv-x="670" 
d="M1066 644q0 -5 -3 -9.5t-7 -7.5q-27 -24 -76.5 -45.5t-105.5 -38t-110 -26t-90 -9.5q-14 0 -27 1t-26 5q-29 -52 -57.5 -104t-66.5 -99q-11 -13 -22 -24.5t-21 -24.5q-13 -17 -22 -35t-20 -35q-23 -39 -50.5 -75t-50.5 -75q48 -15 107.5 -38t111 -57t86.5 -80t35 -107
q0 -14 -4 -29.5t-22 -15.5q-6 0 -9.5 8t-5.5 13q-27 64 -57 110t-69.5 76.5t-92 47t-122.5 21.5q-4 -5 -12 -16.5t-17.5 -23t-19 -20t-15.5 -8.5q-5 0 -9 4l-4 11q2 15 8.5 28t11.5 27q-11 3 -21 4t-21 1q-19 0 -42.5 -2.5t-41.5 -8.5q-5 -2 -13.5 -6t-18 -8t-17.5 -7.5
t-11 -3.5q-7 0 -9.5 6t-2.5 11q0 11 14 21t35.5 18t47.5 14t51 10t45 6t30 1q46 82 104.5 154.5t119.5 144.5q23 26 41 54t37 57q11 16 22.5 31.5t19.5 32.5q-33 10 -66 24t-66.5 26t-67.5 20.5t-70 8.5q-19 0 -30.5 -9t-17.5 -23t-7.5 -30t-1.5 -31q0 -41 19.5 -54.5
t57.5 -13.5q15 0 29 4t28 9.5t28 9.5t29 4q8 0 10 -7t2 -12q0 -7 -18.5 -19t-42.5 -24t-46.5 -20.5t-30.5 -8.5q-23 0 -44.5 13t-38 33t-26.5 44t-10 46q0 47 17.5 74t59.5 48q11 5 21.5 9.5t22.5 4.5q25 0 50.5 -6t50.5 -15t49.5 -19.5t48.5 -18.5q23 -8 47 -12t48 -9
q3 6 9 17t13.5 22t15 19.5t14.5 8.5t9.5 -6.5t2.5 -11.5q0 -3 -2.5 -11t-6.5 -16t-7.5 -16t-5.5 -11q25 -3 50 -3q85 0 164.5 26t152.5 66q7 2 14.5 5.5t14.5 3.5t10 -6.5t3 -11.5z" />
    <glyph glyph-name="J" unicode="J" horiz-adv-x="643" 
d="M611 657q20 -7 40.5 -11t40.5 -8q11 11 22.5 19t25.5 8q6 0 7 -5t1 -9q0 -8 -15 -24.5t-33.5 -35.5t-36.5 -37t-24 -28q-12 -22 -17.5 -54.5t-7 -68.5t-1 -70.5t0.5 -59.5q0 -30 -7.5 -73t-20 -87.5t-30 -83.5t-38.5 -61q-48 -51 -98 -94.5t-105.5 -75t-118 -49
t-135.5 -17.5q-12 0 -25.5 3t-13.5 20q0 38 21 75.5t52 72t65 64.5t61 53q6 6 21 18.5t32 26t32 23.5t22 10q6 0 9 -5t3 -10q0 -7 -14 -20t-32 -27t-35 -26.5t-23 -18.5q-15 -14 -38 -39.5t-45.5 -54.5t-38.5 -58t-16 -48q0 -11 5 -17q83 4 145.5 28.5t111 66t87.5 98.5
t76 125q10 19 18 32.5t13.5 26.5t8.5 28t3 38q0 37 -6 73.5t-6 73.5q0 12 2.5 32t6.5 40.5t9.5 39t11.5 29.5q5 10 12.5 18t13.5 18q8 12 11.5 18.5t7 11t9 10t17.5 15.5q-31 11 -62 23.5t-62 23.5t-63 18.5t-66 7.5q-19 0 -30.5 -9t-17.5 -22.5t-7.5 -30t-1.5 -31.5
q0 -21 2.5 -32.5t9 -17.5t18.5 -7.5t31 -1.5q15 0 25.5 1.5t20.5 4t20 4t25 1.5q8 0 10 -7t2 -12q0 -7 -14 -16t-32 -16.5t-35.5 -12.5t-25.5 -5q-23 0 -43.5 10.5t-35.5 28t-23.5 39t-8.5 43.5q0 47 17.5 74t59.5 48q11 5 21.5 9.5t22.5 4.5q25 0 50.5 -6t50.5 -15
t49.5 -19.5t48.5 -18.5z" />
    <glyph glyph-name="K" unicode="K" horiz-adv-x="665" 
d="M431 277q-3 6 -7.5 15.5t-10 18.5t-12.5 15t-16 6t-14.5 -6t-9 -14.5t-4.5 -17.5t-1 -16q0 -20 10 -34.5t30 -17.5zM956 759q0 -7 -9 -24.5t-21 -37t-23.5 -37.5t-16.5 -26q-36 -60 -74.5 -118t-82 -111t-93.5 -100t-110 -87q14 -38 18 -78.5t15 -78.5q8 -26 20.5 -50.5
t21.5 -50.5q7 -19 16.5 -60t18 -86.5t14.5 -87t6 -61.5q0 -5 -2 -14.5t-5.5 -19.5t-8 -17.5t-10.5 -7.5t-11 18.5t-9.5 41.5t-8 45t-4.5 30q-21 115 -51 227.5t-78 218.5q-14 -7 -29 -9.5t-31 -2.5q-30 -40 -65.5 -80.5t-76.5 -73.5t-88 -53.5t-102 -20.5q-23 0 -27.5 16
t-4.5 34q0 22 4.5 54t12.5 68t20.5 72.5t28.5 68t36 54.5t43 32q6 -1 8 -5.5t2 -9.5q0 -10 -18.5 -33.5t-40 -58t-40 -78.5t-18.5 -94q0 -4 1.5 -13t4.5 -18.5t7 -16.5t10 -7q3 0 5.5 1.5t5.5 1.5q12 0 24 -2t24 -2q27 0 56.5 19.5t57 47t51 57t38.5 49.5q-23 11 -35.5 34
t-12.5 48q0 13 5.5 33.5t15 39.5t22.5 33t29 14q12 0 22.5 -5.5t19.5 -13.5t17 -17.5t15 -17.5q12 19 32.5 53t39.5 71.5t33 72.5t14 57q0 11 -6.5 14.5t-15.5 3.5t-25 -4t-32.5 -10t-30.5 -13.5t-20 -14.5q-5 -5 -11 -14.5t-14 -9.5q-16 0 -16 15t21.5 33.5t50 34.5
t56.5 27t42 11q19 0 30 -13.5t11 -31.5q0 -26 -16 -69t-38 -89t-44.5 -88.5t-35.5 -68.5q5 -11 11 -22.5t11 -22.5q58 35 108.5 81t94.5 98.5t82.5 110t71.5 114.5q4 6 14.5 24.5t22.5 39t23 36t16 15.5q6 0 8.5 -4.5t2.5 -9.5z" />
    <glyph glyph-name="L" unicode="L" horiz-adv-x="872" 
d="M495 94q-56 -13 -106 -45q-9 -6 -33 -27.5t-54.5 -50.5t-63.5 -61.5t-60.5 -61.5t-45.5 -50.5t-18 -27.5q0 -11 10 -22t21 -11q15 0 27.5 5t23.5 13t21.5 17t21.5 18q25 21 44.5 39t37 37t34.5 40t37 47q27 35 51.5 70.5t51.5 70.5zM648 284q-8 0 -14.5 -12.5t-8.5 -18.5
l27 31h-4zM1138 629q0 8 -8 15t-16 7q-35 0 -57.5 -6t-48.5 -27q-24 -20 -45 -43t-41.5 -47t-40.5 -48.5t-41 -46.5q-44 -47 -84 -96q-22 -26 -45.5 -50t-46.5 -50q29 9 56.5 19t53.5 24q66 33 126 79t109 101q15 17 37.5 37t42.5 41.5t34.5 44.5t14.5 46zM1209 658
q0 -29 -19.5 -59t-46 -58.5t-55 -55t-46.5 -47.5q-16 -19 -46.5 -45.5t-69 -56t-82 -57.5t-84.5 -49.5t-77 -33.5t-60 -8l-25 -31q5 1 10 1.5t10 0.5q29 0 62 -13.5t52 -35.5q16 -18 20 -38t11 -42q6 -20 13 -40.5t7 -42.5q0 -7 -2.5 -20t-7 -26t-11.5 -23t-16 -10
q-18 0 -25.5 17.5t-12.5 44t-10.5 57t-19 57t-39 44t-70.5 17.5h-13q-22 -28 -54 -70.5t-70 -90.5t-80 -96t-84 -86.5t-82 -63t-75 -24.5q-26 0 -46 14.5t-20 42.5q0 14 15 37t38 51t51.5 57.5t56 56.5t50.5 48.5t35 32.5q19 17 37.5 35.5t38.5 32.5q36 24 79.5 40t87.5 21
l64 77q-11 14 -11 31q0 25 8.5 39.5t23 21.5t33.5 9t39 2q9 8 16.5 17.5t15.5 19.5q42 52 89 101q18 19 41.5 45t49.5 54.5t55 56t58.5 50t58.5 36t57 13.5q12 0 26 -4t25 -11.5t18.5 -18t7.5 -24.5z" />
    <glyph glyph-name="M" unicode="M" horiz-adv-x="1315" 
d="M695 311q-21 -5 -53 -20t-68.5 -36t-76 -46t-75.5 -49t-66 -45.5t-49 -34.5q-19 -14 -51 -41.5t-64.5 -59.5t-58 -64t-30.5 -55q22 -11 45 -11q25 0 56.5 16t63 38.5t60.5 46.5t48 40q88 73 169 151.5t150 169.5zM1389 305q0 -8 -5.5 -17.5t-10.5 -16.5
q-11 -14 -27 -23.5t-30 -20.5t-42 -39.5t-56.5 -62t-49.5 -64.5t-21 -47q0 -11 11.5 -13.5t19.5 -2.5q23 0 43.5 10t38 21.5t32.5 21.5t27 10q9 0 13 -5q-17 -13 -40.5 -28t-49.5 -27.5t-52.5 -21t-47.5 -8.5q-46 0 -46 49q0 19 7 38t17.5 37t22.5 35t23 32
q-45 -14 -86 -36.5t-81 -46.5q-8 -5 -30 -17.5t-46.5 -25.5t-46 -23.5t-27.5 -10.5q-7 0 -15 1t-15.5 4t-12.5 8.5t-5 14.5q0 14 14 24t24 17q22 15 44 45.5t40 66.5t29 72t11 63q0 31 -20 44.5t-48 13.5q-41 0 -81 -14q-38 -39 -73.5 -80.5t-73.5 -80.5
q-56 -57 -115 -110.5t-117 -108.5q-16 -15 -39 -38t-48.5 -45.5t-50.5 -41.5t-44 -28q-29 -13 -64 -22.5t-66 -9.5q-30 0 -52 23t-22 53q0 15 16.5 40.5t38 52t43.5 49t34 32.5q16 13 32.5 24.5t32.5 23.5l84 64t87 61q51 32 100.5 66t103.5 61q34 17 61.5 27.5t54 21.5
t53.5 26t59 41q30 25 51 50.5t21 67.5q0 60 -25.5 100t-66.5 64.5t-92 35t-101 10.5q-41 0 -82.5 -16t-75.5 -35t-55.5 -35t-22.5 -16q-5 0 -9.5 4.5t-4.5 9.5t3 13t7 16.5t9 16t8 12.5q21 27 50.5 42t63.5 21.5t68.5 7.5t65.5 1q25 0 41.5 -1.5t31 -5.5t30 -10t38.5 -15
q30 -12 61.5 -26t57 -33.5t42 -47t16.5 -65.5q0 -70 -34 -128t-97 -90q14 4 29 7.5t30 3.5q117 0 117 -116q0 -31 -8.5 -60.5t-21 -57.5t-28 -55t-30.5 -53q23 12 59 34t78 48t87 53t86 49t75.5 36t55.5 14q4 0 8 -2t4 -7z" />
    <glyph glyph-name="N" unicode="N" horiz-adv-x="746" 
d="M375 -71q0 9 -9 11q-5 -1 -11 -10.5t-11 -21.5t-8.5 -24t-3.5 -17q0 -2 1 -2q5 1 12 9.5t14 19t11.5 20.5t4.5 15zM582 489q0 13 -13 13q-9 0 -15.5 -8.5t-11.5 -20.5t-9.5 -23.5t-10.5 -17.5q-5 -5 -9 -10.5t-4 -13.5q0 -4 2.5 -10t7.5 -6t10 8.5t7 12.5q7 11 12 22.5
t13 21.5q5 7 13 15t8 17zM1494 565q0 -13 -9 -32.5t-23 -37.5t-30.5 -30.5t-30.5 -12.5q-8 0 -8 6q0 12 10.5 22.5t23.5 21t23.5 23t10.5 29.5q0 16 -9.5 25t-23.5 14t-29 6.5t-27 1.5q-78 0 -160 -22t-164 -59.5t-161 -88t-151 -107t-135 -116t-112 -116.5
q-15 -17 -24.5 -27.5t-15.5 -21t-10 -24.5t-8 -36q-2 -11 -4 -23t-5 -23q-3 -12 -14 -34.5t-25.5 -44.5t-31 -38.5t-29.5 -16.5t-20.5 10.5t-7.5 22.5q0 30 9.5 55t23.5 48t30.5 45t30.5 46.5t23.5 52.5t9.5 62q0 20 -0.5 39t-5.5 39q-10 -9 -39 -34.5t-66.5 -59.5t-79 -71
t-77.5 -68t-61 -51t-30 -20q-9 0 -13 7.5t-4 15.5q0 17 14.5 24.5t25.5 14.5q15 9 44.5 32.5t65.5 54t74.5 65.5t72 67.5t58 59t31.5 39.5q8 14 10 24t5 26q13 68 46 118.5t84 96.5q11 10 22.5 18t26.5 8q14 0 24 -9t10 -23q0 -15 -11 -36.5t-28 -46.5t-37.5 -51.5
t-40.5 -51.5t-36.5 -47.5t-24.5 -38.5q-10 -19 -14 -39.5t-5 -42t0 -43t1 -41.5q21 12 36 30.5t31 36.5q40 47 85.5 89t93.5 80q71 56 148 100t157 84q44 22 83.5 39.5t80 29.5t83 18.5t92.5 6.5q18 0 42.5 -1t46 -8t37 -21t15.5 -39z" />
    <glyph glyph-name="O" unicode="O" horiz-adv-x="769" 
d="M552 347q0 14 -9.5 24t-23.5 16t-29 9t-26 3h-6.5t-6.5 -1q-27 -7 -48.5 -8.5t-41 -5.5t-39 -12.5t-41.5 -28.5q-20 -18 -36 -41t-30 -46q35 -14 71.5 -19t73.5 -5q30 0 63.5 3.5t62 15.5t47.5 34.5t19 61.5zM851 436q0 -64 -28 -134t-74.5 -137t-108.5 -127
t-130.5 -105.5t-138.5 -72.5t-134 -27q-86 0 -130 41t-44 129q0 32 5.5 66t16 66.5t26.5 62.5t38 54q-12 9 -25 26t-23.5 37t-17 40.5t-6.5 35.5q0 10 4 18.5t16 8.5q6 0 8 -6.5t4 -10.5q6 -19 11.5 -35t12 -30t16.5 -27.5t25 -27.5q23 26 46 49t48.5 42t54 33.5t63.5 23.5
q15 11 33 14t36 3q6 0 9 -1q21 -4 44 -9.5t42.5 -16t32.5 -27t13 -43.5q0 -19 -3.5 -32.5t-10.5 -24.5t-16.5 -21t-22.5 -22q-22 -21 -40 -35t-37.5 -23t-42 -12.5t-53.5 -3.5q-44 0 -89.5 12.5t-83.5 34.5q-33 -55 -52 -116.5t-19 -125.5q0 -38 16 -62.5t58 -24.5
q48 0 96.5 4t93.5 23q59 24 107.5 51t89 61.5t73.5 78.5t60 103q25 54 45.5 113.5t20.5 119.5q0 17 -7.5 33t-20.5 29t-29 20.5t-33 7.5q-12 0 -37 -1t-51 -3.5t-49 -6.5t-32 -10q-3 -2 -9.5 -7.5t-13.5 -11.5t-13.5 -11t-8.5 -5q-9 0 -11 13t-2 19q0 10 13.5 18.5t34 15
t45.5 11t48.5 7.5t42.5 4.5t28 1.5q34 0 65 -6.5t54.5 -22t37 -41.5t13.5 -65z" />
    <glyph glyph-name="P" unicode="P" horiz-adv-x="899" 
d="M977 434q0 -29 -11 -64.5t-30.5 -71.5t-46 -70.5t-56.5 -61.5t-62 -43t-63 -16q-23 0 -48.5 8t-49 22.5t-42 33.5t-26.5 41q-41 -37 -83 -73t-75 -80q-13 -17 -23 -34.5t-24 -33.5q-4 -5 -22.5 -21t-43.5 -37.5t-53.5 -45.5t-52.5 -44t-40.5 -33t-17.5 -13q-8 0 -13 6
t-5 14t1 15.5t4 15.5q6 14 18 25t26.5 20.5t29 18.5t25.5 19q15 14 29 29t28 29q26 25 52 48.5t52 47.5q21 20 40.5 41t38.5 43q38 44 81 80.5t87 73.5q22 19 43 38.5t46 34.5q18 11 40 23t35 29q8 10 13 21.5t10.5 21t15 15.5t26.5 6q8 0 14 -7t6 -15q0 -11 -12 -24.5
t-31 -28.5t-41.5 -30.5t-44.5 -29.5t-40 -25.5t-27 -18.5q-23 -19 -41.5 -42t-37.5 -46q0 -19 14.5 -36t35 -29.5t43 -20t39.5 -7.5q39 0 79.5 30.5t74.5 74.5t55.5 92t21.5 84t-28 65t-67.5 48.5t-82 30t-72.5 10.5q-42 0 -83.5 5.5t-83.5 5.5t-81 -12.5t-80 -18.5
q-43 -6 -76.5 -12.5t-61.5 -19t-52 -35.5t-48 -63q-15 -26 -26.5 -54t-11.5 -58q0 -29 11.5 -49t30.5 -33.5t43.5 -19.5t49.5 -6q18 0 34 8.5t28 22t19 30.5t7 35q0 8 -5 12.5t-13 4.5q-11 0 -17.5 -5.5t-11.5 -12t-9.5 -12t-11.5 -5.5q-9 0 -14.5 7t-5.5 15q0 11 8 23
t20 21.5t25 16t24 6.5q25 0 38.5 -18t13.5 -41q0 -27 -9.5 -54t-26.5 -48.5t-41 -35.5t-53 -14q-35 0 -66.5 9.5t-55.5 28.5t-38 47t-14 66q0 37 13.5 71t31.5 66q26 46 53 72.5t59 42t70 22.5t87 14q41 6 80.5 18.5t81.5 12.5t84 -4.5t84 -4.5q40 0 90 -13.5t94.5 -39
t74.5 -62.5t30 -85z" />
    <glyph glyph-name="Q" unicode="Q" horiz-adv-x="802" 
d="M957 516q0 -73 -31.5 -145.5t-80.5 -138.5t-107.5 -122.5t-113.5 -97.5q-24 -18 -62.5 -37t-81 -34.5t-84 -26t-71.5 -11.5q-6 -12 -15 -29t-17 -34.5t-13.5 -35t-5.5 -31.5q0 -33 21 -66.5t51.5 -63t65 -52t62.5 -33.5q37 -14 74 -14q32 0 54 2.5t41 10t37.5 19.5
t43.5 32q5 4 12.5 12.5t9.5 14.5q3 8 3 15.5t3 15.5q5 11 17 16t23 5q14 0 27 -13.5t13 -27.5q0 -10 -11.5 -18.5t-17.5 -15.5q-12 -14 -18 -23.5t-12.5 -17.5t-16 -15.5t-27.5 -16.5q-14 -7 -42 -16t-59 -17.5t-60 -14t-44 -5.5q-19 0 -44.5 11.5t-51.5 27.5t-49 33.5
t-37 30.5q-23 20 -43 41t-35 45t-23.5 50.5t-8.5 58.5t12.5 62t29.5 57q-26 1 -63 6t-71 17.5t-58.5 34.5t-24.5 56q0 5 0.5 9t1.5 9q14 75 53.5 142t98.5 116q29 24 60.5 44t58.5 46q4 13 23 27.5t43 27.5t48 22t37 11q36 5 71.5 15t72.5 10q26 0 41 -19.5t15 -43.5
q0 -7 -2.5 -17.5t-7.5 -20t-12 -16.5t-16 -7q-15 0 -15 15q0 5 4.5 13.5t4.5 17.5q0 10 -2 20.5t-16 10.5q-5 0 -18 -3.5t-29 -7.5t-30.5 -8.5t-22.5 -5.5q-14 -3 -36.5 -9.5t-46 -15.5t-45 -18t-33.5 -16q-38 -22 -77.5 -57t-71.5 -77.5t-52.5 -89.5t-20.5 -94
q0 -24 16.5 -41t40.5 -27t50 -14.5t45 -4.5h15t15 1q19 20 36 42t34.5 43.5t36.5 41.5t42 37q-28 -4 -55.5 -10.5t-56.5 -6.5q-10 0 -22 11t-12 21q0 16 12 26t27 10q10 0 22.5 -8t27.5 -8q33 0 50 3.5t28.5 10.5t24.5 17t39 24q7 4 25.5 13t38 18t37 16t23.5 7q5 0 8 -8.5
t3 -12.5q0 -18 -9 -32t-22 -25.5t-28 -21.5t-28 -19q-14 -10 -24 -12.5t-18.5 -2.5t-17 -0.5t-18.5 -6.5q-4 -2 -11.5 -12.5t-16 -23t-17 -24.5t-13.5 -18q-22 -23 -47.5 -41.5t-48.5 -41.5q54 9 106.5 28.5t101 48t92.5 64t81 75.5q27 29 47 63t37 69q24 49 46.5 99.5
t22.5 106.5q0 35 -14.5 57t-52.5 22q-14 0 -27 -4.5t-27 -4.5q-8 0 -14.5 6.5t-6.5 14.5q0 6 10.5 12t24.5 10t27.5 6.5t18.5 2.5q14 0 34.5 -7.5t31.5 -17.5q13 -3 22.5 -14.5t15.5 -27.5t9 -32t3 -28z" />
    <glyph glyph-name="R" unicode="R" horiz-adv-x="649" 
d="M781 -256q0 -14 -15 -18t-26 -4q-35 0 -68.5 7.5t-65.5 17.5q-49 15 -91.5 33.5t-77 44.5t-61 62.5t-42.5 88.5q-8 24 -12.5 49t-4.5 51q0 18 2.5 36t5.5 36q-8 -9 -28.5 -33.5t-47 -55.5t-56.5 -65t-56 -62t-44.5 -46.5t-23.5 -18.5q-2 0 -5 -0.5t-5 -0.5
q-8 0 -12.5 7.5t-4.5 14.5q0 4 8.5 13.5t19 20l20.5 20.5t14 15q14 19 27 38.5t29 37.5q37 44 77.5 83.5t75.5 85.5q-6 13 -6 28q-6 -4 -27 -13t-44 -18.5t-43.5 -17t-25.5 -7.5q-19 0 -19 20q0 12 10 20q3 3 18.5 7t35 9.5t39 11.5t30.5 12q47 25 83 62t70 76q5 5 14.5 16
t20 21.5t21 18.5t17.5 8q8 0 11 -7.5t3 -13.5t-14.5 -27t-32.5 -45.5t-33 -47t-16 -31.5l3 -7q-7 -17 -19 -31t-22 -29q13 -5 25.5 -8.5t26.5 -3.5q19 0 40.5 9.5t40.5 24.5t32.5 33.5t18.5 37.5q9 42 9 85q0 34 -17.5 58.5t-44 40.5t-58 23t-60.5 7q-25 0 -50.5 -5.5
t-45.5 -18.5t-33 -33t-13 -50q14 -9 27 -9q8 0 13.5 4.5t10.5 10t10.5 10t13.5 4.5q7 0 11.5 -5t4.5 -12q0 -9 -9 -21t-22 -22t-26.5 -17t-22.5 -7q-29 0 -41 20t-12 46q0 52 22.5 80.5t58 42t77.5 16.5t81 3q78 0 127 -40t49 -122q0 -43 -14.5 -84t-41.5 -73.5t-64.5 -52
t-83.5 -19.5q-14 0 -27.5 1.5t-27.5 3.5q-6 -32 -6 -64q0 -49 13 -99.5t34 -95.5q13 -26 30.5 -44t38.5 -31.5t45 -23.5t49 -20q11 -5 21.5 -9t21.5 -7q6 -2 20.5 -3t32.5 -2.5t37.5 -3.5t35 -5.5t26 -9t10.5 -13.5z" />
    <glyph glyph-name="S" unicode="S" horiz-adv-x="578" 
d="M904 648q0 9 -10.5 16t-24.5 12t-28 8t-21 3q-35 0 -61.5 -12.5t-55.5 -29.5q24 -17 52 -25.5t57 -8.5q9 0 24.5 0.5t30.5 4t26 11t11 21.5zM929 643q0 -19 -14 -30.5t-34 -18t-41 -8.5t-34 -2q-35 0 -67.5 11t-59.5 34q-15 -10 -33.5 -26t-36 -34.5t-32 -38t-22.5 -35.5
q-14 -30 -21.5 -62.5t-12.5 -64.5q-8 -50 -18 -99.5t-26 -96.5t-40.5 -90.5t-60.5 -81.5q-12 -13 -30.5 -27.5t-39.5 -26.5t-42.5 -20t-39.5 -8q-38 0 -71.5 5.5t-58.5 20.5t-39.5 43t-14.5 73q0 18 8.5 39.5t21 42.5t27.5 39t29 29q9 7 29.5 17t44 19t45.5 15.5t33 6.5
q6 0 9 -4.5t3 -9.5t-11.5 -10t-25.5 -10.5t-28 -9.5t-18 -6q-29 -11 -53.5 -30t-42.5 -43t-28 -53t-10 -61q0 -14 10.5 -28t25.5 -26t31.5 -19.5t29.5 -7.5h26.5t26.5 1q47 4 84 36.5t64 78t44 96.5t24 91q4 22 6 44t5 44q8 57 31 112t56 101q22 30 55.5 52.5t65.5 40.5
q-5 4 -12 10t-13.5 12.5t-11.5 14t-5 13.5q0 2 2 6t4 4q6 0 14.5 -5.5t17.5 -13t17 -15t12 -11.5q38 24 79 44.5t88 20.5q35 0 57 -25.5t22 -58.5z" />
    <glyph glyph-name="T" unicode="T" horiz-adv-x="485" 
d="M549 573q0 -4 -18.5 -18.5t-41.5 -32t-45 -33t-28 -21.5q-14 -13 -44.5 -49.5t-68.5 -85t-78.5 -103.5t-73.5 -104.5t-54.5 -87.5t-21.5 -52q0 -20 19 -20q22 0 52 9.5t59 25t54 34.5t36 38q7 12 10.5 30.5t7.5 37t10 33t19 18.5q8 2 16 6t16 4q9 0 12.5 -3t3.5 -12
q0 -20 -14 -48t-33.5 -56t-41.5 -52t-38 -36q-23 -17 -47.5 -26.5t-50.5 -20.5q-20 -8 -40 -19t-42 -11q-32 0 -43.5 19.5t-11.5 47.5q0 36 15.5 69.5t38.5 64.5t48 60t45 56q14 20 26 40.5t26 40.5q15 22 41.5 55t56.5 66.5t60 62t51 42.5q8 5 17 8.5t17 8.5
q16 8 31.5 18.5t34.5 10.5q6 0 9.5 -5t3.5 -10zM862 588q-33 0 -64.5 6t-62.5 14.5t-61.5 18.5t-61.5 18q-69 18 -137 36t-140 18q-15 0 -43 -4t-55.5 -13t-47.5 -23.5t-20 -34.5q0 -11 5 -18.5t17 -7.5q24 0 35.5 6t18 13.5t12.5 14t18 6.5t12 -13q0 -12 -10.5 -23.5
t-25 -20.5t-30.5 -14.5t-26 -5.5q-11 0 -22 4.5t-20.5 12t-15.5 17.5t-6 21q0 8 3 15l6 14q24 53 56 77.5t92 24.5q33 0 76 -7t88 -17.5t88 -22t76 -21.5q68 -20 135 -36t139 -16q29 0 57.5 4t56.5 13q6 2 16 6.5l20 9t19 8t15 3.5q7 0 7 -5q0 -11 -13.5 -20.5t-35 -18.5
t-47 -16t-50 -12t-44.5 -8t-29 -3z" />
    <glyph glyph-name="U" unicode="U" horiz-adv-x="611" 
d="M411 479q0 3 -2.5 3.5t-4.5 0.5q-7 0 -17 -4q-4 -2 -19 -18t-32.5 -35.5t-32.5 -37t-19 -23.5q20 5 42.5 14.5t41 23.5t31 33t12.5 43zM721 598q0 -9 -8 -31.5t-19 -48t-21.5 -48.5t-15.5 -33q-9 -19 -17 -38t-16 -39q-13 -31 -30.5 -59t-36.5 -55q-33 -48 -73.5 -107
t-87 -115t-98.5 -101.5t-108 -66.5q-24 -9 -50 -13t-52 -4q-30 0 -41.5 16.5t-11.5 44.5q0 44 15.5 101t39 115.5t52 111t55.5 87.5q-6 0 -21 -0.5t-31 0.5t-28 4.5t-12 11.5q0 6 4 9.5t10 5.5t12.5 2.5t10.5 0.5q9 0 17 -2t17 -2q14 0 26.5 2.5t25.5 4.5q14 17 29.5 34.5
t29.5 34.5q4 12 21 30t38 35t42.5 29.5t33.5 12.5q27 0 35 -19.5t8 -41.5q0 -27 -21.5 -53.5t-52 -48.5t-64 -35.5t-57.5 -13.5q-7 0 -13.5 -0.5t-13.5 -0.5q-20 -29 -39.5 -58t-36.5 -60q-12 -22 -25.5 -56.5t-24.5 -73t-18.5 -74.5t-7.5 -61q0 -19 15.5 -24t30.5 -5h19
t24 1t22.5 4t15.5 8q42 17 80 49t72 71.5t63 82t52 79.5q34 54 69.5 106t59.5 111q13 32 23 64.5t30 61.5l4.5 6t3.5 7q2 6 4.5 15.5t6.5 19.5t9 17t13 7q6 0 9.5 -5t3.5 -10z" />
    <glyph glyph-name="V" unicode="V" horiz-adv-x="580" 
d="M1549 711q0 -8 -6.5 -10.5t-12.5 -2.5q-19 0 -37 4t-37 6q-51 7 -101.5 8.5t-101.5 1.5q-54 0 -106 -8t-101 -31q-56 -26 -120 -69.5t-127.5 -95t-121.5 -105t-101 -97.5q-41 -42 -79 -85.5t-83 -80.5q-35 -29 -70.5 -56.5t-65.5 -62.5q-42 -48 -76 -101t-73 -103
q-9 -11 -22 -25.5t-30 -14.5q-12 0 -20 5t-8 19q0 36 25 95t62.5 128t81.5 140.5t81.5 132.5t62.5 105t25 56q0 8 -5 12t-13 4q-20 0 -47 -18t-57 -46t-60 -63t-56 -69t-45.5 -63.5t-27.5 -47.5q-5 -10 -8 -18.5t-14 -14.5q0 2 -2 7.5t-2 6.5q0 21 25 62t63.5 89.5
t86.5 99.5t94 92.5t85 68t60 26.5q22 0 22 -23q0 -28 -22.5 -72t-56 -96.5t-73 -108.5t-73 -108.5t-56 -97t-22.5 -72.5q0 -2 2.5 -6t5.5 -4q8 0 18.5 7.5t21 18t19.5 20.5t14 16q28 29 59.5 54t62.5 51q43 35 79 77t74 83q31 32 63.5 62t60.5 65q13 16 25 32t26 30
q30 29 72.5 59t91.5 57t103 50.5t107 41t103.5 27.5t92.5 10q60 0 117 -9t114 -23q6 -2 12 -2.5t11 -2t8 -5.5t3 -12z" />
    <glyph glyph-name="W" unicode="W" horiz-adv-x="860" 
d="M526 107q-31 -31 -59 -64t-59 -64q-23 -23 -52 -53.5t-56.5 -64.5t-49 -69t-29.5 -66q22 9 42 26.5t37 34.5q22 22 44 43t42 44q22 26 40.5 54.5t35 58.5t32 60.5t32.5 59.5zM1604 708q0 -2 -2 -5.5t-4 -5.5q-24 -26 -64.5 -45t-86 -36.5t-90 -34.5t-77.5 -39
q-20 -14 -39.5 -29t-40.5 -29q-42 -27 -88.5 -43t-91.5 -36q-40 -17 -79.5 -35t-77.5 -37q-32 -16 -64 -43t-63.5 -58t-62 -62t-57.5 -55q-20 -17 -44 -32.5t-39 -36.5q-10 -14 -15 -30.5t-12 -32.5q-18 -41 -49 -72.5t-59 -63.5q-17 -19 -38 -43t-44 -48t-47.5 -43.5
t-47.5 -29.5q-12 -5 -25 -9t-25 -9q-7 0 -10 4.5t-3 10.5q0 19 11.5 42.5t28 47t33.5 45t29 36.5q28 35 51.5 71.5t49.5 71.5q19 25 41.5 45t46.5 38.5t49 36.5t48 38q28 71 62 138t62 138l-36 -14t-35 -16q-22 -12 -56 -34t-73.5 -50.5t-81.5 -61t-79.5 -63t-67.5 -58
t-45 -45.5q-11 -12 -27.5 -40.5t-36 -58t-39 -51.5t-34.5 -22q-11 0 -11 14q0 8 2.5 16t5.5 16q14 36 31 61.5t36.5 47t41.5 43t45 49.5q9 11 26 35t37.5 55t42.5 65.5t41.5 66t34.5 57t21 38.5q8 17 13.5 34t6.5 35q-31 -13 -65 -36.5t-66.5 -52t-61.5 -59.5t-48 -58
q-3 -4 -8 -11.5t-11 -15t-12 -13.5t-11 -6t-13 6t-8 11q0 7 8 12t13 9q20 16 33 37.5t30 40.5q40 44 82.5 80t94.5 64q4 3 14 8t20.5 10t20 9t13.5 4q10 0 13.5 -9.5t3.5 -17.5q0 -33 -17.5 -74.5t-42 -82.5t-52 -78.5t-46.5 -64.5q11 8 45.5 29t79.5 48.5t95 57t93 54
t73 40.5t36 16q5 0 9 -4.5t4 -9.5q0 -8 -7 -28.5t-18 -48t-24.5 -58.5t-26 -59.5t-23 -51.5t-15.5 -34q48 36 95.5 71.5t98.5 67.5q49 30 99.5 55.5t101.5 52.5q24 13 49 23t50 19.5t50 20t48 24.5q10 6 39.5 21.5t68 35t81.5 40.5t80 38.5t63.5 28.5t32.5 11q4 0 6.5 -4
t2.5 -7z" />
    <glyph glyph-name="X" unicode="X" horiz-adv-x="504" 
d="M729 689q0 -17 -11.5 -31t-28 -25.5t-34 -21.5t-29.5 -18q-15 -11 -28.5 -24t-27.5 -24q-48 -38 -89.5 -80.5t-88.5 -81.5q-3 -87 -6.5 -173t-3.5 -173q0 -46 5 -91.5t10 -90.5q1 -13 7.5 -39.5t15.5 -54.5t19 -52.5t18 -33.5q5 -6 14 -13.5t9 -16.5q0 -6 -10.5 -14
t-16.5 -8q-5 0 -8 2.5t-6 5.5q-28 31 -43 70.5t-22.5 81.5t-11.5 85t-10 82q-7 45 -13 89.5t-6 90.5q0 36 2.5 72t2.5 72q0 31 -3 63q-36 -30 -65.5 -66.5t-54.5 -76.5t-46 -82t-41 -84q-8 -17 -15.5 -35.5t-18.5 -33.5q-5 -7 -8.5 -10t-12.5 -3q-12 0 -18.5 3.5t-6.5 17.5
q0 10 18 42.5t46 76.5t61.5 94t65 95t56.5 79.5t36 47.5q-1 19 -2.5 50.5t-8.5 62.5t-21.5 53.5t-41.5 22.5q-26 0 -45 -4t-34 -13.5t-27.5 -25t-24.5 -37.5q-8 -14 -19 -31t-11 -34q0 -14 5.5 -24t22.5 -10q13 0 21.5 8.5t15 19t12.5 19.5t13 9q6 0 11.5 -4t5.5 -11
q0 -11 -8.5 -24t-20.5 -24t-26 -18t-25 -7q-15 0 -28.5 8.5t-24 21.5t-16.5 28.5t-6 29.5q0 10 8.5 27t20.5 35t24.5 33.5t19.5 23.5q12 13 28.5 21.5t35 13.5t37.5 7t36 2q35 0 59 -14.5t40 -38t24 -53t11 -59.5q9 9 34.5 30.5t58.5 48.5t69.5 56t68.5 53t55.5 39.5
t30.5 15.5t13.5 -6.5t6.5 -13.5z" />
    <glyph glyph-name="Y" unicode="Y" horiz-adv-x="828" 
d="M363 -136q-40 0 -76 -12.5t-69 -32t-64 -44t-60 -47.5q-48 -38 -78.5 -83.5t-31.5 -108.5q49 32 101 70.5t102.5 81t97 87.5t84.5 89h-6zM538 -32q63 9 125 26.5t120 44.5q17 8 40 21t40 16l2 -4q-2 -11 -10.5 -15t-16.5 -8q-29 -14 -57 -29.5t-57 -29.5q-24 -12 -49 -22
t-51 -18q-38 -12 -75 -27.5t-75 -30.5q-19 -21 -57 -59t-86 -83.5t-101.5 -92.5t-103.5 -85.5t-92 -63t-66 -24.5q-19 0 -30 17t-11 34q0 20 8 37l16 34q13 27 26.5 53t28.5 51t33.5 47.5t41.5 42.5q46 38 100.5 64t108.5 49q41 17 83.5 26.5t86.5 17.5q68 62 124.5 133.5
t108.5 146.5q-37 -24 -77.5 -44.5t-86.5 -20.5q-8 0 -20.5 1t-25 4t-21.5 9t-9 17q0 32 15.5 58.5t34.5 54.5t34.5 61t15.5 78q0 12 -6.5 20.5t-16 14t-20.5 8.5t-21 3q-14 0 -29 -2t-29 -2q-18 0 -40.5 -9t-42 -23.5t-33 -33.5t-13.5 -39q0 -9 6 -16t14.5 -11.5t18 -7
t17.5 -2.5q6 0 13.5 9t16 20t16.5 20t16 9q4 0 5 -3t1 -6q0 -9 -6 -24t-15.5 -29.5t-21 -25t-21.5 -10.5q-14 0 -31 6.5t-31.5 18t-24 26t-9.5 29.5q0 22 14.5 43t28.5 36q34 35 77.5 48.5t90.5 13.5q19 0 42.5 -2.5t44.5 -10t35.5 -22.5t14.5 -40q0 -16 -7.5 -35t-19.5 -39
t-25 -41t-25 -39.5t-19.5 -34t-7.5 -26.5q0 -7 5 -10.5t11.5 -5.5t14 -2.5t12.5 -0.5q41 0 83.5 25.5t80 63t67.5 80.5t46 77q4 8 9.5 20.5t16.5 12.5q6 0 19 -2t13 -12q0 -8 -8 -21.5t-18.5 -28t-20.5 -28t-15 -21.5q-32 -51 -59 -104t-61 -104q-38 -57 -82 -109.5
t-86 -107.5z" />
    <glyph glyph-name="Z" unicode="Z" horiz-adv-x="687" 
d="M522 101q-16 12 -34.5 16.5t-38.5 4.5q-44 0 -88.5 -13t-87 -33t-82 -46t-73.5 -51q-16 -12 -44 -37.5t-55 -55.5t-47 -60t-20 -50q0 -6 5 -12.5t12 -12.5t14.5 -10.5l12.5 -7.5q35 0 65 2t58 8t55.5 17.5t58.5 29.5q42 25 86.5 59t84 74t71 85t47.5 93zM785 535
q0 -10 -13 -28t-34 -40t-46 -46t-48.5 -45t-43.5 -37.5t-29 -24.5q16 -13 25.5 -31.5t9.5 -38.5q0 -36 -9 -71t-25 -67q10 -10 17.5 -22t14.5 -24t14.5 -24t17.5 -22q5 -14 9.5 -28t4.5 -28q0 -12 -6 -19.5t-19 -7.5q-23 0 -32 15.5t-13 37.5t-8.5 45.5t-18.5 40.5
q-21 -39 -39 -67t-37 -51.5t-42 -47t-55 -54.5q-25 -24 -68.5 -54.5t-92.5 -57.5t-97.5 -45.5t-82.5 -18.5q-17 0 -30.5 7.5t-29.5 10.5q-11 2 -21.5 1.5t-21.5 3.5q-17 7 -29 25.5t-12 36.5q0 19 6.5 35t17 30t23.5 27l25 25q45 44 97.5 93.5t111.5 91.5t123 70t131 28
q26 0 52.5 -6t49.5 -19q5 17 10.5 33.5t5.5 33.5q0 21 -5 31t-14 14t-22 3.5t-29 -0.5q-8 0 -13.5 5t-5.5 13q0 7 12.5 18t29 23t32 22t21.5 15q36 29 70 61.5t66 65.5q-26 -8 -56 -13t-62 -7.5t-63 -3.5t-58 -1q-5 0 -19.5 0.5t-29.5 2t-26.5 5.5t-11.5 11q0 17 19 24.5
t44.5 9t50 0t35.5 -1.5q65 0 123.5 6t117.5 37q3 2 8 4.5t9 2.5q5 0 9.5 -4t4.5 -9z" />
    <glyph glyph-name="bracketleft" unicode="[" horiz-adv-x="601" 
d="M539 737q0 4 5 7t11.5 4.5t13 2t9.5 0.5q14 0 22 0.5t15.5 1.5t16.5 1.5t25 0.5q20 0 45.5 3.5t45.5 3.5q13 0 24 -3t24 -1q5 -3 8.5 -8t3.5 -10q0 -6 -4.5 -9t-10.5 -4.5t-12 -1.5h-10h-137q-12 0 -21.5 0.5t-17 -2t-14.5 -8t-16 -17.5q-13 -20 -25.5 -39t-16.5 -25
q-16 -25 -32.5 -50t-30.5 -52q-46 -75 -95 -147.5t-92 -149.5q-6 -12 -22 -39.5t-34 -57.5t-34 -57.5t-22 -39.5q-7 -11 -20.5 -41.5t-30.5 -63.5q-11 -23 -11.5 -38.5t20.5 -21.5q19 -6 25 -8t7 -2.5l1 -0.5l6.5 -1.5t23.5 -6t52 -13.5q3 -1 8.5 -2.5t11.5 -4t9.5 -6
t2.5 -7.5q-2 -11 -13 -10.5t-18 2.5q-20 5 -45.5 7t-40.5 7q-20 6 -40.5 10.5t-39.5 9.5q-8 2 -14 4t-12 7q-9 -1 -14 2.5t-6.5 9.5t0 13.5t3.5 14.5q3 9 11.5 26t19 36t20.5 36.5t16 27.5q5 11 15.5 29t23.5 40t27 45t27 45t24 40t17 29q23 41 49.5 77.5t52.5 74.5
q20 28 36.5 59t37.5 57q29 44 58.5 86.5t56.5 85.5q6 9 10.5 19.5t10.5 20.5v2z" />
    <glyph glyph-name="backslash" unicode="\" horiz-adv-x="426" 
d="M-97 717q0 8 7 11.5t13 3.5q15 1 25 -11q7 -9 12 -19.5t12 -19.5q26 -39 53.5 -77t56.5 -76q20 -24 35 -51.5t34 -52.5l52 -66t49 -69q6 -10 23 -35.5t40 -58t48.5 -69.5t47.5 -69.5t39 -58t22 -35.5q6 -9 18 -27.5t25 -38t23 -36.5t11 -23q0 -9 -6.5 -13.5t-14.5 -3.5
q-2 -3 -5.5 -6.5t-7.5 -3.5q-10 0 -26 22t-32.5 50.5t-30.5 55.5t-20 37q-4 7 -19.5 29.5t-36 53t-44.5 64.5t-44.5 64.5t-36 53.5t-19.5 30q-42 69 -88.5 133.5t-91.5 131.5q-14 23 -29 45.5t-30 44.5q-3 4 -13.5 18.5t-22 29.5t-20 27.5t-8.5 14.5z" />
    <glyph glyph-name="bracketright" unicode="]" horiz-adv-x="562" 
d="M114 -165q0 -4 -5 -7t-11.5 -4.5t-13 -2t-9.5 -0.5q-14 0 -22 -0.5t-15.5 -1.5t-16.5 -1.5t-25 -0.5q-20 0 -45.5 -3.5t-45.5 -3.5q-13 0 -24 3t-24 1q-5 3 -8.5 8t-3.5 10q0 6 4.5 9t10.5 4.5t12 1.5h10h137q12 0 21.5 -0.5t17 2t14.5 8t16 17.5q13 20 25.5 39t16.5 25
q16 25 32.5 50t30.5 52q46 75 95 147.5t92 149.5q6 12 22 39.5t34 57.5t34 57.5t22 39.5q7 11 20.5 41.5t30.5 63.5q11 23 11.5 38.5t-20.5 21.5q-19 5 -25 7.5t-7 3l-1 0.5l-6.5 1.5t-23.5 6t-52 13.5q-3 1 -8.5 2.5t-11.5 4t-10 5.5t-2 8q2 11 13 10.5t18 -2.5
q20 -5 45.5 -7t40.5 -7q20 -6 40.5 -10.5t39.5 -9.5q8 -2 14 -4t12 -7q9 1 14 -2.5t6.5 -9.5t0 -13.5t-3.5 -14.5q-3 -9 -11.5 -26t-19 -36t-20.5 -36.5t-16 -27.5q-6 -11 -16 -29t-23 -40t-27 -45t-27 -45t-24 -40t-17 -29q-23 -41 -49.5 -77.5t-52.5 -74.5
q-20 -28 -36.5 -59t-37.5 -57q-29 -44 -58.5 -86.5t-56.5 -85.5q-6 -9 -10.5 -19.5t-10.5 -20.5v-2z" />
    <glyph glyph-name="asciicircum" unicode="^" horiz-adv-x="525" 
d="M492 57q0 -9 -2.5 -13.5t-12.5 -4.5q-7 0 -12 4l-10 8q-49 38 -89 91t-62 113q-5 14 -13 14t-17 -11q-18 -19 -43 -43.5t-50.5 -49t-47.5 -45t-33 -30.5q-9 -9 -18 -9q-11 0 -12.5 4t-1.5 15q0 6 9.5 17t21.5 22t23.5 20.5t16.5 13.5q14 12 33.5 35t39.5 49t37 51t27 42
q11 20 37 20q12 0 21 -6.5t16 -16t10.5 -21t5.5 -21.5q12 -65 42.5 -123.5t73.5 -106.5q4 -4 7 -8t3 -10z" />
    <glyph glyph-name="underscore" unicode="_" horiz-adv-x="578" 
d="M596 -90q0 -6 -5 -9t-12 -4.5t-13.5 -1.5h-10.5q-27 0 -54.5 2t-54.5 2q-57 0 -113.5 -3.5t-113.5 -3.5q-25 0 -49 4.5t-49 4.5q-20 0 -37.5 -7.5t-37.5 -7.5q-13 0 -24 3t-24 1q-5 3 -8.5 8t-3.5 10q0 6 4.5 9t10.5 4.5t12 1.5h10q42 0 83 -3.5t83 -3.5q31 0 62 2t62 2
q26 0 50.5 -2t50.5 -2q33 0 66.5 3t66.5 3h11t16.5 -1t15 -3.5t6.5 -7.5z" />
    <glyph glyph-name="grave" unicode="`" horiz-adv-x="295" 
d="M206 736q0 -10 -10 -10q-9 0 -25 13.5t-32.5 31t-29.5 35t-15 25.5q-2 7 -3.5 13t-1.5 13q0 5 7 10.5t12 5.5q13 0 24 -14t20 -32.5t16.5 -37t15.5 -28.5q3 -4 12.5 -13t9.5 -12z" />
    <glyph glyph-name="a" unicode="a" horiz-adv-x="301" 
d="M198 140q0 8 -7 12t-14 4t-11 -1q-2 -1 -10.5 -7.5t-21.5 -17t-27 -22.5t-26 -22t-20.5 -17.5t-8.5 -8.5q-3 -9 -3 -18q0 -10 7 -13.5t15 -3.5q10 0 31 14.5t42.5 33.5t37.5 38t16 29zM327 69q-1 -6 -10 -13.5t-20.5 -14t-22.5 -11.5t-17 -5t-15.5 1t-19.5 3t-19 5t-13 7
l-5.5 5.5t-7.5 2.5q-14 0 -27 -9.5t-27.5 -21t-31.5 -21t-40 -9.5q-11 0 -23 1t-21.5 5.5t-15.5 13t-6 22.5q0 11 22.5 36t52 51t57.5 47t40 23q5 1 15 1t16.5 -2.5t11 -5.5t8 -5.5t8.5 -2.5q15 0 27 10t25 10q6 0 14 -1.5t8 -9.5t-9 -19t-20 -23t-20 -24.5t-9 -24.5
q0 -17 11 -28t28 -11q16 0 26.5 8.5t24.5 13.5z" />
    <glyph glyph-name="b" unicode="b" horiz-adv-x="246" 
d="M100 28q-9 3 -17 8t-18 5q-9 0 -17 -9t-14.5 -21t-10.5 -25t-4 -20l-2 -6l2 -3q1 -1 5 -1q25 0 38 19q17 8 29.5 23.5t23.5 30.5zM179 118q0 7 -4 12t-11 5q-6 0 -19 -8t-26 -19t-23 -22.5t-10 -17.5q0 -10 3.5 -15t9.5 -6.5t13.5 -2t14.5 -1.5q5 4 14 13.5t17.5 21
t14.5 23t6 17.5zM469 469q-3 2 -9 2q-19 0 -30 -6.5t-25 -18.5q-9 -8 -28 -26t-43 -41.5t-49.5 -49.5t-47 -49.5t-36.5 -41.5t-17 -26l7 -5l8 2q67 48 130 97.5t117 112.5q3 3 7.5 8.5t9 12t7 12.5t1.5 11zM525 493q0 -28 -15 -50q-8 -12 -18 -21.5t-20 -19.5
q-8 -8 -13.5 -16.5t-13.5 -16.5q-31 -34 -66 -63.5t-71 -56.5q-21 -16 -45 -26.5t-44 -27.5q5 -9 10 -19t5 -21q0 -19 -9 -33.5t-19.5 -26.5t-19.5 -22.5t-9 -22.5q0 -1 1 -3t1 -3h12q22 0 40.5 10t35.5 21q1 -15 -12.5 -24.5t-33 -14.5t-39 -7t-29.5 0l-28 -28t-38 -35.5
t-40 -30.5t-33 -13q-9 0 -21 5t-12 16q0 12 6 25t13.5 27.5t14 30t6.5 32.5q-9 -6 -20.5 -13t-22.5 -8l-3 2q1 4 4 7q4 5 6 6l8 4q20 10 36 25.5t33 29.5q7 13 20 32.5t28 40.5t29.5 39.5t24.5 29.5q8 9 19 14.5t20 14.5q28 28 54.5 57.5t54 58.5t56.5 56t62 50q13 9 28 13
t30 4q11 0 24 -8t13 -20z" />
    <glyph glyph-name="c" unicode="c" horiz-adv-x="354" 
d="M372 65q-2 -6 -17 -16t-36.5 -23t-46.5 -26.5t-48 -25.5t-41.5 -20.5t-26.5 -10.5q-20 -6 -40 -8.5t-40 -2.5q-8 0 -18 2.5t-19.5 7.5t-16 12t-6.5 16q0 37 27 76t67 70t84.5 51t79.5 20q11 0 19 -6.5t8 -17.5q0 -5 -5.5 -10.5t-12.5 -10.5t-14.5 -9t-11.5 -6
q-11 -5 -20.5 -7t-19 -2.5t-19 0t-21.5 0.5q-14 0 -35.5 -17t-42.5 -39.5t-36 -46t-15 -36.5q0 -19 13.5 -25.5t29.5 -6.5q40 0 85 18.5t85 41t69.5 41t38.5 18.5q1 0 1.5 -0.5t1.5 -0.5z" />
    <glyph glyph-name="d" unicode="d" horiz-adv-x="303" 
d="M393 382q0 25 -1 47t-7 42t-18 37.5t-33 34.5q-25 20 -51.5 36t-57.5 25q-54 16 -109.5 32.5t-112.5 16.5q-14 0 -26.5 -4t-26.5 -6q-19 -3 -49.5 -5t-59 -8.5t-49 -21t-20.5 -43.5q0 -40 30 -70t78 -52t106.5 -36.5t116 -23t107 -12t78.5 -3.5q6 0 23 0.5t35.5 2t32.5 4
t14 7.5zM756 406q0 -8 -9 -12t-21 -6.5t-24 -3.5t-17 -1q-42 -4 -83.5 -9.5t-83.5 -12.5q-23 -4 -45.5 -5t-45.5 -6q-14 -26 -27.5 -52t-29.5 -52q-14 -22 -41 -58.5t-59 -74t-63.5 -69t-52.5 -43.5q-17 -9 -34.5 -15.5t-36.5 -8.5q-9 -11 -22 -17t-27 -6q-11 0 -18.5 7
t-12.5 16.5t-7 20.5t-2 20q0 15 13 34.5t31 38.5t37.5 34.5t31.5 22.5q8 5 16.5 9.5t16.5 9.5q4 2 7 4.5t8 2.5q4 0 11.5 -3t7.5 -8q0 -13 -20.5 -25.5t-45 -28t-45 -35.5t-20.5 -48q0 -9 4 -15t14 -6q14 0 23 7t20 14q8 5 17.5 9t18.5 9q17 10 39.5 31.5t47.5 49.5t50.5 60
t47 63t37 58.5t21.5 45.5q-11 1 -21 1.5t-21 0.5q-41 0 -81 -2.5t-81 -2.5q-53 0 -97.5 5.5t-86 16.5t-83.5 27t-90 37q-45 20 -73 58.5t-28 88.5q0 39 20 54t55 23q49 11 98 19t99 8q64 0 127 -12t125 -29q21 -6 38.5 -15.5t34 -21t32 -24.5t32.5 -25q22 -15 38.5 -39.5
t16.5 -51.5q0 -11 -2.5 -21t-2.5 -21t1 -21.5t0 -21.5q21 1 41.5 0.5t41.5 2.5q44 6 87 10t87 9q14 2 27.5 4.5t27.5 2.5q3 0 7 -1t4 -5z" />
    <glyph glyph-name="e" unicode="e" horiz-adv-x="270" 
d="M209 170q0 9 -8 13.5t-16 4.5q-9 0 -22 -2.5t-21 -7.5q-7 -4 -16.5 -13.5t-18.5 -21.5t-15.5 -24t-6.5 -20q0 -4 2.5 -5t5.5 -3q7 0 26 8.5t39 21t35.5 26t15.5 23.5zM285 63q0 -5 -11 -12.5t-16 -11.5q-14 -11 -32.5 -20t-39 -15.5t-41 -10t-38.5 -3.5q-19 0 -32 7.5
t-20.5 20t-11 28.5t-4.5 32q-5 -5 -11.5 -11t-14 -12t-15.5 -10t-15 -4q-2 0 -2 2q0 3 8.5 10.5t19.5 16.5t21.5 17.5t13.5 12.5q6 8 9.5 16.5l7 17t7.5 16.5t12 16q27 26 51 42.5t63 16.5q10 0 21 -1t21 -5t16.5 -11.5t6.5 -20.5t-14 -29.5t-33.5 -32.5t-39.5 -28.5
t-31 -17.5q-6 -2 -15 -5.5l-18 -7t-17.5 -8t-12.5 -8.5q-2 -2 -2 -7q0 -14 15.5 -20t27.5 -6q25 0 52.5 8t51 17t40 17t19.5 8t3 -4z" />
    <glyph glyph-name="f" unicode="f" horiz-adv-x="426" 
d="M16 -154q0 5 -3.5 8.5t-8.5 3.5q-8 0 -25 -12.5t-35 -28.5t-34 -32l-23 -23q-65 -66 -130.5 -129.5t-131.5 -129.5q-19 -18 -41.5 -38.5t-36.5 -42.5q-3 -5 -4.5 -10.5t-3.5 -10.5l7 -6q12 3 28.5 10t33 16.5t32 19.5t25.5 18q13 10 44 39.5t70 69t81 84t76.5 84.5t57 70
t22.5 40zM137 66q0 8 -9 10t-14 2q-10 0 -21.5 -6.5t-11.5 -17.5q0 -8 6 -15t14 -7q4 0 10 4t12 9.5t10 11t4 9.5zM557 329q-1 -5 -6.5 -16.5t-11.5 -11.5q-13 0 -42.5 -14.5t-66.5 -37t-77 -51t-73 -56t-54 -52t-21 -39.5q0 -10 5.5 -16.5t13.5 -10t17.5 -5t17.5 -1.5
q9 0 30 3.5t44.5 8.5t44 10t27.5 9q8 5 15 10t17 6l4 -7q-10 -12 -36.5 -22.5t-58 -18t-61.5 -11.5t-46 -4q-10 0 -19.5 2t-19.5 2q-13 0 -25.5 -4.5t-23.5 -11.5q-13 -8 -24 -22t-21 -30t-19 -32t-18 -29q-16 -23 -35 -44t-36 -43q-70 -90 -144.5 -173t-162.5 -157
q-18 -16 -44 -35t-54 -37.5t-55.5 -34t-49.5 -24.5q-6 -2 -12 -4.5t-13 -2.5q-6 0 -7 8t-1 12q0 18 10 36q6 13 28 37t48 50.5t50.5 51l37.5 37.5q54 57 111 109.5t112 108.5q35 36 70.5 72.5t72.5 71.5q17 16 34 29.5t33 30.5q5 5 7 8.5t2 10.5q0 21 -11.5 28t-26 9.5
t-26 6t-11.5 17.5q0 17 15 31t36 24t43 15.5t36 5.5q6 0 11.5 -1t11.5 -1q20 0 38 7t34.5 17.5t32.5 22t32 21.5q10 6 20 10.5t20 9.5q11 6 28.5 17.5t38.5 25.5t44 28.5t43.5 26.5t37 20.5t25.5 10.5z" />
    <glyph glyph-name="g" unicode="g" horiz-adv-x="362" 
d="M35 -138q0 6 -8 10q-26 -8 -60.5 -28.5t-73 -49t-79 -62t-77.5 -66t-67.5 -62t-50.5 -50.5t-37.5 -44.5t-37.5 -45.5q-5 -6 -17 -19.5t-24.5 -28.5t-22 -28.5t-9.5 -19.5t8.5 -9.5t13.5 -3.5q6 0 20 8t31.5 20.5t37 28t37 30t31 26.5t19.5 18q45 46 88 91.5t89 90.5
q28 26 56.5 51.5t55.5 53.5q3 3 15.5 17t26 29.5t24.5 28t11 14.5zM393 71q0 -4 -7.5 -9.5t-10.5 -7.5q-28 -17 -59 -25t-57 -28q-26 -21 -52 -40.5t-52 -40.5q-82 -69 -159 -142t-150 -151q-26 -28 -51.5 -55t-54.5 -53q-23 -20 -47 -39.5t-43 -43.5q-8 -11 -15.5 -21.5
t-17.5 -20.5q-4 -4 -16.5 -14.5t-27 -21.5t-27.5 -20.5t-17 -10.5q-13 -5 -32 -7.5t-33 -2.5q-6 0 -17 7.5t-11 14.5q0 6 7.5 19t17.5 27.5t19.5 27.5t13.5 18q60 76 134 148.5t155.5 138.5t167.5 123t171 101q14 7 27 19.5t13 29.5q-6 3 -14 3q-29 0 -55 -9t-55 -9
q-6 0 -12 0.5t-11 3.5q-2 8 -2 13q0 6 6 17.5t13.5 23.5t15.5 22.5t13 15.5q-7 -2 -19.5 -7.5t-25.5 -11.5t-23.5 -10.5t-12.5 -4.5q-1 0 -1.5 0.5t-1.5 0.5q5 9 15 17t18 13q23 13 48.5 19.5t49.5 15.5q18 6 38 13.5t41 14t42 10.5t40 4q4 0 13.5 -2t9.5 -7q0 -6 -7 -14.5
t-16 -17t-18.5 -15t-14.5 -8.5q-9 -3 -26 -5.5t-33.5 -6t-29 -11t-12.5 -21.5q1 -3 3.5 -4.5t4.5 -3.5q11 0 23 2.5t24 5.5t23.5 4.5t21.5 -0.5q14 5 29 5h29q15 0 31 1.5t30 7.5q3 1 7.5 4t10 6t10 5.5t6.5 2.5h5v-3z" />
    <glyph glyph-name="h" unicode="h" horiz-adv-x="425" 
d="M665 554q0 -7 -6 -13q-17 -18 -38 -31.5t-40 -28.5q-26 -21 -49 -45.5t-49 -45.5q-10 -8 -32 -24t-49 -36t-56.5 -41.5t-53.5 -41.5t-40 -36.5t-17 -25.5l6 -6q19 0 36 7.5t36 7.5q8 0 15.5 -2t7.5 -13q0 -35 -14 -60.5t-30.5 -44.5t-30.5 -32t-14 -22q5 -8 13 -13t18 -5
q14 0 39.5 10.5t51.5 22.5t46.5 22.5t25.5 10.5q3 0 3 -2q-5 -12 -21.5 -21.5t-37 -18t-41 -15t-31.5 -12.5q-12 -6 -23.5 -14t-25.5 -8q-17 0 -34 11.5t-17 30.5q0 15 11 31.5t24.5 33t25 31.5t11.5 28q0 7 -5 12t-11 8q-10 -5 -20.5 -4t-21.5 -2q-25 -7 -51.5 -28
t-43.5 -41q-6 -8 -17.5 -24t-24.5 -32t-26 -28.5t-22 -12.5q-5 0 -6 5.5t-1 8.5t10 18t23 33t25 34t16 22q-29 -20 -59.5 -39t-63.5 -34q-2 0 -5.5 0.5t-3.5 2.5q0 6 7 11t12 7q40 22 74.5 43.5t68.5 52.5q23 22 50.5 37.5t50.5 37.5q9 9 17 18.5t16 18.5q23 24 47 46t49 43
q21 18 39 38t39 38q15 12 41.5 35t55.5 45.5t57 39t46 16.5q6 0 12 -4t6 -11z" />
    <glyph glyph-name="i" unicode="i" horiz-adv-x="166" 
d="M197 72q-4 -8 -19.5 -18.5t-34.5 -21t-37 -17.5t-26 -7q-6 0 -10.5 7.5t-4.5 12.5q0 15 4.5 29t11.5 28q-5 -2 -19.5 -9t-30.5 -14.5t-29 -13.5t-14 -6q-7 0 -10 4q3 5 25 17.5t49.5 27t53 28.5t35.5 22q7 6 18.5 18.5t20.5 12.5q10 0 10 -9q0 -6 -13.5 -18.5t-29.5 -28
t-29.5 -32t-13.5 -29.5q4 -11 14 -11q22 0 37.5 11.5t35.5 18.5zM243 202q0 -8 -7 -8q-12 0 -20 13t-12.5 30.5t-6.5 35t-2 26.5q0 16 13.5 19.5t25.5 3.5q5 0 9 -7q0 -17 -7.5 -33.5t-7.5 -33.5q0 -16 7.5 -27.5t7.5 -18.5z" />
    <glyph glyph-name="j" unicode="j" horiz-adv-x="297" 
d="M36 -19q0 5 -6 7.5t-10 2.5q-16 0 -47.5 -13.5t-71 -34.5t-82 -46.5t-81.5 -50.5t-70 -46.5t-46 -33.5q-27 -22 -59 -50.5t-62 -61t-56.5 -65.5t-42.5 -64q-5 -10 -9 -19.5t-4 -20.5t3.5 -24t18.5 -13q13 0 29.5 9t33 22t31 26.5t24.5 22.5q29 26 55.5 52.5t55.5 51.5
q62 54 123 107t122 107q5 5 18.5 15.5t30.5 24t35 28t33 28t24.5 24t9.5 15.5zM309 206q-3 -10 -24.5 -32t-47.5 -46t-51 -45.5t-36 -31.5q30 -6 61 -6q23 0 45 4t43 14q4 0 4 -4q3 -13 -18 -19.5t-48.5 -9t-53.5 -3t-34 -1.5q-20 -3 -36 -10q-49 -50 -98 -98.5t-99 -96.5
q-36 -35 -74 -66t-74 -66q-19 -19 -46.5 -46t-59.5 -57t-66.5 -60t-69 -54t-67 -39t-59.5 -15q-23 0 -40.5 13.5t-17.5 37.5q0 34 20 72t52.5 76.5t73 75t82 68t80 57t66.5 41.5q16 9 44 25.5t61.5 35.5t70 38.5t70.5 35t61.5 24.5t43.5 7l9 3q41 39 86 71.5t86 71.5
q4 4 10.5 11t14 14t15 12t13.5 5q8 0 8 -7zM426 394q0 -15 -8 -29.5t-25 -14.5q-7 0 -8 4t-1 10q0 5 1 16t3 22.5t6.5 20t11.5 8.5q13 0 16.5 -13.5t3.5 -23.5z" />
    <glyph glyph-name="k" unicode="k" horiz-adv-x="582" 
d="M598 61q0 -7 -24.5 -20.5t-56 -28t-60.5 -27t-37 -16.5q-52 -25 -106 -25q-27 0 -50 9t-47 21q-23 12 -38.5 20t-27.5 18t-22.5 25t-22.5 40q-13 -23 -30.5 -48t-35 -51t-33 -51.5t-24.5 -47.5q-2 -6 -4.5 -10t-10.5 -5q-6 4 -6 12q0 15 15 44.5t35.5 62t40.5 62t31 43.5
q-9 -4 -17 -9.5t-17 -10.5q-11 -5 -19.5 -8t-20.5 -9q-7 -4 -12 -4t-5 7q0 4 7 8q13 7 23 12t19.5 11t18.5 13t19 18q16 17 27 38t27 38q13 14 25.5 27.5t23.5 28.5q8 11 18 20.5t18 20.5q22 29 50.5 72t60 85.5t65 78t65.5 49.5q5 -1 8.5 -3.5t3.5 -7.5q0 -16 -2 -28.5
t-13 -25.5q-15 -17 -31.5 -32.5t-32.5 -32.5q-38 -42 -73.5 -85.5t-70.5 -88.5q-16 -20 -32 -39.5t-29 -42.5q4 -8 11.5 -12t15.5 -4q16 0 32 5.5t30 13.5q18 9 25.5 22t13 25t13.5 20t27 8q10 0 14.5 -5t6 -12.5t1.5 -15.5v-15q0 -12 -5 -25t-14 -24.5t-20.5 -19.5
t-23.5 -10q-17 -3 -41 -2.5t-46 -3.5t-38 -15t-16 -37q0 -19 18 -38.5t42.5 -35.5t50.5 -26.5t43 -10.5q28 0 59 7t61.5 18t58.5 24.5t50 26.5q10 6 20 13t21 9v-7z" />
    <glyph glyph-name="l" unicode="l" horiz-adv-x="404" 
d="M693 583q0 8 -9 12.5t-15 4.5q-24 0 -56 -18.5t-67.5 -47.5t-72 -65t-69.5 -71.5t-59.5 -66t-42.5 -49.5q-7 -9 -17 -20t-19.5 -23.5t-17.5 -25t-11 -22.5q1 -6 9 -6q12 0 37.5 14t59 37.5t72.5 54.5t78 65t75 68.5t64 65t44.5 55t16.5 38.5zM754 638q0 -14 -9 -28
q-5 -29 -22 -55t-39.5 -50t-47 -45l-45.5 -39q-7 -6 -13.5 -12t-12.5 -13q-37 -39 -86.5 -80.5t-103.5 -80.5t-109 -72.5t-103 -56.5q-5 -12 -12 -22t-14.5 -20t-12.5 -21t-5 -25q0 -12 7 -22t18 -16.5t23 -10t23 -3.5q4 0 6.5 1t5.5 2q23 6 45 8t45 12q13 6 30.5 18
t35 24.5t33.5 23t27 12.5l3 -2q-2 -10 -15 -19t-21 -14q-30 -21 -54 -38.5t-48.5 -29.5t-53 -19t-67.5 -7q-12 0 -27.5 1.5t-29.5 6t-24 13.5t-10 25q0 20 4.5 48.5t13.5 45.5q-8 -2 -25.5 -8t-35 -13.5t-31.5 -13l-14 -5.5q-4 0 -4 1q0 6 2.5 8.5t7.5 6.5q22 19 49 27
t50 24q12 8 20.5 19.5t21.5 18.5q24 39 53 74.5t60 69.5t63 66.5t63 66.5q17 19 33 38.5t33 38.5q15 16 41.5 38t55.5 43t58 39.5t49 28.5t36.5 14.5t39.5 4.5q13 0 26 -5.5t13 -21.5z" />
    <glyph glyph-name="m" unicode="m" horiz-adv-x="674" 
d="M691 63q0 -3 -5 -8q-16 -12 -34 -25t-36.5 -24t-38.5 -18.5t-41 -7.5q-46 0 -46 44q0 17 6.5 33t6.5 33q0 10 -7 19q-27 -5 -52.5 -22t-49.5 -36.5t-46 -34.5t-42 -15q-3 0 -6.5 0.5t-3.5 5.5q0 28 10.5 44.5t23 27.5t23 19t10.5 20q-12 8 -31 8q-39 0 -81 -19.5
t-79.5 -42.5t-66 -42.5t-38.5 -19.5q-1 0 -3 1t-3 1q-1 29 13 44t32.5 25.5t35.5 21t22 30.5q-32 -13 -64.5 -24t-61.5 -31q-11 -8 -22 -14.5t-24 -11.5l-4 1q0 7 5 12q3 3 21.5 13t44.5 23.5t56.5 29t58.5 29.5t49.5 24.5t30.5 15.5q16 8 31 17l30 18q7 0 19 -3.5t12 -12.5
q0 -4 -7.5 -12t-16.5 -17.5t-18 -18.5t-12 -14q25 1 45.5 10.5t38.5 20.5t33 20t29 9q8 0 16 -3t8 -13q0 -14 -8 -25t-18 -22t-18 -23.5t-8 -28.5h10q19 0 39 17t43 37t50 37t59 17q6 0 7.5 -3t1.5 -8q0 -12 -6 -20t-15 -14.5t-18.5 -12.5t-15.5 -13q-4 -5 -10.5 -15
t-12.5 -21.5t-10.5 -22.5t-4.5 -17q0 -19 10.5 -33t30.5 -14q17 0 33 9t31.5 19.5t29.5 20t27 10.5z" />
    <glyph glyph-name="n" unicode="n" horiz-adv-x="480" 
d="M502 72q0 -12 -19.5 -24.5t-45.5 -22t-51 -16t-36 -6.5q-8 0 -16.5 1.5t-16.5 1.5q-13 0 -16.5 10.5t-4.5 23t-3.5 23t-13.5 10.5q-10 0 -28 -8.5t-39 -21t-43.5 -27.5t-42 -27.5t-34 -21t-20.5 -8.5q-17 0 -17 17q0 16 9.5 27t20.5 22t20.5 23.5t9.5 32.5q0 9 -8 9
q-18 0 -29.5 -2.5t-21.5 -7t-20.5 -11t-24.5 -15.5q-7 -5 -14.5 -8t-14.5 -8l-4 2q0 7 4 9q6 6 13 10t15 8q17 10 38.5 26t44 31.5t45 26.5t42.5 11q10 0 25.5 -3.5t15.5 -16.5q0 -7 -5.5 -15t-12 -15.5t-12 -14.5t-5.5 -12t2.5 -10.5t9.5 -5.5q14 0 34 11.5t42 26t44.5 26
t42.5 11.5q13 0 19.5 -3t6.5 -18q0 -13 -4.5 -23.5t-10 -19t-10.5 -16t-6 -14.5l4 -7q15 -3 29 -3q18 0 32 2.5t26.5 7t25.5 10.5t28 13z" />
    <glyph glyph-name="o" unicode="o" horiz-adv-x="273" 
d="M189 83q0 4 -6 10t-14 11.5t-16 9.5t-12 4q-13 0 -34.5 -15t-42 -35.5t-35.5 -42.5t-15 -36q0 -8 6 -12t13 -4q6 0 11.5 1t10.5 3q23 6 41.5 12t34 15.5t28.5 23.5t25 37q5 10 5 18zM285 59q-8 -17 -30.5 -23t-39.5 -9t-26.5 -6.5t-17.5 -8.5t-16 -12t-20 -16
q-9 -7 -27 -15.5t-38.5 -16t-39.5 -13t-30 -5.5q-18 0 -27 12.5t-9 29.5q0 15 7 27.5t16.5 24t19 22t15.5 21.5q4 9 6.5 16t5.5 13t8 12t15 12q3 1 8.5 3.5t12 4t12.5 3t9 1.5q15 8 34 14t36 6t31 -14q10 7 20.5 11t22.5 4q5 0 6.5 -4t1.5 -8q0 -25 -12 -55t-32 -45h3
q8 0 15.5 1t15.5 1q12 0 21.5 8.5t20.5 7.5z" />
    <glyph glyph-name="p" unicode="p" horiz-adv-x="453" 
d="M474 67q0 -7 -14 -15.5t-36 -18t-48 -18.5t-50 -16t-43.5 -11.5t-26.5 -4.5t-13.5 1.5t-6.5 10.5q0 21 18.5 41.5t40.5 39t40.5 34t18.5 27.5q0 3 -1 9.5t-6 6.5q-15 0 -29 -5t-27.5 -12.5t-26 -15.5t-25.5 -15q-23 -13 -47 -24t-47 -25q-66 -42 -125 -91.5t-120 -97.5
q-31 -25 -56.5 -54t-51.5 -58q-19 -21 -39.5 -40t-40.5 -39q-32 -31 -70.5 -73.5t-80 -84t-84.5 -75.5t-82 -48q-7 -2 -16 -5.5t-16 -3.5q-5 0 -8.5 6.5t-3.5 11.5q0 13 6 19.5t15.5 9t20 3.5t19.5 3q17 4 32 18t29 31t28 33t31 24q20 25 44 45t47 43q65 65 126.5 131.5
t129.5 127.5q15 14 28.5 28t27.5 28q26 28 57.5 50t60.5 46q17 14 31.5 33t36.5 27t44 14.5t43 17.5q17 9 47 28.5t62 39t61 34.5t45 15q3 0 10.5 -1t7.5 -6q0 -8 -5 -16t-12.5 -16t-15.5 -14.5t-14 -10.5q15 -12 15 -30q0 -20 -16.5 -39.5t-36 -36t-35.5 -30t-16 -22.5
q0 -8 8 -11t14 -3q14 0 38.5 8t48.5 18q28 11 59 27q1 0 1 -3z" />
    <glyph glyph-name="q" unicode="q" horiz-adv-x="399" 
d="M432 181q0 -15 -13.5 -34t-24.5 -29q-14 -12 -30 -21t-33 -18q-23 -13 -44 -27.5t-41 -31.5q-39 -32 -82 -59.5t-85 -56.5q-45 -31 -85 -67t-81 -71q-59 -51 -117 -101.5t-112 -106.5q-15 -16 -27.5 -31t-26 -27t-30.5 -19.5t-42 -7.5q-4 0 -8 0.5t-4 5.5q0 2 4 9.5
t6 9.5q13 21 31 36t38.5 27.5t41.5 24t40 25.5q42 30 80.5 63t76 68t73.5 71t74 71q22 21 46.5 38.5t49.5 35t48.5 36.5t43.5 42q-8 -2 -16.5 -4t-17.5 -2q-30 0 -63 11t-55 33q-7 -2 -15.5 -7.5l-17 -11t-16.5 -10t-12 -4.5q-6 0 -6 4q0 3 1 4q17 8 39 23.5t35 29.5
q19 21 47 41.5t59.5 37.5t64.5 27.5t61 10.5q5 0 16 -1t22 -3.5t19 -7t8 -10.5q0 -5 -9.5 -6.5t-22 -2.5t-24.5 -0.5t-16 0.5q-15 0 -42 -9t-53.5 -23.5t-45.5 -32.5t-19 -36q0 -9 5 -13.5t12 -7t15 -2.5h14q52 0 98 19t81 42t56 42t24 19q7 0 7 -5z" />
    <glyph glyph-name="r" unicode="r" horiz-adv-x="269" 
d="M299 71q0 -6 -9.5 -14t-22 -16t-25 -14t-17.5 -9q-10 -5 -20.5 -6t-21.5 -5q-29 -10 -57 -23.5t-60 -13.5q-6 0 -11 5t-5 11q0 4 10.5 19.5t23.5 33.5t25.5 34.5t16.5 21.5q0 1 1 3.5t1 3.5q0 9 -7 16t-16 7q-11 0 -26 -13t-31.5 -29t-33 -29t-30.5 -13l-3 3l4 8
q12 9 24.5 17t24.5 18q16 13 31 30t30.5 32.5t34 26.5t41.5 11q11 0 19 -8.5t8 -19.5q0 -21 -10 -39.5t-21.5 -35t-21.5 -32t-10 -30.5q0 -4 3.5 -4h5.5q35 0 63 11.5t57 29.5q8 5 16.5 10.5t17.5 7.5q0 -2 0.5 -3t0.5 -3z" />
    <glyph glyph-name="s" unicode="s" horiz-adv-x="244" 
d="M260 66q-4 -6 -19 -18t-33 -24.5t-34.5 -23t-23.5 -13.5q-12 -5 -24.5 -7.5t-24.5 -6.5q-12 -22 -23.5 -36.5t-25.5 -23.5t-32 -12.5t-43 -3.5q-11 0 -11 11q0 13 15 27.5t35 26.5t41 21.5t32 13.5q16 30 16 61q0 13 -1.5 25.5t-1.5 25.5q-12 -5 -29 -16.5t-34.5 -23.5
t-33.5 -21.5t-26 -9.5q-4 0 -4 2q5 10 10 13t14 8q18 12 34 27t31.5 30.5t31 29.5t32.5 23q3 7 7.5 17t10.5 19.5t14 16t17 6.5q7 0 17 -4t10 -12q0 -11 -6.5 -21t-16.5 -18.5t-20.5 -15.5t-19.5 -11q-7 -13 -13 -26.5t-6 -28.5q0 -10 2 -19t2 -19q0 -13 -2.5 -25t-6.5 -24
q20 6 40.5 10.5t39.5 15.5q16 8 30 19t31 18z" />
    <glyph glyph-name="t" unicode="t" horiz-adv-x="258" 
d="M1672 446q0 -6 -16 -11t-36.5 -8.5t-40 -6.5t-25.5 -4q-101 -16 -201.5 -24.5t-202.5 -13.5q-59 -2 -117 -8.5t-116 -13.5t-116.5 -12.5t-116.5 -5.5q-60 0 -120 7t-120 12q-33 -19 -60 -44t-51.5 -53t-48 -57.5t-48.5 -56.5q-29 -31 -60 -59t-63 -56q-11 -9 -32.5 -31
t-45 -44.5t-45 -39.5t-33.5 -17q-8 0 -14 4t-6 13q0 14 7 23t17 18q26 24 52 47.5t56 43.5q26 17 45 41.5t41 46.5q14 14 28.5 26.5t27.5 26.5q35 39 64.5 82.5t64.5 82.5q-63 16 -125.5 28t-127.5 12q-40 0 -79 6t-79 6q-11 0 -36 -0.5t-56.5 -2t-65 -5t-61 -10t-45.5 -16
t-18 -22.5q0 -8 6 -12.5t14 -8t15 -8t10 -13.5q-5 -7 -13 -7t-26 5.5t-36 14t-32 19t-14 19.5q0 11 17 20t39 16t43.5 11t30.5 6q53 11 105.5 12t106.5 1q65 0 128 -6t128 -6q53 0 103.5 -12.5t102.5 -18.5q26 22 53.5 40t54.5 38q21 15 41.5 34.5t43 37t47 29t52.5 11.5
q4 0 10.5 -1t12.5 -3.5t10 -6t4 -9.5q0 -12 -14.5 -27t-37 -32t-50 -34t-54 -32t-48 -27t-31.5 -19q52 -2 103 -9.5t103 -7.5q68 0 134.5 10t134.5 16q53 5 104.5 5t104.5 2q51 2 100.5 8t99.5 13q45 6 90.5 11.5t90.5 13.5q27 5 53.5 12.5t54.5 7.5q9 0 19.5 -2.5
t10.5 -14.5z" />
    <glyph glyph-name="u" unicode="u" horiz-adv-x="402" 
d="M414 65q0 -11 -18 -20.5t-41 -16.5t-45.5 -11.5t-31.5 -4.5q-16 0 -18.5 2.5t-2.5 16.5q0 7 -5 14h-4q-8 0 -17.5 -7.5t-16.5 -11.5q-11 -6 -36.5 -13t-54 -13t-55 -10t-39.5 -4q-17 0 -30.5 7t-13.5 27q0 16 5 27t32.5 30t61 38t65 32.5t43.5 13.5q5 0 5.5 -2t0.5 -6
q0 -15 -25 -30t-55 -31t-55 -34t-25 -37q0 -8 7.5 -13t15.5 -5q51 0 98 22t85 54q11 19 30.5 34.5t42.5 15.5q5 0 16 -1t11 -9q-6 -5 -15 -13.5t-19 -17.5t-17.5 -17.5t-10.5 -14.5q0 -19 18 -19q11 0 26 2t30 5.5t29 9t23 11.5h6z" />
    <glyph glyph-name="v" unicode="v" horiz-adv-x="497" 
d="M540 154q0 -1 -1 -3t-3 -2t-6 5t-18 5t-42.5 -10.5t-59 -25t-59 -29.5t-42.5 -23q-26 -15 -50 -33.5t-51 -32.5q-17 -9 -36 -16t-36 -16q-15 -8 -35 -21t-37 -13q-3 0 -7 0.5t-4 5.5q0 6 13 17.5t30 24t33 23.5t22 16q19 16 35 35t30 39q12 17 25 36t13 42q0 7 -1 11
q-4 5 -13 5q-13 0 -39 -10t-53.5 -24t-49 -30.5t-25.5 -28.5q-3 -9 -3 -20q0 -13 6.5 -20t17.5 -12q2 -2 2 -4q0 -6 -7 -6q-23 8 -35 17.5t-12 35.5q0 4 3 9q15 19 41 39.5t56.5 37.5t61.5 27.5t55 10.5q15 0 24 -9t9 -24q0 -14 -10 -34t-23.5 -40.5t-27 -39.5t-21.5 -32
q23 14 47 24.5t47 23.5q21 12 48.5 28t56 31t57.5 25.5t53 10.5q11 0 16 -8t5 -18z" />
    <glyph glyph-name="w" unicode="w" horiz-adv-x="531" 
d="M605 304q0 -56 -29 -104.5t-67 -86.5q-25 -24 -58 -53t-70.5 -54t-76.5 -41.5t-75 -16.5q-6 0 -11.5 -0.5t-11.5 -0.5q-9 0 -14 8.5t-5 16.5t2 14.5t4 13.5q-2 2 -5.5 3.5t-6.5 1.5q-17 0 -32.5 -7t-31.5 -15t-32.5 -15t-34.5 -7q-13 0 -18 7.5t-6 18t0.5 22.5t1.5 20
q0 5 -1 10t-3 10l-6 3q-8 -1 -15 -6.5t-15 -5.5l-7 3q1 2 14.5 12t30.5 22t33.5 24.5t22.5 19.5q5 5 9 11t10 11q7 5 18.5 7.5t19.5 2.5q5 0 10.5 -1.5t7.5 -6.5q-11 -17 -26 -27.5t-29 -21.5t-24 -26.5t-10 -40.5q0 -22 21 -22q8 0 25 7.5t38 19t43.5 25t42.5 25t34.5 19
t18.5 7.5q5 0 10.5 -3t5.5 -8q0 -8 -11.5 -15.5t-26 -17t-26 -22.5t-11.5 -33q0 -12 8.5 -16.5t19.5 -4.5q5 0 10 3t10 5q63 24 113 64t100 85q33 29 53 67t20 83q0 24 -15.5 44.5t-40.5 36.5t-56 29t-62 21t-59 12.5t-47 4.5q-8 0 -14.5 -0.5t-14.5 -0.5q-6 0 -11.5 2
t-11.5 2q-8 0 -13.5 -4t-11.5 -7q-8 -4 -15 -6.5t-15 -5.5q-34 -14 -47 -47.5t-13 -67.5q0 -24 9 -36.5t20.5 -20t21 -11.5t10.5 -10q-4 -6 -9 -6q-15 0 -29.5 10t-25.5 24.5t-18 31t-7 30.5q0 32 12 61q11 11 19.5 22.5t19.5 20.5q17 14 34 22t35 12t37 5t40 1
q61 0 120.5 -14.5t116.5 -36.5q16 -6 30.5 -17.5t25.5 -26.5t17.5 -32t6.5 -35z" />
    <glyph glyph-name="x" unicode="x" horiz-adv-x="446" 
d="M432 97q0 -22 -21.5 -39.5t-51 -29.5t-60 -18.5t-48.5 -6.5q-14 0 -32.5 3.5t-34.5 11.5t-27 20.5t-11 30.5q-10 -16 -31.5 -40.5t-47.5 -47.5t-52.5 -39.5t-45.5 -16.5q-7 0 -7 9q0 10 9 14q20 10 34.5 17t31.5 23q11 10 28 29t33 40.5t27.5 42.5t11.5 36q0 2 -0.5 3
t-0.5 3q-14 -6 -35 -23t-43.5 -35t-42.5 -32t-31 -14q-7 0 -7 7l3 4q26 11 47.5 30t44.5 35q11 7 21.5 13.5t20.5 14.5q7 6 15.5 19t19.5 13q12 -7 18.5 -21.5t1.5 -28.5q8 10 14 16t13 9.5t15 5.5t21 4q11 2 20.5 5t20.5 3q5 0 6 -4.5t1 -8.5q0 -8 -6.5 -19.5t-15.5 -21.5
t-19.5 -17t-19.5 -7q-7 0 -12.5 4.5t-5.5 11.5q0 5 6.5 8t15.5 6.5t17.5 8.5t12.5 15q-4 1 -12 1t-17.5 -4.5t-18.5 -11t-17.5 -13.5t-14.5 -12v-6q0 -18 7.5 -31.5t20 -22.5t28 -13t32.5 -4q19 0 36 8t35 10q5 1 10 1t10 1q8 1 19 7.5t21 15.5t17 19.5t7 19.5q0 5 -5 6.5
t-8 1.5q-6 0 -9.5 -3t-6.5 -7t-5.5 -7t-5.5 -3q-7 0 -7 7q0 9 12.5 17.5t20.5 8.5q3 0 8 -1.5t9.5 -4.5t8 -6.5t2.5 -6.5q2 -8 2 -13z" />
    <glyph glyph-name="y" unicode="y" horiz-adv-x="342" 
d="M-6 -197q-26 -14 -54 -25.5t-54 -25.5q-20 -11 -37 -25.5t-34 -28.5q-26 -21 -50 -41t-43.5 -42.5t-32 -50t-14.5 -63.5l3 -4q12 1 36 21t50 46t48.5 51.5t31.5 36.5q34 42 74 77t76 74zM360 63q-5 -9 -17 -17.5t-20 -14.5q-9 -7 -16.5 -15t-15.5 -16q-32 -31 -68 -57.5
t-73 -51.5q-19 -13 -38.5 -23.5t-36.5 -25.5q-34 -30 -61.5 -66t-59.5 -69q-51 -53 -102 -103.5t-103 -101.5q-10 -10 -25 -21t-31.5 -20.5t-33.5 -16t-31 -6.5q-3 0 -6 1t-3 5q0 10 8 30.5t18.5 44t21.5 44t17 30.5q7 13 17.5 23t21.5 19t21.5 18.5t19.5 21.5t17.5 24
t23.5 19q23 23 51.5 42t59.5 35.5t62.5 31t60.5 28.5q26 32 51.5 65t56.5 62q10 10 18 19.5t8 24.5q-19 0 -40 2t-39 9.5t-29.5 22t-11.5 39.5q0 13 8 40.5t20.5 55.5t27.5 49.5t30 21.5q9 0 9 -11q0 -20 -8.5 -38t-18 -35.5t-18 -36t-8.5 -39.5q0 -20 15.5 -34t35.5 -14
q13 0 23 6t18.5 13t16.5 13t18 6t16.5 -12t6.5 -20q0 -16 -10 -28.5t-20 -23.5q-23 -25 -44.5 -50.5t-41.5 -52.5q13 10 26 20.5t27 18.5q17 9 33.5 17t30.5 20q10 8 24 21.5t29.5 26.5t31 23t28.5 11z" />
    <glyph glyph-name="z" unicode="z" horiz-adv-x="322" 
d="M121 -110q-17 -9 -34 -18.5t-32 -22.5q-77 -63 -142 -139q-8 -9 -23 -25.5t-33 -36.5t-37 -42t-35 -42.5t-26 -37t-10 -25.5q0 -5 2.5 -14.5t8.5 -9.5q10 0 25 8.5t30 20t28.5 23.5t22.5 19q42 34 67.5 54t44 41t36 48.5t43.5 76.5q8 15 18 29.5t19.5 29t16.5 30t10 33.5
zM825 -172q-2 -9 -13 -9t-23 6t-23.5 14.5t-22.5 17t-20 14.5q-14 9 -37 19.5t-48 20t-49 16.5t-40 9q-5 1 -9 1.5t-8 2.5q-46 9 -92 15.5t-94 6.5q-45 0 -89.5 -15.5t-84.5 -33.5q0 -61 -18.5 -109t-56.5 -96q-18 -23 -35 -46t-37 -43q-12 -12 -33 -30.5t-46.5 -39t-54 -41
t-55.5 -37t-51 -27t-40 -10.5q-17 0 -25.5 14t-8.5 29q0 20 16.5 46t39 52t45.5 50t36 40q11 14 23.5 28t26.5 27t29 23.5t29 23.5q17 15 31.5 32.5t31.5 31.5q15 13 29.5 26.5t31.5 24.5q8 6 15 8t13 5t10.5 8t7.5 17q1 3 1 9q0 10 -3.5 18.5t-8 17.5t-8 17.5t-3.5 18.5
q0 19 16.5 31t37 23t37 24t16.5 34q0 7 -6.5 11t-15 6t-17 2.5t-13.5 0.5q-29 0 -54.5 -14t-47.5 -31.5t-40 -32t-31 -14.5l-4 2q-1 8 9 13.5t15 8.5q36 21 54 36.5t35 26t41 15.5t72 5q17 0 33.5 -8.5t16.5 -28.5q0 -15 -18.5 -31.5t-41 -32t-41 -29t-18.5 -21.5
q0 -3 4.5 -11.5t10 -19t10.5 -21t6 -17.5q42 17 85 31.5t89 14.5q41 0 86 -5.5t90 -15t88 -23t81 -29.5q34 -14 69 -28.5t66 -34.5q4 -2 4 -6z" />
    <glyph glyph-name="braceleft" unicode="{" horiz-adv-x="500" 
d="M150 -87q0 55 6.5 97t20.5 90q3 15 11.5 35t18.5 42.5t19 46t13.5 45t1.5 40t-17 30.5q-10 8 -18 13q-7 -2 -17.5 -3t-21 -1t-19.5 1.5t-13 4.5q-8 6 -6.5 14t7.5 14.5t15.5 11.5t19.5 5q14 0 29 -3t25 -8q29 -1 55.5 8.5t47.5 22.5q14 8 27.5 18t23.5 25l30 44t34 40
q23 24 53 56.5t61.5 65.5t61.5 61.5t53 45.5q4 4 12.5 10.5t18 12.5t18.5 10.5t15 4.5q9 0 11 -11q0 -10 -5 -21.5t-12.5 -22t-16.5 -19.5t-17 -14q-6 -4 -13 -6t-12 -5q-32 -15 -62 -35.5t-50 -47.5q-8 -11 -22 -23.5t-22 -23.5q-26 -32 -54 -62t-52 -63
q-11 -15 -28.5 -32.5t-29.5 -25.5q-16 -10 -38.5 -21.5t-45.5 -16.5q18 -24 15.5 -53.5t-13.5 -59.5t-25 -57.5t-18 -48.5q-2 -13 -6.5 -22t-6.5 -22q-10 -42 -15.5 -83.5t-5.5 -71.5q0 -6 1.5 -22.5t4.5 -34.5t6 -33t6 -19q7 -9 11.5 -12t7.5 -6t5 -9.5t2 -22.5
q0 -13 -11 -13q-15 0 -25.5 7.5t-18.5 19.5t-14 25.5t-10 25.5q-5 13 -5.5 30.5t-1.5 31.5z" />
    <glyph glyph-name="bar" unicode="|" horiz-adv-x="273" 
d="M670 837q0 -2 -8.5 -14.5t-20 -27.5t-22 -29.5t-13.5 -18.5q-15 -22 -30 -44.5t-29 -45.5q-45 -67 -91.5 -131.5t-88.5 -133.5q-4 -7 -19.5 -30t-36 -53.5t-44.5 -64.5t-44.5 -64.5t-36 -53t-19.5 -29.5q-6 -10 -20 -37t-30.5 -55.5t-32.5 -50.5t-26 -22q-4 0 -7.5 3.5
t-5.5 6.5q-8 -1 -14.5 3.5t-6.5 13.5q1 6 11 23t23 36.5t25 38t18 27.5q5 10 22 35.5t39 58t47.5 69.5t48.5 69.5t40 58t23 35.5q23 36 49 69l52 66q19 25 34 52.5t35 51.5q29 38 56.5 76t53.5 77q7 9 12 19.5t12 19.5q10 12 25 11q6 0 13 -3.5t7 -11.5z" />
    <glyph glyph-name="braceright" unicode="}" horiz-adv-x="506" 
d="M455 691q4 -55 0.5 -97t-14.5 -90q-3 -23 -16.5 -56t-24 -67.5t-11.5 -65.5t22 -50q11 -10 22 -15q17 -1 30.5 -4t23.5 -10q8 -6 9.5 -12t-1.5 -11t-10.5 -8t-17.5 -3q-28 0 -54 14q-29 1 -55 -8.5t-46 -22.5q-13 -8 -26 -18t-22 -25q-14 -22 -27.5 -44t-30.5 -40
q-21 -24 -49 -56.5t-57 -65.5t-57 -62t-50 -45q-5 -4 -13 -10.5t-17 -12.5t-17.5 -10.5t-14.5 -4.5q-9 0 -11 11q-1 10 3 21.5t11 22t15 19.5t16 14q6 4 13 6t12 5q30 15 58.5 35.5t47.5 47.5q8 11 20.5 23.5t20.5 23.5q24 32 49.5 62t47.5 63q10 15 26.5 32.5t27.5 25.5
q15 10 37 21.5t44 16.5q-19 24 -18.5 53t9.5 59t20.5 58t14.5 49q2 13 5.5 22t4.5 22q7 42 9.5 83.5t0.5 71.5q0 6 -3 22.5t-6.5 34.5t-8 33t-7.5 19q-8 9 -13 12t-8 6t-5 9.5t-3 22.5q-2 13 10 13q15 0 26 -7.5t20 -19.5t15.5 -25.5t11.5 -25.5q5 -13 7 -30.5t4 -31.5z" />
    <glyph glyph-name="asciitilde" unicode="~" horiz-adv-x="550" 
d="M465 238q0 -30 -15.5 -60t-42 -53t-60 -36t-69.5 -11q-25 1 -41.5 15t-28.5 30.5t-22.5 29.5t-23.5 13q-19 0 -29 -10.5t-16 -23t-10.5 -23t-11.5 -10.5q-6 0 -8 5.5t-2 10.5q0 15 6 30t16.5 27t24.5 19.5t29 7.5q37 0 59.5 -11.5t38.5 -26t30 -26t33 -11.5q28 0 42.5 11
t27.5 46q12 30 13 61q1 11 8 21t22 10q17 0 23.5 -10.5t6.5 -24.5z" />
    <glyph glyph-name="uni00A0" unicode="&#xa0;" horiz-adv-x="300" 
 />
    <glyph glyph-name="exclamdown" unicode="&#xa1;" horiz-adv-x="306" 
d="M400 678q0 20 12.5 33.5t32.5 13.5q9 0 15 -5.5t9.5 -13.5t5 -17t1.5 -16q0 -6 -3 -17t-7.5 -21.5t-11.5 -18t-14 -7.5q-18 0 -18 16q0 5 4 13q-14 1 -20 14.5t-6 25.5zM367 502q0 -2 -8 -15t-18.5 -28.5t-20 -30.5t-12.5 -19q-14 -23 -27.5 -46.5t-27.5 -46.5
q-22 -38 -40 -72.5t-32 -58.5q-13 -23 -22 -48.5t-22 -48.5q-5 -10 -15 -32.5t-21.5 -45.5t-24 -40.5t-22.5 -17.5q-8 0 -13 7q-8 -1 -14.5 3.5t-6.5 13.5q0 6 6.5 18.5t14.5 27t16.5 28t13.5 22.5q16 32 31 64.5t32 63.5q16 27 28 50t35 55q27 39 53 78t50 80
q6 10 10.5 20.5t11.5 19.5q10 13 25 13q6 0 13 -3t7 -11z" />
    <glyph glyph-name="cent" unicode="&#xa2;" horiz-adv-x="354" 
d="M123 127q13 38 24.5 78t19.5 77q-14 -5 -33 -21.5t-36 -37t-29 -40.5t-12 -32q0 -15 11 -21t22 -6q16 0 33 3zM368 242q2 0 4 -1q5 -3 5 -6t-26.5 -19.5t-61 -37t-68 -38.5t-47.5 -24q-6 -14 -13.5 -31t-15 -31.5t-15 -24.5t-13.5 -10q-10 0 -14.5 6t-4.5 11q0 4 2 11.5
t5 17t6 19.5t4 18q-9 -1 -19 -1.5t-21 -0.5q-9 0 -20.5 3t-22.5 8t-18.5 13t-7.5 18q0 30 17 59.5t42.5 55.5t55.5 47t56 34q14 36 22.5 54t17.5 18q11 0 17.5 -7t6.5 -15t-2 -16t-4 -15q8 2 17 3t18 1q14 0 25.5 -7.5t11.5 -21.5q0 -8 -9.5 -16t-23 -14.5t-27.5 -11.5
t-24 -6q-3 -11 -6.5 -22t-8.5 -24q-9 -22 -13.5 -45.5t-12.5 -46.5q29 11 57.5 27t53.5 30q7 4 17 10.5t20.5 13t20.5 11t17 4.5z" />
    <glyph glyph-name="sterling" unicode="&#xa3;" horiz-adv-x="875" 
d="M81 7q19 8 37 18q-19 11 -38.5 19t-43.5 8q-15 0 -30.5 -7.5t-15.5 -21.5q0 -18 9 -25t42 -7q12 0 20 5.5t20 10.5zM688 455q-23 -18 -40.5 -32.5t-34.5 -28.5q6 -2 14 0q20 2 35 4t29.5 4t29.5 4.5t34 5.5q32 5 55 20t51 31q23 11 34 26.5t13 30.5q0 13 -7.5 17t-19.5 4
q-8 0 -14.5 -1.5t-14.5 -1.5q-5 0 -13.5 -4t-12.5 -6q-25 -6 -42 -12.5t-32 -15t-30 -19.5t-34 -26zM529 401q8 0 15.5 1t16.5 2q11 11 21 19.5t27 18.5q15 10 30 25t30 25q32 21 60.5 36t63.5 29q32 13 57 22.5t59 9.5q32 0 42 -10t10 -37q0 -14 -6 -25t-15 -20.5
t-20 -18.5t-21 -18q-11 -10 -20 -17t-18.5 -12.5t-20 -10.5t-24.5 -10q-18 -7 -29.5 -11t-22 -7.5t-22.5 -6.5t-31 -8q-21 -6 -53 -7t-53 -1h-22q-11 -9 -22 -18.5t-24 -20.5q-15 -13 -27 -24.5t-22.5 -22.5t-21.5 -22t-25 -24q15 0 37 1.5t44.5 4.5t42.5 8.5t29 13.5
q5 5 15 10t18 5q6 0 12.5 -1.5t12.5 0.5q8 0 11 4q13 -5 13 -19q0 -8 -3 -9.5t-8 -3.5q-25 -10 -54.5 -17.5t-60 -13.5t-60 -9.5t-54.5 -4.5q-15 -2 -29 0q-14 -13 -25.5 -24l-23 -22t-23.5 -23t-27 -26q-16 -15 -27.5 -24t-22.5 -16.5t-23.5 -16.5t-29.5 -23q-1 -1 -2 -1
q24 -14 46 -24q69 -36 147 -36q45 0 77 3t59 21q23 15 45 29t30 14q11 0 11 -7q0 -8 -21.5 -24.5t-47.5 -33.5q-14 -9 -26.5 -13.5t-25 -7.5t-26.5 -4.5t-31 -4.5q-32 0 -57 1t-57 1q-24 5 -43 9t-36.5 9.5t-35 12.5t-39.5 18q-2 2 -5 2.5t-5 2.5q-31 -20 -63.5 -32
t-72.5 -12q-24 0 -38.5 4.5t-22 12.5t-10 19t-2.5 25q-2 14 10 26.5t30.5 22t41 15t42.5 5.5q18 0 38 -8t42 -20q2 2 3.5 3t3.5 3q23 20 42 32.5t42 32.5q31 26 54.5 46t44.5 39h-12q-14 0 -28.5 5.5t-28.5 8.5q-7 1 -15 2.5t-15 4.5t-12 9.5t-5 18.5q-2 8 4 12t10 6
q15 0 30.5 -10t28.5 -15q16 -10 33.5 -13.5t35.5 -5.5q20 18 40.5 37.5t46.5 43.5q23 20 37.5 30.5t31.5 26.5q-27 4 -56 17q-2 1 -8.5 7t-14.5 14t-14 17.5t-6 16.5q0 13 11 13q3 0 15.5 -13.5t29.5 -25.5q11 -7 23 -11t20 -7z" />
    <glyph glyph-name="currency" unicode="&#xa4;" horiz-adv-x="762" 
d="M265 351q-15 -8 -29 -19.5t-25 -29t-17.5 -42t-6.5 -57.5q0 -14 11.5 -28t27.5 -25t34 -18.5t30 -7.5q53 0 99 20q-2 14 9.5 18t20.5 -2q35 22 60.5 55.5t36.5 76.5q1 5 0.5 15t-1.5 20.5t-2.5 21t-1.5 16.5q0 11 -3 20q-18 -13 -24 -13q-5 0 -10.5 4t-5.5 11q4 6 15 21
q-15 5 -35.5 3t-41.5 -6t-39.5 -7.5t-30.5 -1.5q-2 -11 -13.5 -16.5t-28.5 -13.5q3 -6 -3 -12q-5 -5 -12 -4.5t-13 1.5h-1zM141 521q0 6 11 11t16 5q11 1 18 -8q5 -7 9 -14.5t9 -14.5l36 -52t38 -52q13 6 23.5 10t18.5 4q0 12 6.5 24.5t17 23t23.5 17.5t25 7q32 0 66 -4.5
t63 -17.5q15 21 31 42.5t30 39t24.5 28.5t14.5 11q13 0 17 -14q15 -7 15 -24q0 -6 -8 -18t-21 -27.5t-29.5 -33t-33.5 -33.5q24 -27 24 -68q0 -67 -39.5 -123.5t-101.5 -98.5q26 -37 39 -53t20 -29q4 -7 11 -16l14 -18t12.5 -17t6.5 -13q0 -7 -7.5 -12.5t-13.5 -4.5
q-2 -2 -4.5 -5t-5.5 -3q-8 0 -17.5 12t-19.5 27.5t-18.5 31t-13.5 23.5q-3 4 -5.5 6.5t-6 7l-10.5 13.5t-19 26q-40 -22 -82 -34t-80 -12q-28 0 -53 14q-8 -12 -23.5 -29t-32 -33.5t-31 -28t-19.5 -11.5q-4 0 -9 8.5t-5 13.5q4 5 14.5 17.5t24 27.5t27 31t23.5 27
q-38 41 -38 96q0 24 9.5 48.5t26 47t37 42t43.5 34.5q-1 0 -5 10l-22 34l-22 34q-3 3 -10.5 13.5t-16 22t-15 21t-6.5 10.5z" />
    <glyph glyph-name="yen" unicode="&#xa5;" horiz-adv-x="504" 
d="M359 150q0 -6 -4 -14.5t-11 -8.5q-23 0 -44.5 3.5t-43.5 5.5q-8 2 -17.5 -4t-16.5 -20q-11 -23 -21 -46t-21 -46q-8 -17 -15.5 -35.5t-18.5 -33.5q-5 -7 -8.5 -10t-12.5 -3q-12 0 -18.5 3.5t-6.5 17.5q0 7 7 23t18.5 39.5t27 52t33.5 59.5q-18 -3 -36 -5.5t-36 -2.5
q-8 0 -15.5 1.5t-7.5 12.5q0 9 9 14q2 1 27 4t57 7q19 3 24 11t13 22q4 7 8 13.5t8 13.5q-18 -3 -34 -3q-7 0 -18.5 1.5t-23 5.5t-19.5 10.5t-8 15.5q0 7 5 11t11 4q20 0 40 -3.5t40 -5.5q18 -2 23 0t14 18q24 42 41.5 75.5t22.5 48.5q-1 19 -2.5 50.5t-8.5 62.5t-21.5 53.5
t-41.5 22.5q-26 0 -45 -4t-34 -13.5t-27.5 -25t-24.5 -37.5q-8 -14 -19 -31t-11 -34q0 -14 5.5 -24t22.5 -10q13 0 21.5 8.5t15 19t12.5 19.5t13 9q6 0 11.5 -4t5.5 -11q0 -11 -8.5 -24t-20.5 -24t-26 -18t-25 -7q-15 0 -28.5 8.5t-24 21.5t-16.5 28.5t-6 29.5q0 10 8.5 27
t20.5 35t24.5 33.5t19.5 23.5q12 13 28.5 21.5t35 13.5t37.5 7t36 2q35 0 59 -14.5t40 -38t24 -53t11 -59.5q9 9 34.5 30.5t58.5 48.5t69.5 56t68.5 53t55.5 39.5t30.5 15.5t13.5 -6.5t6.5 -13.5q0 -17 -11.5 -31t-28 -25.5t-34 -21.5t-29.5 -18q-15 -11 -28.5 -24
t-27.5 -24q-48 -38 -89 -72t-88 -73q-12 -17 -21.5 -34t-22.5 -33q-14 -17 -27 -35.5t-25 -38.5q29 2 60 8t62 6q8 0 15.5 -2t7.5 -13t-9 -14q-8 -3 -22 -5t-30.5 -3.5t-34.5 -2.5t-34 -2q-14 -2 -23.5 -4.5t-16.5 -13.5q-5 -10 -10.5 -20t-10.5 -21q15 2 25.5 3t13.5 1
q7 0 18.5 -0.5t23 -3t19.5 -8t8 -14.5z" />
    <glyph glyph-name="brokenbar" unicode="&#xa6;" horiz-adv-x="273" 
d="M670 837q0 -2 -8.5 -14.5t-20 -27.5t-22 -29.5t-13.5 -18.5q-15 -22 -30 -44.5t-29 -45.5q-35 -51 -65 -98.5t-64 -98.5q-13 -9 -29 -2.5t-19 17.5q9 11 14.5 19t11 15.5t11.5 16t15 19.5q19 25 34 52.5t35 51.5q29 38 56.5 76t53.5 77q7 9 12 19.5t12 19.5q10 12 25 11
q6 0 13 -3.5t7 -11.5zM101 84q5 9 19 29t33 45.5t41.5 55t44 58.5t40 54.5t30.5 42.5q14 7 18 -1t6 -16q0 -4 -11 -22.5t-28 -44.5t-37.5 -56t-39 -57t-32.5 -47.5t-18 -27.5q-6 -10 -20 -37t-30.5 -55.5t-32.5 -50.5t-26 -22q-4 0 -7.5 3.5t-5.5 6.5q-8 -1 -14.5 3.5
t-6.5 13.5q1 6 11 23t23 36.5t25 38t18 27.5z" />
    <glyph glyph-name="section" unicode="&#xa7;" horiz-adv-x="821" 
d="M434 208q0 -19 3 -33.5t8 -27.5q8 2 15.5 5.5t16.5 7.5q21 10 38 26.5t33 33.5q21 23 28 46t7 58q0 5 -0.5 8.5t-0.5 8.5q-13 5 -28 8.5t-26 3.5q-32 -6 -48.5 -18.5t-29.5 -43.5q-7 -16 -11.5 -41t-4.5 -42zM202 -216q-12 0 -28.5 2t-32.5 5.5t-30 9t-21 12.5
q-23 18 -30.5 38t-7.5 49q0 20 9.5 40.5t25.5 38.5t36 31t41 19q3 1 6 -2t6 -7t5 -8t2 -7q0 -16 -13 -25t-29.5 -16.5t-32 -18t-20.5 -29.5q-5 -20 6.5 -41t25.5 -35q10 -10 25.5 -15.5t32.5 -7.5t32.5 -2t24.5 2q21 5 43.5 11.5t49.5 17.5q21 10 38 26.5t33 33.5
q21 23 28 46t7 58q0 36 -7.5 57.5t-16.5 39.5t-16.5 39t-7.5 55q0 55 23 98t69 68q4 4 12 7.5t17 6t18 4t15 1.5q18 0 35 -5q-5 17 -12 30.5t-13 28t-10.5 32t-4.5 43.5q0 60 27 102.5t68 72.5q16 11 41 21.5t44 10.5q24 0 46.5 -2.5t41.5 -22.5q14 -15 18.5 -29t4.5 -32
q0 -17 -5 -36.5t-18 -32.5q-9 -7 -18 -7.5t-15 2.5t-8 8.5t4 11.5q8 15 11.5 27.5t3.5 28.5q0 8 -1.5 15.5t-6.5 12.5q-14 11 -26.5 18t-29.5 7q-49 0 -75.5 -21t-45.5 -65q-7 -16 -10 -41t-3 -42q0 -30 8 -52t17.5 -42t17.5 -42t8 -53v-35.5t-2.5 -24.5t-7.5 -23t-15 -30
q-5 -8 -13.5 -19t-19 -21.5t-21 -19t-19.5 -12.5q-20 -10 -39 -17.5t-39 -15.5q10 -20 18.5 -42t8.5 -54v-35.5t-2.5 -24.5t-7.5 -23t-15 -30q-5 -8 -13.5 -19t-19 -21.5t-21 -19t-19.5 -12.5q-21 -10 -40.5 -18t-41.5 -16q-15 -5 -26.5 -8.5t-22.5 -5t-24 -2t-30 -0.5z" />
    <glyph glyph-name="dieresis" unicode="&#xa8;" horiz-adv-x="445" 
d="M203 704q0 -4 -5 -7.5t-11 -6.5q-7 -4 -16 -7q-10 0 -18 4.5t-14 10.5t-9 12t-3 9q0 15 7.5 33t25.5 18q12 0 20 -7t13 -17t7.5 -21.5t2.5 -20.5zM363 697q0 -1 -6 -5t-13.5 -8.5t-14 -8t-8.5 -3.5q-6 0 -13.5 4.5t-13.5 11.5t-10.5 14.5t-4.5 13.5q0 7 6 12t14.5 8
t17.5 4t14 1q8 0 17 1t14 -7t6 -17.5t-5 -20.5z" />
    <glyph glyph-name="copyright" unicode="&#xa9;" horiz-adv-x="889" 
d="M667 408q0 2 -0.5 7t-1.5 10t-3 8.5t-5 3.5q-9 0 -26 -5t-34.5 -13t-30 -18.5t-12.5 -20.5v-13q0 -6 0.5 -14t3 -14.5t7.5 -11.5t13 -5q16 0 32 5.5t28.5 16t20.5 26.5t8 38zM893 504q0 -64 -28 -134t-74.5 -137t-108.5 -127t-130.5 -105.5t-138.5 -72.5t-134 -27
q-86 0 -130 41t-44 129q0 33 6.5 69.5t18.5 72t29 68.5t38 60q19 24 47.5 53.5t62 55t70 43t70.5 17.5q14 0 22 -6t8 -21q0 -10 -10.5 -13t-24 -2.5t-26.5 2.5t-19 2q-23 0 -53.5 -19t-60.5 -46.5t-55 -58t-37 -54.5q-16 -31 -26.5 -59t-17 -56.5t-9.5 -59.5t-3 -70
q0 -19 11 -39.5t28.5 -38t38.5 -28.5t42 -11q49 0 99.5 10t95.5 29q60 25 114.5 60t102.5 79.5t87 96.5t68 112q26 54 38.5 105.5t1.5 108.5q-5 25 -18.5 41.5t-33 26t-42 13t-44.5 3.5q-27 0 -52 -14t-46 -36t-37 -47.5t-24 -49.5q-3 -8 -3.5 -17.5t-2.5 -18.5q9 6 22 14
t27 14.5t27.5 11t25.5 4.5q19 0 32.5 -12t13.5 -32q0 -27 -10 -52.5t-27.5 -45t-41.5 -31t-52 -11.5q-17 0 -28 7.5t-16.5 19t-7.5 25.5t-1 28q-17 -10 -47.5 -31.5t-60 -47.5t-51 -53t-21.5 -48q0 -10 2.5 -22.5t8.5 -24t15 -19.5t22 -8q30 0 51 6t37.5 17t31 25.5
t29.5 31.5q8 8 0.5 19.5t-19.5 11.5q-27 0 -40.5 -6.5t-20.5 -14.5t-10.5 -14.5t-10.5 -6.5q-6 0 -13.5 2.5t-7.5 10.5q0 7 12.5 17t28.5 19.5t31.5 16t21.5 6.5q7 0 17.5 -0.5t20.5 -3.5t17 -9t7 -16q0 -29 -19 -54.5t-47.5 -44.5t-61.5 -30t-61 -11q-48 0 -70.5 21.5
t-22.5 52.5q0 44 25.5 82.5t63 71t79 58.5t74.5 46q2 14 5.5 29t8.5 27q10 24 27.5 51.5t42 51.5t55.5 40t69 16q34 0 62 -6.5t48 -22t30.5 -41.5t10.5 -65z" />
    <glyph glyph-name="ordfeminine" unicode="&#xaa;" horiz-adv-x="326" 
d="M284 17q0 -7 -5 -11t-11 -4q-30 0 -60 5.5t-60 5.5q-29 0 -58.5 -6.5t-58.5 -6.5q-8 0 -18 1.5t-10 12.5q0 6 4 9t9 5q2 1 16 3t34 4.5t43 5.5t44 5t36.5 3.5t20.5 1.5q7 0 19.5 -1.5t24.5 -5t21 -10.5t9 -17zM303 300q0 8 -7.5 18.5t-16.5 10.5q-8 0 -25 -14t-35.5 -32
t-34 -35.5t-19.5 -24.5q-5 -8 -11.5 -25t-6.5 -27q0 -8 6 -12.5t14 -4.5q12 0 34.5 18.5t45 43.5t39.5 49t17 35zM439 210q0 -7 -11.5 -16.5t-26.5 -18.5t-30 -15t-22 -6q-16 0 -28 4.5t-20 9.5t-13 9.5t-6 4.5q-13 0 -24.5 -12t-24 -27t-28.5 -27t-38 -12q-29 0 -48 19
t-19 48q0 17 9 35t19 31q7 9 25 28.5t39.5 40t41.5 36.5t30 18q5 1 9.5 1h9.5q8 0 13 -3.5t8 -7t6.5 -7t8.5 -3.5q13 0 20 8.5t18 8.5q7 0 13.5 -3t6.5 -11q0 -10 -6.5 -23t-15 -27t-15 -29t-6.5 -29q0 -17 8 -33.5t28 -16.5q8 0 16 4t16.5 9t16 10t15.5 7z" />
    <glyph glyph-name="guillemotleft" unicode="&#xab;" horiz-adv-x="495" 
d="M511 436q-2 -9 -9.5 -16.5t-15.5 -13.5q-8 -13 -18 -24t-23 -20q-8 -7 -26 -22t-37.5 -31.5t-35.5 -30.5t-19 -20q-2 -11 1 -29t8.5 -38t11.5 -39t11 -33q-1 -4 -5 -10.5t-9 -12.5t-10.5 -10t-9.5 -4q-2 -1 -5.5 6.5t-7 16.5t-5.5 17.5t-2 10.5q-8 15 -17.5 28.5
t-17 28.5t-11 33t1.5 41q0 6 5.5 12t13.5 11.5t16 10.5t13 9q15 14 23.5 20t15.5 9t15 7t22 13q29 16 52.5 37.5t51.5 39.5q4 2 9 6t10 4q2 0 3 -2.5t0 -4.5zM661 380q3 -20 -18 -40t-48.5 -39.5t-52 -37.5t-28.5 -32q-2 -7 -2 -14.5t1 -15.5q2 -9 5 -18t5 -18
q1 -8 6.5 -23.5t10.5 -31.5t6 -29t-6 -16q-2 -1 -13.5 -2t-14.5 1q-9 19 -12.5 31.5t-9.5 32.5q-6 18 -12.5 27t-12 15t-9.5 11t-5 15q-1 5 -6 10.5t-5 10.5q1 11 0 16.5t1 15.5q5 20 28.5 34.5t53 27t58 23.5t43.5 23l6.5 6.5l9.5 9.5t9.5 9t6.5 4t3.5 -2t1.5 -4z" />
    <glyph glyph-name="logicalnot" unicode="&#xac;" horiz-adv-x="441" 
d="M391 193q0 -5 -8 -8t-10 -5q-2 -1 -9.5 -10.5t-17.5 -24t-19.5 -30.5t-14.5 -30q-4 -10 -12 -23t-21 -15q-8 11 -17.5 18.5t-10.5 21.5q-1 10 6.5 20t17.5 20.5t17.5 21.5t6.5 22q-1 8 -14.5 10.5t-19.5 2.5q-10 -1 -26 1.5t-34 6t-35.5 6.5t-30.5 3q-4 0 -16 -0.5
t-25.5 -1t-25 -0.5t-14.5 1q-8 3 -9.5 11t-2.5 15v10.5t8 5.5q7 1 21 0t29 -2t28 -1.5t20 -0.5q21 2 40.5 -0.5t29.5 -6.5q3 -1 11 -3.5t17.5 -5t18 -4.5t11.5 -2q31 2 48 6t34 9q3 1 8 -3.5t9.5 -11.5t8 -13.5t3.5 -9.5z" />
    <glyph glyph-name="uni00AD" unicode="&#xad;" horiz-adv-x="377" 
d="M335 142q0 -7 -5 -11t-11 -4q-30 0 -60 5.5t-60 5.5q-29 0 -58.5 -6.5t-58.5 -6.5q-8 0 -18 1.5t-10 12.5q0 6 4 9t9 5q2 1 16 3t34 4.5t43 5.5t44 5t36.5 3.5t20.5 1.5q7 0 19.5 -1.5t24.5 -5t21 -10.5t9 -17z" />
    <glyph glyph-name="registered" unicode="&#xae;" horiz-adv-x="630" 
d="M447 234q-19 6 -38.5 16.5t-35 24.5t-25 32t-8.5 39q-5 -5 -23 -24.5t-38.5 -40.5t-37 -38t-18.5 -17q-11 0 -11 3.5v11.5q0 1 8 11t21 24.5t28 32t28.5 33.5t24 28.5t13.5 16.5l-22 -7q-3 0 -8 -1t-9.5 -1.5t-7.5 0t-3 4.5q0 9 8.5 14t19.5 8.5t22 6t16 7.5
q4 4 9.5 10.5t11 12.5t12 10.5t13.5 4.5q5 0 6 -4.5t1 -9.5q0 -8 -5.5 -15t-8.5 -15q-2 -4 -6.5 -7.5t-7.5 -7.5q1 0 5.5 -0.5t5.5 -0.5q20 0 28 17t8 34q0 9 -5 14.5t-12.5 9.5t-16 5.5t-15.5 1.5q-4 0 -12.5 -1t-18.5 -2t-19.5 -2.5t-14.5 -2.5q-33 -9 -63 -31.5
t-52.5 -56t-37.5 -76t-18 -89.5q-1 -11 4 -24.5t13.5 -25.5t20 -20t25.5 -8q48 0 82.5 7.5t62 20t51.5 30t50 37.5zM629 236q0 -3 -2.5 -6t-4.5 -5q-7 -1 -14 -3t-14 -2q-8 0 -14 3q-8 -1 -14.5 -1.5t-14.5 -0.5q-20 0 -40.5 0.5t-46.5 4.5q-24 -22 -51.5 -42t-57.5 -35
t-62 -24t-66 -9q-60 0 -87 24t-27 86q0 42 14 83.5t42 73.5q14 17 31 34.5t36 32.5t39.5 26t43.5 16q14 11 35 12.5t38 1.5q27 0 45 -14.5t18 -43.5q0 -35 -23.5 -58t-59.5 -20v-11q0 -43 28.5 -70t73.5 -32q20 19 40 48t36 61t26 64.5t10 60.5q0 20 -10 35.5t-26 26t-35 16
t-38 5.5q-20 0 -36 -6.5t-28 -14.5t-19.5 -14.5t-9.5 -6.5q-10 0 -11 6.5t-1 13.5q0 10 15 17.5t34.5 12t38 7t26.5 2.5q23 0 46.5 -4.5t42.5 -16t31 -30.5t12 -48q0 -33 -11.5 -66.5t-30 -64.5t-41.5 -59.5t-45 -50.5q12 -2 29.5 -3.5t36 -3t35.5 -2.5t29 -1q2 0 5.5 -0.5
t3.5 -4.5z" />
    <glyph glyph-name="macron" unicode="&#xaf;" horiz-adv-x="407" 
d="M344 734q0 -8 -5 -14.5t-13 -6.5q-30 0 -59 5.5t-59 5.5q-26 0 -54 -7t-57 -7q-11 0 -22.5 2.5t-11.5 17.5q0 8 5 12.5t11 6.5q1 0 17 1t39 2.5t50.5 2.5t51 2.5t40.5 2t20 0.5h16.5t15 -2.5t11 -8t4.5 -15.5z" />
    <glyph glyph-name="degree" unicode="&#xb0;" horiz-adv-x="300" 
d="M265 568q0 -29 -16 -55t-41 -46t-54.5 -32t-56.5 -12q-26 0 -43.5 20.5t-17.5 45.5q0 18 9 34t23 29t31.5 20.5t34.5 7.5q2 0 5 -1t3 -4q0 -8 -10 -18.5t-22 -23t-22 -25.5t-10 -26t12.5 -20.5t23.5 -7.5q10 0 25.5 8t30 20t25.5 25.5t14 23.5t3 22q0 21 -11.5 28
t-25 8.5t-24.5 2.5t-11 10q0 13 12 23.5t24 10.5q16 0 32 -3.5t28.5 -11.5t20.5 -21t8 -32z" />
    <glyph glyph-name="plusminus" unicode="&#xb1;" horiz-adv-x="439" 
d="M336 48q0 -8 -6 -14t-14 -6q-29 0 -58 5.5t-58 5.5q-28 0 -54.5 -6.5t-54.5 -6.5q-11 0 -23.5 2.5t-12.5 16.5q0 8 4.5 12t11.5 7q3 1 30.5 5t60.5 8t62 7t35 3q8 0 21 -2t25.5 -6.5t21.5 -12t9 -18.5zM381 262q0 -16 -15 -16q-25 0 -49.5 5.5t-49.5 5.5q-2 -10 -3.5 -33
t-6 -46.5t-14 -41.5t-26.5 -18q-7 0 -12 4.5t-5 11.5q0 12 8 27t13 27q6 17 9.5 34t6.5 34l-52 -8t-52 -4q-6 0 -14.5 1.5t-8.5 9.5q0 13 12 17q7 2 22.5 4.5t33.5 4.5t34.5 3.5t25.5 2.5q2 30 4 62t13 61q4 13 17 13q5 0 8.5 -5t3.5 -10q0 -26 -4 -58.5t-8 -58.5q16 3 34 3
q7 0 19.5 -1.5t25 -5t21.5 -9.5t9 -16z" />
    <glyph glyph-name="uni00B2" unicode="&#xb2;" horiz-adv-x="340" 
d="M351 502q5 3 17.5 9.5t17.5 12.5q-11 0 -25.5 -6t-27 -13.5t-21 -14.5t-6.5 -10q2 -5 7.5 -3.5t12.5 6t13.5 10t11.5 9.5zM566 668q0 -16 -13.5 -36t-33.5 -40.5t-43.5 -38t-43.5 -29.5q5 -8 8 -19t9 -19l15 -3q5 0 9 3t9 6q8 11 18.5 21t18.5 21q3 4 8.5 11.5t12.5 15
t14.5 13.5t12.5 6t12 -6.5t7 -10.5q0 -9 -10.5 -23.5t-21.5 -29.5q-17 -24 -42 -43t-58 -19q-13 0 -21.5 5.5t-14 14t-9 18.5t-6.5 19q-6 -2 -12 -6t-12 -7q-12 -7 -21.5 -16t-19.5 -17.5t-23 -14t-32 -5.5q-8 0 -16 2.5t-8 12.5q0 15 13 31.5t32.5 29.5t42.5 21.5t42 8.5
q7 0 14 0.5t14 -2.5q12 5 22 12.5t18 15.5q6 6 16 16.5t19.5 22.5t16.5 24.5t7 22.5q0 13 -11 15q-24 4 -42 0t-30.5 -13t-18.5 -21t-6 -24q0 -5 -9 -15.5t-14 -11.5q-11 -2 -19 3t-8 25q0 6 7.5 17t17.5 22.5t20 21t15 11.5q6 2 10.5 4t9.5 5q16 9 42.5 13.5t43.5 1.5
q16 -3 29 -16t13 -27z" />
    <glyph glyph-name="uni00B3" unicode="&#xb3;" horiz-adv-x="271" 
d="M315 435q3 0 5 2q35 19 52 33q11 7 18.5 12.5t18.5 13.5q8 6 16 16.5t19 21.5q-4 0 -13.5 -1t-20.5 -2t-21 -2t-16 -1q-10 0 -21 5t-11 13q0 6 3 11q2 3 4 5q5 6 11.5 12.5t13.5 11.5q8 6 10.5 8.5l7.5 7.5q8 7 20 17t23 20.5t19 19.5t8 13q0 9 -1 9q-9 0 -25 -7
t-32.5 -16.5t-30.5 -18t-20 -11.5l-7.5 -5t-12.5 -11q-3 -2 -8 -6.5t-10 -9.5t-9 -10.5t-4 -9.5q0 -3 1 -4q0 -1 1 -1t9 4t11 3q11 0 9 -15q-1 -8 -6 -12.5t-11.5 -6.5t-12 -3t-6.5 -1q-11 0 -21.5 10.5t-10.5 19.5t3.5 16.5t8.5 15.5q4 7 16 17t20 18q5 5 20.5 15t24.5 15
q7 4 18 10t23 11.5t24.5 10.5t21.5 8q5 2 10.5 2.5t18.5 0.5t26.5 -9t13.5 -20q0 -17 -5 -25t-17 -20q-5 -6 -13.5 -14t-17.5 -16q-4 -4 -8.5 -6.5t-11.5 -6.5q-5 -3 -10.5 -7.5t-20.5 -20.5q-3 -3 -5 -4.5t-5 -5.5q5 0 22.5 2.5t25.5 4.5q12 2 24 3.5t20 1.5t13.5 -6.5
t5.5 -8.5q0 -5 -4 -11t-9 -12t-10 -11t-8 -7q-9 -8 -25.5 -21.5t-37 -28t-42.5 -28t-42 -21.5q-5 -2 -11.5 -4t-15.5 -2t-18.5 2.5t-17.5 21.5q-3 6 -4 8.5t-1 4t0.5 3t0.5 5.5t3 12.5t12 8.5q16 0 18 -5.5t6 -15.5q2 -5 5 -10.5t6 -5.5z" />
    <glyph glyph-name="acute" unicode="&#xb4;" horiz-adv-x="403" 
d="M326 929q0 -6 -3.5 -14t-8.5 -16.5t-10.5 -16t-10.5 -10.5q-15 -11 -30.5 -20.5t-29.5 -22.5q-3 -3 -12.5 -12t-20 -18.5t-19.5 -17t-11 -7.5t-2.5 0.5t-2.5 0.5q-5 0 -9 -2.5t-9 -2.5t-8 4t-3 9q0 3 4 7q7 6 14 11t14 11q14 14 27.5 28.5t26.5 28.5q9 10 17 23.5t17 26
t20.5 21.5t26.5 9q7 0 15 -6.5t8 -13.5z" />
    <glyph glyph-name="mu" unicode="&#xb5;" horiz-adv-x="402" 
d="M414 65q0 -11 -18 -20.5t-41 -16.5t-45.5 -11.5t-31.5 -4.5q-16 0 -18.5 2.5t-2.5 16.5q0 7 -5 14h-4q-8 0 -17.5 -7.5t-16.5 -11.5q-11 -6 -34.5 -13.5t-50 -14t-51.5 -11t-38 -4.5q-17 0 -24.5 8t-7.5 28v6q-11 -8 -20.5 -15.5t-20.5 -15.5q-20 -16 -30.5 -24
t-19.5 -14t-20 -13.5t-32 -21.5q-23 -15 -36 -25.5t-23.5 -20t-23 -20.5t-33.5 -28q-18 -15 -29.5 -22t-23.5 -15t-27.5 -21.5t-42.5 -41.5q-15 -16 -27.5 -31t-26 -27t-30.5 -19.5t-42 -7.5q-4 0 -8 0.5t-4 5.5q0 2 4 9.5t6 9.5q13 21 31.5 35.5t38.5 27t41 24.5t40 26
q19 15 30.5 22.5t25 18t34 28t58.5 52.5q22 21 38.5 34.5t30 24t26.5 18t28 16.5q32 17 59.5 42.5t60.5 50.5q17 13 34.5 26t32.5 23.5t25.5 17t13.5 6.5q11 6 20 10t15 4q5 0 5.5 -2t0.5 -6q0 -7 -8 -16t-19.5 -19.5t-24 -20.5t-20.5 -18q-14 -11 -28.5 -20t-30.5 -17
q-18 -18 -18 -34q0 -8 7.5 -13t15.5 -5q51 0 98 22t85 54q11 19 30.5 34.5t42.5 15.5q5 0 16 -1t11 -9q-6 -5 -15 -13.5t-19 -17.5t-17.5 -17.5t-10.5 -14.5q0 -19 18 -19q11 0 26 2t30 5.5t29 9t23 11.5h6z" />
    <glyph glyph-name="paragraph" unicode="&#xb6;" horiz-adv-x="1148" 
d="M873 581q-5 -2 -13 -4.5t-15.5 -5t-13 -4.5t-6.5 -2q-23 -9 -63.5 -29t-82.5 -61q-25 -20 -41 -34.5t-33 -37.5t-25 -38.5t-8 -38.5q0 -12 7 -21t17.5 -14.5t22 -8t20.5 -2.5q22 0 45.5 1.5t60.5 12.5q34 32 67 63.5t63 64.5l54 59q-12 0 -25.5 5t-24.5 11.5t-18.5 14.5
t-7.5 15q0 10 9 17.5t20 7.5q16 0 21 -6.5t6.5 -14t5 -13.5t17.5 -6q10 0 33 5q16 14 25 32t11 32l29 10q13 4 22 -6t0 -24q-11 -16 -22 -29q9 3 24 9.5t29 15.5t24 19t10 21q0 6 -5 10.5t-12.5 7.5t-15.5 5t-15 3q-24 3 -41 -1.5t-20 -4.5zM455 -157q0 1 10 11t23 22.5
t24.5 24t15.5 14.5q17 18 34 36.5t34 36.5q52 54 100 106t99 108q3 4 6 7l10 10t20.5 21t37.5 41q5 5 0.5 8.5t-9.5 1.5q-14 -6 -39.5 -13.5t-55.5 -15.5q-45 -46 -87.5 -90.5t-80.5 -82.5q-38 -42 -78 -82t-84 -72t-93.5 -51.5t-107.5 -19.5q-10 0 -31.5 1t-49 8t-58.5 23
t-60 47q-17 17 -17 48q0 3 2 9.5t5.5 12.5t9 8.5t12.5 -1.5q10 -5 8 -14t-4 -12q-3 -5 -3.5 -13.5t1.5 -13.5q7 -12 20.5 -25t30.5 -24.5t35 -19.5t34 -10q12 -3 27 -3.5t29 -0.5q16 0 31 2q23 0 52 13.5t60 34t61 45.5t55 47t41.5 39t21.5 22q33 38 71 78.5t79 80.5
q-31 -6 -56 -10t-38 -4q-45 0 -69.5 7.5t-35.5 18.5t-12.5 24t-1.5 25q0 27 24 63.5t58.5 72t73.5 66t68 46.5q42 23 80.5 39t75.5 26.5t74.5 17t79.5 12.5q30 5 52.5 2t27.5 -3q6 0 19 -1.5t26 -6.5t23 -13.5t10 -23.5q0 -17 -18 -33.5t-45.5 -31t-59.5 -26t-60 -19.5
l-1 -2q-12 -14 -20.5 -24t-15.5 -18.5t-15.5 -17.5t-20.5 -21q-23 -23 -48 -45.5t-51 -47.5q36 12 69 24t58 20q26 26 44 45t23 24q11 12 17 23t12 20t13.5 14.5t20.5 5.5q3 0 10.5 -0.5t14.5 -2t11.5 -3.5t3.5 -5q-2 -6 -14 -19.5t-27 -29.5t-29 -30.5t-21 -21.5
q-2 -2 -4.5 -5t-6.5 -7q11 -7 11 -15q0 -12 -12 -23t-28 -20.5t-31 -17.5t-21 -14q-5 -6 -13 -8q-24 -24 -37.5 -38t-21.5 -22l-13 -13t-11 -12q-27 -29 -50.5 -55.5t-52.5 -53.5q-21 -20 -39.5 -41.5t-41.5 -41.5q-32 -32 -63 -62t-62 -61q-7 -8 -13.5 -16t-14.5 -15
q-5 -6 -15 -11t-16 -4q-4 0 -11 5.5t-5 11.5z" />
    <glyph glyph-name="periodcentered" unicode="&#xb7;" horiz-adv-x="199" 
d="M165 135q0 -9 -6.5 -17.5t-16 -15.5t-20 -11t-18.5 -4t-16 12t-8 20t6 17.5t11 15.5q2 8 6.5 10t12.5 2q6 0 14.5 -1.5t16 -5t13 -9t5.5 -13.5z" />
    <glyph glyph-name="cedilla" unicode="&#xb8;" horiz-adv-x="367" 
d="M289 -198q0 -25 -14.5 -42.5t-36 -29.5t-46 -19.5t-43.5 -11.5q-10 -2 -15 -2q-19 0 -31.5 6.5t-12.5 28.5q0 12 21 16.5t46.5 10t46.5 16t21 34.5q0 12 -19 24.5t-44 23.5t-49.5 20t-34.5 14q6 4 13.5 4h14.5q17 0 33.5 -5.5t33.5 -10.5q15 -4 35 -8.5t38 -12.5
t30.5 -21.5t12.5 -34.5z" />
    <glyph glyph-name="uni00B9" unicode="&#xb9;" horiz-adv-x="188" 
d="M510 690q0 -16 -10 -27q-5 -5 -10 -7.5t-10 -7.5q-14 -12 -30 -33.5t-30 -34.5q-13 -12 -21 -19t-14.5 -13.5t-15 -14t-22.5 -20.5q-17 -14 -33 -30.5t-35 -25.5q-5 0 -12 4.5t-7 9.5q0 14 14.5 26.5t24.5 19.5q18 14 38 32t43 49q-20 -14 -42 -22.5t-36 -16.5
q-4 -5 -9 -8.5t-11 -4.5q-2 2 -8.5 5t-6.5 6q0 6 7 10.5t17 8t19 6.5t14 5q16 7 26 14t31 18q28 15 45.5 27t37.5 36q3 5 6.5 9.5t7.5 8.5q9 6 21 6q8 0 9.5 -4.5t1.5 -11.5z" />
    <glyph glyph-name="ordmasculine" unicode="&#xba;" horiz-adv-x="312" 
d="M341 272q0 6 -5.5 12t-13 11t-16 8.5t-13.5 3.5q-13 -6 -34.5 -21t-42 -34t-35.5 -39t-15 -35q0 -1 0.5 -1.5t0.5 -1.5q0 -7 6.5 -10t11.5 -3t11 1t11 3q24 7 42.5 13t33.5 14.5t27.5 22.5t25.5 38q3 5 4 8.5t1 9.5zM403 334q0 -11 -2.5 -24t-7 -26.5t-11 -25
t-15.5 -18.5q-25 -20 -42 -35.5t-34 -27.5t-37.5 -22.5t-53.5 -19.5q-12 -4 -23.5 -8t-24.5 -4q-19 0 -27.5 12.5t-8.5 29.5q0 13 8 27t17.5 26.5t17.5 21.5t8 12q-1 0 -1.5 0.5t-2.5 0.5q-5 0 -3 -1.5t-4 -1.5q-3 0 -7.5 3.5t-4.5 6.5t9 11t20 16.5t22 16t14 9.5q2 1 8 3.5
t12.5 4t12.5 3t9 1.5q14 8 33.5 14t36.5 6q9 0 17 -4t14 -10q10 7 20.5 11t22.5 4q5 0 6.5 -4t1.5 -8zM284 17q0 -7 -5 -11t-11 -4q-30 0 -60 5.5t-60 5.5q-29 0 -58.5 -6.5t-58.5 -6.5q-8 0 -18 1.5t-10 12.5q0 6 4 9t9 5q2 1 16 3t34 4.5t43 5.5t44 5t36.5 3.5t20.5 1.5
q7 0 19.5 -1.5t24.5 -5t21 -10.5t9 -17z" />
    <glyph glyph-name="guillemotright" unicode="&#xbb;" horiz-adv-x="499" 
d="M363 179q-2 -12 -15.5 -24t-24.5 -16q-61 -23 -112.5 -55.5t-99.5 -70.5q-2 -3 -5 -8.5t-8 -5.5q-4 0 -5 4.5t-2 6.5q6 9 18 22.5t24.5 28t23 27.5t14.5 21q7 5 24.5 14.5t35.5 20t32 20t15 13.5q2 10 -6 26.5t-18 35t-17.5 37.5t-2.5 33q2 7 10.5 17.5t17.5 8.5
q2 -1 5 -5.5t6.5 -10.5t6 -11.5t2.5 -7.5q3 -17 13.5 -27t23 -18.5t24 -19.5t17.5 -29q3 -7 4.5 -13t-1.5 -14zM560 160q0 -18 -20 -32.5t-47 -27t-53 -25t-37 -26.5q-7 -5 -15.5 -15.5t-13.5 -10.5t-7.5 5.5t-3.5 9.5q0 17 18 36t40.5 38t42.5 36t25 30q-3 19 -11.5 36
t-17.5 33.5t-15.5 33.5t-6.5 36q0 3 1.5 9t4 11.5t6 10t7.5 4.5q9 -1 16 -12t13 -25t11 -28t8 -21q9 -12 18 -24.5t17 -25t13.5 -26.5t6.5 -30z" />
    <glyph glyph-name="onequarter" unicode="&#xbc;" horiz-adv-x="1082" 
d="M1013 727q0 -1 -10.5 -11.5l-24 -24t-26.5 -25.5t-18 -16q-17 -18 -36 -37.5t-36 -39.5q-57 -57 -114.5 -112t-111.5 -114q-5 -6 -24 -25.5t-44.5 -45.5t-54.5 -55.5t-55 -55t-45 -45t-24 -25.5q-9 -9 -28 -32t-40 -47t-40 -43t-28 -19q-4 0 -5.5 3t-3.5 6q-3 0 -8 0.5
t-9 2.5t-6.5 4.5t-0.5 6.5q2 6 14.5 20.5t28 31t30 32t21.5 23.5t28 30t49 50t59.5 59t59.5 59l49.5 49.5t29.5 30.5q29 31 60 59t63 57q23 21 42.5 44.5t43.5 44.5q34 32 68 64.5t66 65.5q8 8 16.5 17t16.5 17q9 11 25 9q5 0 15 -3t8 -10zM1024 182q0 -5 -8 -7t-11 -4
q-8 -5 -16 -16t-16 -19q-11 -11 -22 -21.5t-20 -22.5q-11 -14 -19 -31t-19 -31q-10 -13 -20 -21.5t-17 -23.5q-5 -10 -14 -22.5t-22 -12.5q-8 11 -16.5 19.5t-8.5 22.5q0 10 7 17t15 13t15 13.5t7 18.5q0 8 -13.5 12t-19.5 4q-10 0 -26 4t-33 9t-34.5 9.5t-30.5 5.5
q-8 1 -21.5 1t-19.5 3q-7 4 -8 12t-1 15q0 6 0.5 10.5t8.5 4.5q15 0 29 -5t28 -5q15 0 37 16.5t47 42t51 55.5t49 57t41 46.5t28 24.5q4 0 7.5 -5.5t6.5 -13t5 -14.5t2 -10q0 -6 -7.5 -15t-18 -18t-20.5 -17l-15 -12q-17 -14 -30.5 -31t-26.5 -34t-27.5 -33t-33.5 -27
q-5 -3 -15.5 -11.5t-10.5 -13.5q0 -3 8 -6.5t17.5 -6.5t19 -5t12.5 -2q39 0 66 19t46.5 42t34 42t28.5 19q3 0 7.5 -5.5t8.5 -12t6.5 -13.5t2.5 -10zM706 734q0 -19 -11 -30q-5 -5 -10.5 -9t-11.5 -8q-19 -14 -40.5 -36.5t-42 -45.5t-38.5 -42t-29 -25q-20 -11 -34.5 -25.5
t-27 -31l-25 -33t-28.5 -30.5q-18 -16 -38.5 -28t-41.5 -23q-6 0 -11 5t-5 11q0 15 11.5 24.5t22.5 17.5q17 11 29.5 21t22.5 21.5t19 25t19 31.5q-33 -23 -67 -37t-69 -32q-4 -5 -9.5 -9t-12.5 -5q-2 2 -9 5.5t-7 6.5q0 6 8 11.5t18.5 9.5t21 7t15.5 5q41 20 78.5 46
t76.5 49q15 9 39.5 28t50.5 41.5t48.5 43.5t33.5 35q4 5 7.5 10.5t8.5 9.5t11 5.5t12 1.5q9 0 12 -7.5t3 -14.5z" />
    <glyph glyph-name="onehalf" unicode="&#xbd;" horiz-adv-x="1137" 
d="M755 51q0 4 -7 4q-40 0 -77 -20t-60 -53l3 -5q23 0 44.5 10.5t38.5 24.5q4 3 13.5 8t19.5 10.5t17.5 11t7.5 9.5zM1020 351q0 -36 -23 -78t-56 -82.5t-69.5 -76t-62.5 -58.5q8 -14 12 -28t13 -27l8 -4q8 0 15 4t14 9q11 17 28 29t30 28q4 6 10.5 17t14 22t15.5 19.5
t16 8.5q6 0 10.5 -4.5t4.5 -10.5q0 -7 -9.5 -21.5t-24.5 -32.5t-33.5 -37t-36 -34.5t-32.5 -25.5t-22 -10q-20 0 -29.5 6t-14.5 16t-7.5 22.5t-8.5 26.5q-15 -12 -34 -20q-23 -9 -37 -21t-28.5 -22.5t-32 -18t-47.5 -7.5q-11 0 -23.5 4.5t-12.5 18.5q0 23 20 45t48 39.5
t58 28t50 10.5q19 0 41 -10q14 10 25 24t23 26q22 21 46.5 46t45.5 53t34.5 58.5t13.5 63.5q0 17 -14 17q-12 0 -31 -8t-40.5 -21.5t-44 -30t-40.5 -34t-29.5 -33.5t-11.5 -28q0 -9 7.5 -13.5t15.5 -4.5q11 0 19 5.5t16 10.5q4 6 7.5 20t8 29t9.5 25.5t12 8.5q4 4 9 4
q8 0 10.5 -8.5t2.5 -14.5q0 -18 -8 -38t-21.5 -36.5t-31.5 -27.5t-37 -11q-25 0 -36 15t-11 38q0 20 10 40.5t25.5 38.5t34 32.5t35.5 22.5q8 3 15 6t14 7q12 7 25 15t26 15.5t26.5 12.5t28.5 5q25 0 36 -16t11 -39zM1013 712q0 -1 -10.5 -11.5l-24 -24t-26.5 -25.5t-18 -16
q-17 -18 -36 -37.5t-36 -39.5q-57 -57 -114.5 -112t-111.5 -114q-5 -6 -24 -25.5t-44.5 -45.5t-54.5 -55.5t-55 -55t-45 -45t-24 -25.5q-9 -9 -28 -32t-40 -47t-40 -43t-28 -19q-4 0 -5.5 3t-3.5 6q-3 0 -8 0.5t-9 2.5t-6.5 4.5t-0.5 6.5q2 6 14.5 20.5t28 31t30 32
t21.5 23.5t28 30t49 50t59.5 59t59.5 59t49.5 50t29.5 30q29 31 60 59t63 57q23 21 42.5 44.5t43.5 44.5q34 32 68 64.5t66 65.5q8 8 16.5 17t16.5 17q9 11 25 9q5 0 15 -3t8 -10zM703 708q0 -19 -11 -30q-5 -5 -10.5 -9t-11.5 -8q-19 -14 -40.5 -36.5t-42 -45.5t-38.5 -42
t-29 -25q-20 -11 -34.5 -25.5t-27 -31l-25 -33t-28.5 -30.5q-18 -16 -38.5 -28t-41.5 -23q-6 0 -11 5t-5 11q0 15 11.5 24.5t22.5 17.5q17 11 29.5 21t22.5 21.5t19 25t19 31.5q-33 -23 -67 -37t-69 -32q-4 -5 -9.5 -9t-12.5 -5q-2 2 -9 5.5t-7 6.5q0 6 8 11.5t18.5 9.5
t21 7t15.5 5q41 20 78.5 46t76.5 49q15 9 39.5 28t50.5 41.5t48.5 43.5t33.5 35q4 5 7.5 10.5t8.5 9.5t11 5.5t12 1.5q9 0 12 -7.5t3 -14.5z" />
    <glyph glyph-name="threequarters" unicode="&#xbe;" horiz-adv-x="1036" 
d="M977 717q0 -1 -10.5 -11.5l-24 -24t-26.5 -25.5t-18 -16q-17 -18 -36 -37.5t-36 -39.5q-57 -57 -114.5 -112t-111.5 -114q-5 -6 -24 -25.5t-44.5 -45.5t-54.5 -55.5t-55 -55t-45 -45t-24 -25.5q-9 -9 -28 -32t-40 -47t-40 -43t-28 -19q-4 0 -5.5 3t-3.5 6q-3 0 -8 0.5
t-9 2.5t-6.5 4.5t-0.5 6.5q2 6 14.5 20.5t28 31t30 32t21.5 23.5t28 30t49 50t59.5 59t59.5 59l49.5 49.5t29.5 30.5q29 31 60 59t63 57q23 21 42.5 44.5t43.5 44.5q34 32 68 64.5t66 65.5q8 8 16.5 17t16.5 17q9 11 25 9q5 0 15 -3t8 -10zM970 206q0 -5 -8 -7t-11 -4
q-8 -5 -16 -16t-16 -19q-11 -11 -22 -21.5t-20 -22.5q-11 -14 -19 -31t-19 -31q-10 -13 -20 -21.5t-17 -23.5q-5 -10 -14 -22.5t-22 -12.5q-8 11 -16.5 19.5t-8.5 22.5q0 10 7 17t15 13t15 13.5t7 18.5q0 8 -13.5 12t-19.5 4q-10 0 -26 4t-33 9t-34.5 9.5t-30.5 5.5
q-8 1 -21.5 1t-19.5 3q-7 4 -8 12t-1 15q0 6 0.5 10.5t8.5 4.5q15 0 29 -5t28 -5q15 0 37 16.5t47 42t51 55.5t49 57t41 46.5t28 24.5q4 0 7.5 -5.5t6.5 -13t5 -14.5t2 -10q0 -6 -7.5 -15t-18 -18t-20.5 -17l-15 -12q-17 -14 -30.5 -31t-26.5 -34t-27.5 -33t-33.5 -27
q-5 -3 -15.5 -11.5t-10.5 -13.5q0 -3 8 -6.5t17.5 -6.5t19 -5t12.5 -2q39 0 66 19t46.5 42t34 42t28.5 19q3 0 7.5 -5.5t8.5 -12t6.5 -13.5t2.5 -10zM578 769q0 -15 -10 -32t-24.5 -35t-32 -35t-32 -31.5t-24.5 -25t-10 -14.5q0 -12 5.5 -22.5t11.5 -20.5t11.5 -20.5
t5.5 -22.5q0 -24 -10 -48.5t-25.5 -47t-35 -42t-37.5 -33.5q-8 -5 -15.5 -8.5t-15.5 -8.5q-7 -5 -11 -10t-8.5 -8.5t-10 -6t-15.5 -2.5q-19 0 -31.5 4.5t-21.5 12.5t-16 20t-16 26q-6 11 -13 22t-7 24q0 5 2 14t9 9q22 0 31 -10t14.5 -22.5t12.5 -22.5t27 -10t46 17
t49.5 41.5t39.5 51.5t16 47q0 12 -6 26.5t-12 28.5t-10 26.5t-1 19.5q0 2 -1.5 5.5t-1.5 4.5q0 10 8 17.5t19 13t22 10.5t18 10q5 4 16.5 15t23 23.5t20.5 25t9 18.5q0 7 -5 13t-12 6q-13 0 -34 -6.5t-41.5 -16.5t-37.5 -23t-23 -25q-6 -14 -7.5 -30.5t-6 -31t-14.5 -24.5
t-34 -10q-5 0 -9 5t-7 11.5t-4.5 13t-1.5 10.5q0 11 8.5 27t20.5 32t25 29.5t22 19.5q26 17 52.5 30t55.5 25q7 3 13 7t14 4q10 0 21.5 -5.5t20.5 -14t15 -19.5t6 -21z" />
    <glyph glyph-name="questiondown" unicode="&#xbf;" horiz-adv-x="441" 
d="M444 586q0 11 6.5 24.5t19.5 13.5q5 0 11 -3.5t12.5 -7.5t13.5 -7.5t14 -3.5q25 0 27.5 -8t-9.5 -17.5t-34.5 -17.5t-46.5 -8q-5 0 -7.5 4.5t-4 10t-2 11.5t-0.5 9zM418 435h6.5t4.5 -3q2 -18 -3.5 -28t-11.5 -23q-4 -9 -6 -12.5t-4.5 -5.5t-5.5 -4.5t-9 -8.5
q-6 -5 -9.5 -10t-8.5 -10q-11 -8 -31.5 -16.5t-37.5 -11.5q-13 -2 -21 -4t-14.5 -4t-14.5 -4t-20 -4q-31 -5 -50 -17.5t-39 -28.5q-23 -26 -34 -60t-19 -69q-6 -24 -5.5 -44.5t4.5 -36t9.5 -27t9.5 -17.5q1 -2 6.5 -5t12.5 -6t12.5 -5t7.5 -1q13 2 29 9.5t31 17.5t27.5 21.5
t17.5 21.5q2 4 4 11t4.5 14t5.5 12.5t8 6.5q3 1 7.5 0t4.5 -6q2 -3 1.5 -9t-2.5 -12t-5 -12l-5 -10q-9 -17 -24 -35t-34.5 -33.5t-43.5 -27t-50 -16.5q-6 -2 -17 1t-22.5 7.5t-21 11t-11.5 12.5q-15 43 -19.5 80.5t1.5 71.5t21 66.5t38 65.5q10 15 27 27t38 22t43.5 17
t42.5 10q34 7 60 16t49 29q5 4 14 16.5t18.5 25t19 23t14.5 11.5z" />
    <glyph glyph-name="Agrave" unicode="&#xc0;" 
d="M853 901q3 -5 0 -8.5t-8 -3.5q-8 0 -22 7.5t-31.5 19.5t-35.5 26.5t-34 28.5t-28 25.5t-16 18.5q-5 8 -8.5 16.5t-6.5 16.5q0 5 7 12t13 7q16 0 31 -15.5t28.5 -36t26.5 -42t27 -33.5q1 -2 10.5 -8t19.5 -12.5t18.5 -12t8.5 -6.5zM390 19q-1 0 -1.5 0.5t-1.5 0.5
q-5 0 -6.5 -2.5t-3.5 -6.5q-10 -21 -31.5 -54t-43.5 -68t-39 -67t-17 -52q0 -12 6 -28t21 -16q7 0 21 18.5t27.5 42t24.5 46t14 30.5q12 38 20 77t10 79zM365 357q0 3 -1.5 9.5t-4.5 14t-6 13t-6 5.5q-17 0 -35.5 -9.5t-34 -24t-26 -32.5t-10.5 -35t11 -27.5t28 -10.5
q5 0 19 13t28.5 30t26 32.5t11.5 21.5zM399 276q0 9 -5 19t-16 10q-12 0 -20.5 -11t-8.5 -22q0 -10 6.5 -15t15.5 -5q11 0 19.5 6t8.5 18zM612 605q-8 -4 -22 -19t-31 -37.5t-36 -48t-36.5 -50t-33 -44.5t-25.5 -30l-5 -5t-3 -7q0 -8 1.5 -24t5.5 -31.5t11 -27.5t18 -12
q16 0 30.5 16.5t28 42.5t25.5 58t22 62l18.5 55.5t14.5 38.5t14 27.5t10 28.5zM749 786q0 -17 -10 -47t-26 -67t-36 -78t-38.5 -80t-34 -73t-23.5 -56q-1 -3 -4.5 -9.5l-7 -13t-6 -12.5t-2.5 -7q0 -10 9 -10q23 0 42 18.5t36 41t33.5 41t33.5 18.5q7 0 11 -5.5t4 -11.5
q0 -5 -3 -8q-27 -32 -41 -55t-28 -42t-36 -36t-66 -37q-9 -4 -18.5 -8t-17.5 -9q-3 -2 -13.5 -18t-22.5 -35.5t-22 -37t-12 -22.5q-8 -23 -11.5 -46t-5 -46.5t-3 -47.5t-5.5 -47q-5 -25 -16 -47.5t-20 -45.5q-20 -51 -43 -94.5t-60 -83.5q-5 -5 -16 -15.5t-24 -21.5
t-24.5 -19.5t-16.5 -8.5q-14 0 -17.5 12t-3.5 23q0 19 4.5 36.5t10.5 34.5q15 42 30 83.5t33 83.5q24 56 54.5 107.5t63.5 102.5q16 24 28 50.5t12 55.5q0 14 -8.5 26t-24.5 12q-17 0 -34.5 -3t-33.5 -9q-13 -5 -30.5 -21t-38 -37.5t-42.5 -45t-44 -43t-43.5 -32.5
t-40.5 -13q-10 0 -22.5 2.5t-12.5 16.5q0 9 24.5 29.5t56 43.5t61 45t39.5 35q2 2 7 8.5t5 9.5q0 12 -8 12.5t-16 0.5q-14 0 -19.5 7t-5.5 21q0 21 8 40l16 38q9 23 17.5 44t19.5 39.5t27.5 33t42.5 24.5l6 2t6 1q12 0 21 -9t17 -20.5t15.5 -20.5t16.5 -9q4 0 28 28.5
t58.5 71.5t75 93t76 93t62.5 71.5t34 28.5q10 0 11.5 -7t1.5 -14z" />
    <glyph glyph-name="Aacute" unicode="&#xc1;" 
d="M953 985q-5 -9 -21 -17.5t-35 -16.5t-37.5 -15t-28.5 -12q-36 -18 -71 -37.5t-75 -25.5q-11 0 -11 8q0 4 7 8.5t16 8t18 6.5t14 5q26 14 52.5 29t52.5 32q11 7 23 16t25 17.5t27 14.5t28 6q6 0 13.5 -1.5t7.5 -10.5q0 -7 -5 -15zM390 19q-1 0 -1.5 0.5t-1.5 0.5
q-5 0 -6.5 -2.5t-3.5 -6.5q-10 -21 -31.5 -54t-43.5 -68t-39 -67t-17 -52q0 -12 6 -28t21 -16q7 0 21 18.5t27.5 42t24.5 46t14 30.5q12 38 20 77t10 79zM365 357q0 3 -1.5 9.5t-4.5 14t-6 13t-6 5.5q-17 0 -35.5 -9.5t-34 -24t-26 -32.5t-10.5 -35t11 -27.5t28 -10.5
q5 0 19 13t28.5 30t26 32.5t11.5 21.5zM399 276q0 9 -5 19t-16 10q-12 0 -20.5 -11t-8.5 -22q0 -10 6.5 -15t15.5 -5q11 0 19.5 6t8.5 18zM612 605q-8 -4 -22 -19t-31 -37.5t-36 -48t-36.5 -50t-33 -44.5t-25.5 -30l-5 -5t-3 -7q0 -8 1.5 -24t5.5 -31.5t11 -27.5t18 -12
q16 0 30.5 16.5t28 42.5t25.5 58t22 62l18.5 55.5t14.5 38.5t14 27.5t10 28.5zM749 786q0 -17 -10 -47t-26 -67t-36 -78t-38.5 -80t-34 -73t-23.5 -56q-1 -3 -4.5 -9.5l-7 -13t-6 -12.5t-2.5 -7q0 -10 9 -10q23 0 42 18.5t36 41t33.5 41t33.5 18.5q7 0 11 -5.5t4 -11.5
q0 -5 -3 -8q-27 -32 -41 -55t-28 -42t-36 -36t-66 -37q-9 -4 -18.5 -8t-17.5 -9q-3 -2 -13.5 -18t-22.5 -35.5t-22 -37t-12 -22.5q-8 -23 -11.5 -46t-5 -46.5t-3 -47.5t-5.5 -47q-5 -25 -16 -47.5t-20 -45.5q-20 -51 -43 -94.5t-60 -83.5q-5 -5 -16 -15.5t-24 -21.5
t-24.5 -19.5t-16.5 -8.5q-14 0 -17.5 12t-3.5 23q0 19 4.5 36.5t10.5 34.5q15 42 30 83.5t33 83.5q24 56 54.5 107.5t63.5 102.5q16 24 28 50.5t12 55.5q0 14 -8.5 26t-24.5 12q-17 0 -34.5 -3t-33.5 -9q-13 -5 -30.5 -21t-38 -37.5t-42.5 -45t-44 -43t-43.5 -32.5
t-40.5 -13q-10 0 -22.5 2.5t-12.5 16.5q0 9 24.5 29.5t56 43.5t61 45t39.5 35q2 2 7 8.5t5 9.5q0 12 -8 12.5t-16 0.5q-14 0 -19.5 7t-5.5 21q0 21 8 40l16 38q9 23 17.5 44t19.5 39.5t27.5 33t42.5 24.5l6 2t6 1q12 0 21 -9t17 -20.5t15.5 -20.5t16.5 -9q4 0 28 28.5
t58.5 71.5t75 93t76 93t62.5 71.5t34 28.5q10 0 11.5 -7t1.5 -14z" />
    <glyph glyph-name="Acircumflex" unicode="&#xc2;" 
d="M390 19q-1 0 -1.5 0.5t-1.5 0.5q-5 0 -6.5 -2.5t-3.5 -6.5q-10 -21 -31.5 -54t-43.5 -68t-39 -67t-17 -52q0 -12 6 -28t21 -16q7 0 21 18.5t27.5 42t24.5 46t14 30.5q12 38 20 77t10 79zM365 357q0 3 -1.5 9.5t-4.5 14t-6 13t-6 5.5q-17 0 -35.5 -9.5t-34 -24t-26 -32.5
t-10.5 -35t11 -27.5t28 -10.5q5 0 19 13t28.5 30t26 32.5t11.5 21.5zM399 276q0 9 -5 19t-16 10q-12 0 -20.5 -11t-8.5 -22q0 -10 6.5 -15t15.5 -5q11 0 19.5 6t8.5 18zM612 605q-8 -4 -22 -19t-31 -37.5t-36 -48t-36.5 -50t-33 -44.5t-25.5 -30l-5 -5t-3 -7q0 -8 1.5 -24
t5.5 -31.5t11 -27.5t18 -12q16 0 30.5 16.5t28 42.5t25.5 58t22 62l18.5 55.5t14.5 38.5t14 27.5t10 28.5zM749 786q0 -17 -10 -47t-26 -67t-36 -78t-38.5 -80t-34 -73t-23.5 -56q-1 -3 -4.5 -9.5l-7 -13t-6 -12.5t-2.5 -7q0 -10 9 -10q23 0 42 18.5t36 41t33.5 41
t33.5 18.5q7 0 11 -5.5t4 -11.5q0 -5 -3 -8q-27 -32 -41 -55t-28 -42t-36 -36t-66 -37q-9 -4 -18.5 -8t-17.5 -9q-3 -2 -13.5 -18t-22.5 -35.5t-22 -37t-12 -22.5q-8 -23 -11.5 -46t-5 -46.5t-3 -47.5t-5.5 -47q-5 -25 -16 -47.5t-20 -45.5q-20 -51 -43 -94.5t-60 -83.5
q-5 -5 -16 -15.5t-24 -21.5t-24.5 -19.5t-16.5 -8.5q-14 0 -17.5 12t-3.5 23q0 19 4.5 36.5t10.5 34.5q15 42 30 83.5t33 83.5q24 56 54.5 107.5t63.5 102.5q16 24 28 50.5t12 55.5q0 14 -8.5 26t-24.5 12q-17 0 -34.5 -3t-33.5 -9q-13 -5 -30.5 -21t-38 -37.5t-42.5 -45
t-44 -43t-43.5 -32.5t-40.5 -13q-10 0 -22.5 2.5t-12.5 16.5q0 9 24.5 29.5t56 43.5t61 45t39.5 35q2 2 7 8.5t5 9.5q0 12 -8 12.5t-16 0.5q-14 0 -19.5 7t-5.5 21q0 21 8 40l16 38q9 23 17.5 44t19.5 39.5t27.5 33t42.5 24.5l6 2t6 1q12 0 21 -9t17 -20.5t15.5 -20.5
t16.5 -9q4 0 28 28.5t58.5 71.5t75 93t76 93t62.5 71.5t34 28.5q10 0 11.5 -7t1.5 -14zM850 849q-6 0 -8 10.5t-2 15.5q0 8 4.5 17t4.5 13q0 8 -4 14t-4 14t-2.5 18t-12.5 10q-9 0 -19 -5.5t-19.5 -12t-17.5 -12t-12 -5.5q-3 0 -7.5 4.5t-4.5 7.5q0 10 14 26t33 31t38 26
t29 11q12 0 20.5 -14t8.5 -25q0 -9 -1.5 -33t-5.5 -48.5t-12 -43.5t-20 -19z" />
    <glyph glyph-name="Atilde" unicode="&#xc3;" 
d="M996 962q0 -8 -2.5 -20.5t-9 -26.5t-17 -28t-26.5 -25q-11 -7 -23 -9.5t-25 -3.5q-36 -2 -53 15t-17 35q0 36 -21 63q-3 3 -8.5 7.5t-12.5 8.5t-13 6.5t-10 2.5q-18 0 -25.5 -4t-10.5 -10t-6 -13t-13 -12q-4 -2 -9.5 -3.5t-10.5 -1.5q-4 0 -7 3.5t-3 7.5q0 5 3 10t5 10
q7 13 18 21t23 12.5t24 6t21 1.5q34 0 54 -15.5t32 -35.5t20 -38t19 -22q8 -3 20.5 -4.5t21.5 4.5q16 11 22.5 21t9.5 32q-1 8 -7 15.5t-1 14.5q6 9 12.5 9.5t12.5 -4t9.5 -13t3.5 -17.5zM390 19q-1 0 -1.5 0.5t-1.5 0.5q-5 0 -6.5 -2.5t-3.5 -6.5q-10 -21 -31.5 -54
t-43.5 -68t-39 -67t-17 -52q0 -12 6 -28t21 -16q7 0 21 18.5t27.5 42t24.5 46t14 30.5q12 38 20 77t10 79zM365 357q0 3 -1.5 9.5t-4.5 14t-6 13t-6 5.5q-17 0 -35.5 -9.5t-34 -24t-26 -32.5t-10.5 -35t11 -27.5t28 -10.5q5 0 19 13t28.5 30t26 32.5t11.5 21.5zM399 276
q0 9 -5 19t-16 10q-12 0 -20.5 -11t-8.5 -22q0 -10 6.5 -15t15.5 -5q11 0 19.5 6t8.5 18zM612 605q-8 -4 -22 -19t-31 -37.5t-36 -48t-36.5 -50t-33 -44.5t-25.5 -30l-5 -5t-3 -7q0 -8 1.5 -24t5.5 -31.5t11 -27.5t18 -12q16 0 30.5 16.5t28 42.5t25.5 58t22 62l18.5 55.5
t14.5 38.5t14 27.5t10 28.5zM749 786q0 -17 -10 -47t-26 -67t-36 -78t-38.5 -80t-34 -73t-23.5 -56q-1 -3 -4.5 -9.5l-7 -13t-6 -12.5t-2.5 -7q0 -10 9 -10q23 0 42 18.5t36 41t33.5 41t33.5 18.5q7 0 11 -5.5t4 -11.5q0 -5 -3 -8q-27 -32 -41 -55t-28 -42t-36 -36t-66 -37
q-9 -4 -18.5 -8t-17.5 -9q-3 -2 -13.5 -18t-22.5 -35.5t-22 -37t-12 -22.5q-8 -23 -11.5 -46t-5 -46.5t-3 -47.5t-5.5 -47q-5 -25 -16 -47.5t-20 -45.5q-20 -51 -43 -94.5t-60 -83.5q-5 -5 -16 -15.5t-24 -21.5t-24.5 -19.5t-16.5 -8.5q-14 0 -17.5 12t-3.5 23
q0 19 4.5 36.5t10.5 34.5q15 42 30 83.5t33 83.5q24 56 54.5 107.5t63.5 102.5q16 24 28 50.5t12 55.5q0 14 -8.5 26t-24.5 12q-17 0 -34.5 -3t-33.5 -9q-13 -5 -30.5 -21t-38 -37.5t-42.5 -45t-44 -43t-43.5 -32.5t-40.5 -13q-10 0 -22.5 2.5t-12.5 16.5q0 9 24.5 29.5
t56 43.5t61 45t39.5 35q2 2 7 8.5t5 9.5q0 12 -8 12.5t-16 0.5q-14 0 -19.5 7t-5.5 21q0 21 8 40l16 38q9 23 17.5 44t19.5 39.5t27.5 33t42.5 24.5l6 2t6 1q12 0 21 -9t17 -20.5t15.5 -20.5t16.5 -9q4 0 28 28.5t58.5 71.5t75 93t76 93t62.5 71.5t34 28.5q10 0 11.5 -7
t1.5 -14z" />
    <glyph glyph-name="Adieresis" unicode="&#xc4;" 
d="M390 19q-1 0 -1.5 0.5t-1.5 0.5q-5 0 -6.5 -2.5t-3.5 -6.5q-10 -21 -31.5 -54t-43.5 -68t-39 -67t-17 -52q0 -12 6 -28t21 -16q7 0 21 18.5t27.5 42t24.5 46t14 30.5q12 38 20 77t10 79zM365 357q0 3 -1.5 9.5t-4.5 14t-6 13t-6 5.5q-17 0 -35.5 -9.5t-34 -24t-26 -32.5
t-10.5 -35t11 -27.5t28 -10.5q5 0 19 13t28.5 30t26 32.5t11.5 21.5zM399 276q0 9 -5 19t-16 10q-12 0 -20.5 -11t-8.5 -22q0 -10 6.5 -15t15.5 -5q11 0 19.5 6t8.5 18zM612 605q-8 -4 -22 -19t-31 -37.5t-36 -48t-36.5 -50t-33 -44.5t-25.5 -30l-5 -5t-3 -7q0 -8 1.5 -24
t5.5 -31.5t11 -27.5t18 -12q16 0 30.5 16.5t28 42.5t25.5 58t22 62l18.5 55.5t14.5 38.5t14 27.5t10 28.5zM749 786q0 -17 -10 -47t-26 -67t-36 -78t-38.5 -80t-34 -73t-23.5 -56q-1 -3 -4.5 -9.5l-7 -13t-6 -12.5t-2.5 -7q0 -10 9 -10q23 0 42 18.5t36 41t33.5 41
t33.5 18.5q7 0 11 -5.5t4 -11.5q0 -5 -3 -8q-27 -32 -41 -55t-28 -42t-36 -36t-66 -37q-9 -4 -18.5 -8t-17.5 -9q-3 -2 -13.5 -18t-22.5 -35.5t-22 -37t-12 -22.5q-8 -23 -11.5 -46t-5 -46.5t-3 -47.5t-5.5 -47q-5 -25 -16 -47.5t-20 -45.5q-20 -51 -43 -94.5t-60 -83.5
q-5 -5 -16 -15.5t-24 -21.5t-24.5 -19.5t-16.5 -8.5q-14 0 -17.5 12t-3.5 23q0 19 4.5 36.5t10.5 34.5q15 42 30 83.5t33 83.5q24 56 54.5 107.5t63.5 102.5q16 24 28 50.5t12 55.5q0 14 -8.5 26t-24.5 12q-17 0 -34.5 -3t-33.5 -9q-13 -5 -30.5 -21t-38 -37.5t-42.5 -45
t-44 -43t-43.5 -32.5t-40.5 -13q-10 0 -22.5 2.5t-12.5 16.5q0 9 24.5 29.5t56 43.5t61 45t39.5 35q2 2 7 8.5t5 9.5q0 12 -8 12.5t-16 0.5q-14 0 -19.5 7t-5.5 21q0 21 8 40l16 38q9 23 17.5 44t19.5 39.5t27.5 33t42.5 24.5l6 2t6 1q12 0 21 -9t17 -20.5t15.5 -20.5
t16.5 -9q4 0 28 28.5t58.5 71.5t75 93t76 93t62.5 71.5t34 28.5q10 0 11.5 -7t1.5 -14zM644 970q0 -5 -3 -11t-7.5 -12.5t-8.5 -12.5t-7 -10q-2 -9 -7 -11.5t-13 -2.5q-17 0 -30.5 10t-13.5 29q0 8 8 14q3 2 11.5 9t18.5 14t18 12.5t10 5.5q3 0 7.5 -4t8 -10t6 -11.5
t2.5 -8.5zM906 976q0 -12 -6.5 -19t-16 -10.5t-20 -5t-19.5 -1.5q-4 0 -9.5 6t-11 14.5t-9 16.5t-3.5 12q0 3 3.5 9t8 12.5t9.5 11.5t8 5t13.5 -7t22 -16t21 -17t9.5 -11z" />
    <glyph glyph-name="Aring" unicode="&#xc5;" 
d="M390 19q-1 0 -1.5 0.5t-1.5 0.5q-5 0 -6.5 -2.5t-3.5 -6.5q-10 -21 -31.5 -54t-43.5 -68t-39 -67t-17 -52q0 -12 6 -28t21 -16q7 0 21 18.5t27.5 42t24.5 46t14 30.5q12 38 20 77t10 79zM365 357q0 3 -1.5 9.5t-4.5 14t-6 13t-6 5.5q-17 0 -35.5 -9.5t-34 -24t-26 -32.5
t-10.5 -35t11 -27.5t28 -10.5q5 0 19 13t28.5 30t26 32.5t11.5 21.5zM399 276q0 9 -5 19t-16 10q-12 0 -20.5 -11t-8.5 -22q0 -10 6.5 -15t15.5 -5q11 0 19.5 6t8.5 18zM612 605q-8 -4 -22 -19t-31 -37.5t-36 -48t-36.5 -50t-33 -44.5t-25.5 -30l-5 -5t-3 -7q0 -8 1.5 -24
t5.5 -31.5t11 -27.5t18 -12q16 0 30.5 16.5t28 42.5t25.5 58t22 62l18.5 55.5t14.5 38.5t14 27.5t10 28.5zM749 786q0 -17 -10 -47t-26 -67t-36 -78t-38.5 -80t-34 -73t-23.5 -56q-1 -3 -4.5 -9.5l-7 -13t-6 -12.5t-2.5 -7q0 -10 9 -10q23 0 42 18.5t36 41t33.5 41
t33.5 18.5q7 0 11 -5.5t4 -11.5q0 -5 -3 -8q-27 -32 -41 -55t-28 -42t-36 -36t-66 -37q-9 -4 -18.5 -8t-17.5 -9q-3 -2 -13.5 -18t-22.5 -35.5t-22 -37t-12 -22.5q-8 -23 -11.5 -46t-5 -46.5t-3 -47.5t-5.5 -47q-5 -25 -16 -47.5t-20 -45.5q-20 -51 -43 -94.5t-60 -83.5
q-5 -5 -16 -15.5t-24 -21.5t-24.5 -19.5t-16.5 -8.5q-14 0 -17.5 12t-3.5 23q0 19 4.5 36.5t10.5 34.5q15 42 30 83.5t33 83.5q24 56 54.5 107.5t63.5 102.5q16 24 28 50.5t12 55.5q0 14 -8.5 26t-24.5 12q-17 0 -34.5 -3t-33.5 -9q-13 -5 -30.5 -21t-38 -37.5t-42.5 -45
t-44 -43t-43.5 -32.5t-40.5 -13q-10 0 -22.5 2.5t-12.5 16.5q0 9 24.5 29.5t56 43.5t61 45t39.5 35q2 2 7 8.5t5 9.5q0 12 -8 12.5t-16 0.5q-14 0 -19.5 7t-5.5 21q0 21 8 40l16 38q9 23 17.5 44t19.5 39.5t27.5 33t42.5 24.5l6 2t6 1q12 0 21 -9t17 -20.5t15.5 -20.5
t16.5 -9q4 0 28 28.5t58.5 71.5t75 93t76 93t62.5 71.5t34 28.5q10 0 11.5 -7t1.5 -14zM923 1059q0 -29 -16.5 -55t-41 -46t-54.5 -32t-57 -12q-26 0 -43.5 20.5t-17.5 45.5q0 18 9 34t23 29t31.5 20.5t34.5 7.5q2 0 5 -1t3 -4q0 -8 -10 -18.5t-21.5 -23t-21.5 -25.5
t-10 -25q0 -13 12.5 -21t23.5 -8q10 0 25 8.5t29.5 20.5t25.5 25t14 23t3 23q0 20 -11.5 26.5t-25 8.5t-24.5 3t-11 10q0 12 12 23t24 11q16 0 32 -3.5t29 -11.5t21 -21t8 -32z" />
    <glyph glyph-name="AE" unicode="&#xc6;" horiz-adv-x="996" 
d="M361 356q0 11 -7 23v5q0 6 -3.5 11.5t-9.5 5.5q-17 0 -36 -9.5t-35 -24.5t-26.5 -33t-10.5 -36q0 -17 12 -29t29 -12q6 0 20.5 13t29 30.5t26 33.5t11.5 22zM395 276q0 10 -5.5 20.5t-17.5 10.5q-14 0 -23 -11t-9 -24q0 -11 7.5 -17t17.5 -6q12 0 21 7t9 20zM605 606
q-5 -4 -21.5 -22.5t-38 -44.5t-45.5 -56t-43.5 -55.5t-32.5 -43.5t-13 -21q0 -8 1.5 -24.5t6 -32.5t12 -28t18.5 -12q17 0 31.5 17t27.5 43t24.5 58.5t21.5 63t18.5 56t15.5 38.5q8 14 15.5 26.5t10.5 28.5zM985 606q0 17 -11 27.5t-28 10.5t-44.5 -13t-57 -30.5t-55.5 -36
t-39 -29.5q15 -20 36.5 -39.5t47.5 -19.5q18 0 43.5 13.5t49.5 33t41 42t17 41.5zM1022 627q0 -15 -7 -28t-15 -25q-35 -54 -75 -85t-106 -39q-30 10 -55.5 19t-48.5 32q-14 -15 -25.5 -27t-11.5 -34q0 -51 5.5 -94.5t32.5 -88.5q2 -3 3.5 -5.5t1.5 -7.5q0 -10 -4 -17
t-15 -9q-9 5 -14.5 12.5t-13.5 13.5q-14 11 -39.5 15t-43.5 5q-53 -22 -86.5 -57.5t-62.5 -83.5q-3 -18 -3 -36q0 -17 2 -34t5 -34q14 -20 34 -37t46 -17q46 0 95 8.5t97.5 22.5t94.5 33.5t86 42.5q11 6 22 18t21.5 25t20.5 23.5t19 15.5l7 -6q-14 -37 -46.5 -68.5t-76 -58
t-94.5 -47t-101.5 -34.5t-98 -21.5t-83.5 -7.5q-29 0 -54 13t-36 42q-6 -30 -20 -56.5t-27 -53.5q-5 -11 -15 -34t-22.5 -50t-27.5 -56t-30 -53t-30 -39t-27 -15q-10 0 -12.5 6t-2.5 14q0 25 14 44.5t26 39.5q23 36 39 76.5t33 79.5q11 27 19.5 54.5l17 55t18.5 54.5t24 53
q14 25 27 51t13 56q0 15 -9.5 27.5t-25.5 12.5q-25 0 -46 -4.5t-41 -21.5q-18 -15 -46 -44.5t-59 -59t-61.5 -51.5t-52.5 -22q-9 0 -20.5 2t-11.5 15q0 12 14 25.5t35.5 28.5t46 30t46 30t35.5 29.5t14 27.5q0 8 -7.5 9.5t-16.5 3.5t-16.5 7t-7.5 20q0 13 6 34.5t17 46
t25 49t29.5 44t32 32t31.5 12.5q9 0 17 -9t16.5 -20t17 -20t18.5 -9q5 0 29 28.5t58.5 71t74.5 92.5t75 92.5t61.5 71t33.5 28.5q11 0 11 -11q0 -14 -11.5 -47t-30 -76t-40.5 -92t-43 -94t-38 -82t-25 -56l4 -13h12q22 0 38 14.5t30 28.5q4 41 19 79t43 69q-8 8 -13 18.5
t-5 21.5q0 12 9.5 21t21.5 9q8 0 15.5 -13.5t11.5 -19.5q17 15 42 36t53.5 40.5t56.5 33t51 13.5q12 0 26.5 -3t26.5 -9.5t20.5 -17t8.5 -25.5z" />
    <glyph glyph-name="Ccedilla" unicode="&#xc7;" horiz-adv-x="430" 
d="M471 571q0 3 -0.5 6.5t-5.5 3.5q-14 0 -30.5 -7.5t-32 -18.5t-28 -25t-17.5 -26t-9.5 -28.5t-4.5 -29.5q0 -16 14 -16q21 0 41.5 15t36.5 36.5t26 46t10 43.5zM500 592q0 -24 -14.5 -57t-37 -63t-50.5 -51.5t-54 -21.5q-17 0 -24 10t-7 26q0 19 5.5 38.5t11.5 37.5
q-39 -21 -78.5 -42t-76.5 -47q-35 -24 -64 -55t-59 -60q-18 -18 -35.5 -39t-31 -45t-22 -50t-8.5 -52q0 -29 3.5 -58t20.5 -54q4 -6 12 -14.5t17.5 -16t19 -12.5t17.5 -5q4 0 7.5 0.5t7.5 0.5q0 11 6.5 22.5t18.5 11.5q11 0 15 -9.5t7 -17.5q41 8 76 29t67 47q21 17 38 36.5
t33 40.5t31.5 42.5t32.5 41.5q2 3 6 7t8 4q6 0 9.5 -9.5t3.5 -14.5q0 -13 -9 -30t-21.5 -34t-25.5 -32.5t-21 -25.5q-39 -48 -93 -81t-113 -51q18 -7 45 -12.5t52.5 -14.5t44 -23.5t18.5 -40.5t-14.5 -43t-36 -28.5t-46 -18.5t-43.5 -12q-5 -2 -8 -2h-8q-18 0 -30.5 6.5
t-12.5 27.5q0 13 21 17.5t46.5 10t46.5 15.5t21 34q0 12 -18.5 23t-42.5 20.5t-48 17.5t-35 13q-17 -3 -32 -3q-6 0 -21.5 4.5t-32.5 11t-32 13t-20 10.5q-22 17 -33 46t-11 55q0 33 8 69.5t23 72t35.5 67t45.5 53.5q48 42 93.5 86t101.5 76q17 9 35 16t36 13.5t35.5 13.5
t34.5 17q3 6 12 21t20 30.5t21 28t15 12.5q3 0 4.5 -3t1.5 -5q0 -3 -4.5 -11t-10.5 -17.5t-12 -18t-8 -12.5q8 6 19 14t23 15.5t23.5 13t22.5 5.5q14 0 20 -9.5t6 -21.5z" />
    <glyph glyph-name="Egrave" unicode="&#xc8;" horiz-adv-x="668" 
d="M712 766q3 -5 0 -8.5t-8 -3.5q-8 0 -22 7.5t-31.5 19.5t-35.5 26.5t-34 28.5t-28 25.5t-16 18.5q-5 8 -8.5 16.5t-6.5 16.5q0 5 7 12t13 7q16 0 31 -15.5t28.5 -36t26.5 -42t27 -33.5q1 -2 10.5 -8t19.5 -12.5t18.5 -12t8.5 -6.5zM645 608q0 17 -10.5 26t-26.5 9
q-14 0 -41.5 -13t-57.5 -30.5t-56.5 -35.5t-38.5 -28q14 -18 36 -37t46 -19q17 0 42.5 13t49 32.5t40.5 42t17 40.5zM687 629q0 -16 -7.5 -29t-15.5 -26q-35 -56 -76 -87t-108 -39q-17 6 -30 9.5t-25 8t-24 12t-25 20.5q-9 -11 -17.5 -22.5t-16.5 -24.5q6 -30 6.5 -52.5
t2 -43.5t7 -43.5t21.5 -52.5q4 -7 4.5 -10.5t0.5 -11.5t-6.5 -14t-14.5 -7l-6 2q-13 13 -24 21.5t-22.5 13t-25.5 6.5t-33 3q-28 -12 -48.5 -26t-37.5 -31t-32 -37.5t-30 -45.5q-3 -18 -3 -35t2 -34t5 -34q14 -19 33 -36t45 -17q49 0 97 10.5t96 21.5q24 5 47 14.5t45 20.5
l44 22t45 19q4 4 16.5 17.5t26 28t25.5 25.5t16 11q10 0 10 -9q-17 -37 -50.5 -69.5t-77 -59t-93 -47.5t-100 -35t-98 -21.5t-85.5 -7.5q-29 0 -48.5 11t-32.5 29t-18.5 41.5t-5.5 48.5q0 22 2.5 44t10.5 43q12 34 37.5 67t58.5 58.5t71 40.5t76 13q-9 27 -9 55q0 20 4.5 43
t13 45t19.5 42t25 35q-11 11 -20.5 31t-16 43t-10.5 45t-4 38q0 6 5 13.5t12 7.5t17 -4l62 -133q16 15 41.5 35.5t54 40t57 33t50.5 13.5q13 0 27.5 -3t27.5 -10t21.5 -17.5t8.5 -26.5z" />
    <glyph glyph-name="Eacute" unicode="&#xc9;" horiz-adv-x="668" 
d="M645 608q0 17 -10.5 26t-26.5 9q-14 0 -41.5 -13t-57.5 -30.5t-56.5 -35.5t-38.5 -28q14 -18 36 -37t46 -19q17 0 42.5 13t49 32.5t40.5 42t17 40.5zM687 629q0 -16 -7.5 -29t-15.5 -26q-35 -56 -76 -87t-108 -39q-17 6 -30 9.5t-25 8t-24 12t-25 20.5
q-9 -11 -17.5 -22.5t-16.5 -24.5q6 -30 6.5 -52.5t2 -43.5t7 -43.5t21.5 -52.5q4 -7 4.5 -10.5t0.5 -11.5t-6.5 -14t-14.5 -7l-6 2q-13 13 -24 21.5t-22.5 13t-25.5 6.5t-33 3q-28 -12 -48.5 -26t-37.5 -31t-32 -37.5t-30 -45.5q-3 -18 -3 -35t2 -34t5 -34q14 -19 33 -36
t45 -17q49 0 97 10.5t96 21.5q24 5 47 14.5t45 20.5l44 22t45 19q4 4 16.5 17.5t26 28t25.5 25.5t16 11q10 0 10 -9q-17 -37 -50.5 -69.5t-77 -59t-93 -47.5t-100 -35t-98 -21.5t-85.5 -7.5q-29 0 -48.5 11t-32.5 29t-18.5 41.5t-5.5 48.5q0 22 2.5 44t10.5 43
q12 34 37.5 67t58.5 58.5t71 40.5t76 13q-9 27 -9 55q0 20 4.5 43t13 45t19.5 42t25 35q-11 11 -20.5 31t-16 43t-10.5 45t-4 38q0 6 5 13.5t12 7.5t17 -4l62 -133q16 15 41.5 35.5t54 40t57 33t50.5 13.5q13 0 27.5 -3t27.5 -10t21.5 -17.5t8.5 -26.5zM709 959
q0 -6 -3.5 -14.5t-8.5 -16.5t-10.5 -15.5t-10.5 -10.5q-15 -11 -30.5 -20.5t-29.5 -22.5q-3 -3 -12.5 -12t-20 -18.5t-19.5 -17t-11 -7.5q-1 0 -1.5 0.5t-1.5 0.5q-5 0 -9.5 -2.5t-9.5 -2.5t-8.5 4t-3.5 9q0 3 4 7q7 6 14 11t14 11q14 14 27 28.5t27 29.5q9 10 17 23.5
t17 26t20.5 21t27.5 8.5q7 0 14.5 -6.5t7.5 -13.5z" />
    <glyph glyph-name="Ecircumflex" unicode="&#xca;" horiz-adv-x="668" 
d="M645 608q0 17 -10.5 26t-26.5 9q-14 0 -41.5 -13t-57.5 -30.5t-56.5 -35.5t-38.5 -28q14 -18 36 -37t46 -19q17 0 42.5 13t49 32.5t40.5 42t17 40.5zM687 629q0 -16 -7.5 -29t-15.5 -26q-35 -56 -76 -87t-108 -39q-17 6 -30 9.5t-25 8t-24 12t-25 20.5
q-9 -11 -17.5 -22.5t-16.5 -24.5q6 -30 6.5 -52.5t2 -43.5t7 -43.5t21.5 -52.5q4 -7 4.5 -10.5t0.5 -11.5t-6.5 -14t-14.5 -7l-6 2q-13 13 -24 21.5t-22.5 13t-25.5 6.5t-33 3q-28 -12 -48.5 -26t-37.5 -31t-32 -37.5t-30 -45.5q-3 -18 -3 -35t2 -34t5 -34q14 -19 33 -36
t45 -17q49 0 97 10.5t96 21.5q24 5 47 14.5t45 20.5l44 22t45 19q4 4 16.5 17.5t26 28t25.5 25.5t16 11q10 0 10 -9q-17 -37 -50.5 -69.5t-77 -59t-93 -47.5t-100 -35t-98 -21.5t-85.5 -7.5q-29 0 -48.5 11t-32.5 29t-18.5 41.5t-5.5 48.5q0 22 2.5 44t10.5 43
q12 34 37.5 67t58.5 58.5t71 40.5t76 13q-9 27 -9 55q0 20 4.5 43t13 45t19.5 42t25 35q-11 11 -20.5 31t-16 43t-10.5 45t-4 38q0 6 5 13.5t12 7.5t17 -4l62 -133q16 15 41.5 35.5t54 40t57 33t50.5 13.5q13 0 27.5 -3t27.5 -10t21.5 -17.5t8.5 -26.5zM786 894
q0 -9 -1.5 -32t-5.5 -47t-11.5 -43t-20.5 -19q-6 0 -8.5 10.5t-2.5 15.5q0 8 4.5 15t4.5 15t-3.5 14t-3.5 14t-3 18t-13 10q-9 0 -25 -7.5t-33 -17t-31 -17t-19 -7.5q-2 0 -7 4.5t-5 6.5q0 4 21.5 22t48.5 37t52 34.5t32 15.5q14 0 22 -15t8 -27z" />
    <glyph glyph-name="Edieresis" unicode="&#xcb;" horiz-adv-x="668" 
d="M795 769q0 -4 -5 -7.5t-11 -6.5q-7 -4 -16 -7q-10 0 -18 4.5t-14 10.5t-9 12t-3 9q0 15 7.5 33t25.5 18q12 0 20 -7t13 -17t7.5 -21.5t2.5 -20.5zM622 783q0 -1 -6 -5t-13.5 -8.5t-14 -8t-8.5 -3.5q-6 0 -13.5 4.5t-13.5 11.5t-10.5 14.5t-4.5 13.5q0 7 6 12t14.5 8
t17.5 4t14 1q8 0 17 1t14 -7t6 -17.5t-5 -20.5zM645 608q0 17 -10.5 26t-26.5 9q-14 0 -41.5 -13t-57.5 -30.5t-56.5 -35.5t-38.5 -28q14 -18 36 -37t46 -19q17 0 42.5 13t49 32.5t40.5 42t17 40.5zM687 629q0 -16 -7.5 -29t-15.5 -26q-35 -56 -76 -87t-108 -39
q-17 6 -30 9.5t-25 8t-24 12t-25 20.5q-9 -11 -17.5 -22.5t-16.5 -24.5q6 -30 6.5 -52.5t2 -43.5t7 -43.5t21.5 -52.5q4 -7 4.5 -10.5t0.5 -11.5t-6.5 -14t-14.5 -7l-6 2q-13 13 -24 21.5t-22.5 13t-25.5 6.5t-33 3q-28 -12 -48.5 -26t-37.5 -31t-32 -37.5t-30 -45.5
q-3 -18 -3 -35t2 -34t5 -34q14 -19 33 -36t45 -17q49 0 97 10.5t96 21.5q24 5 47 14.5t45 20.5l44 22t45 19q4 4 16.5 17.5t26 28t25.5 25.5t16 11q10 0 10 -9q-17 -37 -50.5 -69.5t-77 -59t-93 -47.5t-100 -35t-98 -21.5t-85.5 -7.5q-29 0 -48.5 11t-32.5 29t-18.5 41.5
t-5.5 48.5q0 22 2.5 44t10.5 43q12 34 37.5 67t58.5 58.5t71 40.5t76 13q-9 27 -9 55q0 20 4.5 43t13 45t19.5 42t25 35q-11 11 -20.5 31t-16 43t-10.5 45t-4 38q0 6 5 13.5t12 7.5t17 -4l62 -133q16 15 41.5 35.5t54 40t57 33t50.5 13.5q13 0 27.5 -3t27.5 -10t21.5 -17.5
t8.5 -26.5z" />
    <glyph glyph-name="Igrave" unicode="&#xcc;" horiz-adv-x="670" 
d="M788 725q3 -5 0 -8.5t-8 -3.5q-8 0 -22 7.5t-31.5 19.5t-35.5 26.5t-34 28.5t-27.5 25.5t-16.5 18.5q-5 8 -8.5 16.5t-6.5 16.5q0 5 7 12t13 7q16 0 31 -15.5t28.5 -36t26.5 -42t27 -33.5q1 -2 10.5 -8t19.5 -12.5t18.5 -12t8.5 -6.5zM1066 644q0 -5 -3 -9.5t-7 -7.5
q-27 -24 -76.5 -45.5t-105.5 -38t-110 -26t-90 -9.5q-14 0 -27 1t-26 5q-29 -52 -57.5 -104t-66.5 -99q-11 -13 -22 -24.5t-21 -24.5q-13 -17 -22 -35t-20 -35q-22 -38 -46 -74t-51 -70q49 -15 107.5 -39t109.5 -59t85 -82t34 -108q0 -14 -4 -29.5t-22 -15.5q-6 0 -9.5 8
t-5.5 13q-27 64 -57 110t-69.5 76.5t-92 47t-122.5 21.5q-4 -5 -12 -16.5t-17.5 -23t-19 -20t-15.5 -8.5q-5 0 -9 4l-4 11q2 14 6.5 27.5t9.5 27.5h-9h-25t-33 -0.5t-32 -1.5t-23 -4q-5 -2 -13.5 -6t-18 -8t-17.5 -7.5t-11 -3.5q-7 0 -9.5 6t-2.5 11q0 11 14 21.5t36 19
t49 15t52 11.5t45.5 7t30.5 2q45 81 102.5 152t117.5 141q23 26 41 54t37 57q11 16 22.5 31.5t19.5 32.5q-33 10 -66 24t-66.5 26t-67.5 20.5t-70 8.5q-19 0 -30.5 -9t-17.5 -23t-7.5 -30t-1.5 -31q0 -41 19.5 -54.5t57.5 -13.5q15 0 29 4t28 9.5t28 9.5t29 4q8 0 10 -7
t2 -12q0 -7 -18.5 -19t-42.5 -24t-46.5 -20.5t-30.5 -8.5q-23 0 -44.5 13t-38 33t-26.5 44t-10 46q0 47 17.5 74t59.5 48q11 5 21.5 9.5t22.5 4.5q25 0 50.5 -6t50.5 -15t49.5 -19.5t48.5 -18.5q23 -8 47 -12t48 -9q3 6 9 17t13.5 22t15 19.5t14.5 8.5t9.5 -6.5t2.5 -11.5
q0 -3 -2.5 -11t-6.5 -16t-7.5 -16t-5.5 -11q25 -3 50 -3q85 0 164.5 26t152.5 66q7 2 14.5 5.5t14.5 3.5t10 -6.5t3 -11.5z" />
    <glyph glyph-name="Iacute" unicode="&#xcd;" horiz-adv-x="670" 
d="M911 845q-5 -9 -21 -17.5t-35 -16.5t-37.5 -15t-28.5 -12q-36 -18 -71 -37.5t-75 -25.5q-11 0 -11 8q0 4 7 8.5t16 8t18 6.5t14 5q26 14 52.5 29t52.5 32q11 7 23 16t25 17.5t27 14.5t28 6q6 0 13.5 -1.5t7.5 -10.5q0 -7 -5 -15zM1066 644q0 -5 -3 -9.5t-7 -7.5
q-27 -24 -76.5 -45.5t-105.5 -38t-110 -26t-90 -9.5q-14 0 -27 1t-26 5q-29 -52 -57.5 -104t-66.5 -99q-11 -13 -22 -24.5t-21 -24.5q-13 -17 -22 -35t-20 -35q-22 -38 -46 -74t-51 -70q49 -15 107.5 -39t109.5 -59t85 -82t34 -108q0 -14 -4 -29.5t-22 -15.5q-6 0 -9.5 8
t-5.5 13q-27 64 -57 110t-69.5 76.5t-92 47t-122.5 21.5q-4 -5 -12 -16.5t-17.5 -23t-19 -20t-15.5 -8.5q-5 0 -9 4l-4 11q2 14 6.5 27.5t9.5 27.5h-9h-25t-33 -0.5t-32 -1.5t-23 -4q-5 -2 -13.5 -6t-18 -8t-17.5 -7.5t-11 -3.5q-7 0 -9.5 6t-2.5 11q0 11 14 21.5t36 19
t49 15t52 11.5t45.5 7t30.5 2q45 81 102.5 152t117.5 141q23 26 41 54t37 57q11 16 22.5 31.5t19.5 32.5q-33 10 -66 24t-66.5 26t-67.5 20.5t-70 8.5q-19 0 -30.5 -9t-17.5 -23t-7.5 -30t-1.5 -31q0 -41 19.5 -54.5t57.5 -13.5q15 0 29 4t28 9.5t28 9.5t29 4q8 0 10 -7
t2 -12q0 -7 -18.5 -19t-42.5 -24t-46.5 -20.5t-30.5 -8.5q-23 0 -44.5 13t-38 33t-26.5 44t-10 46q0 47 17.5 74t59.5 48q11 5 21.5 9.5t22.5 4.5q25 0 50.5 -6t50.5 -15t49.5 -19.5t48.5 -18.5q23 -8 47 -12t48 -9q3 6 9 17t13.5 22t15 19.5t14.5 8.5t9.5 -6.5t2.5 -11.5
q0 -3 -2.5 -11t-6.5 -16t-7.5 -16t-5.5 -11q25 -3 50 -3q85 0 164.5 26t152.5 66q7 2 14.5 5.5t14.5 3.5t10 -6.5t3 -11.5z" />
    <glyph glyph-name="Icircumflex" unicode="&#xce;" horiz-adv-x="670" 
d="M1066 644q0 -5 -3 -9.5t-7 -7.5q-27 -24 -76.5 -45.5t-105.5 -38t-110 -26t-90 -9.5q-14 0 -27 1t-26 5q-29 -52 -57.5 -104t-66.5 -99q-11 -13 -22 -24.5t-21 -24.5q-13 -17 -22 -35t-20 -35q-22 -38 -46 -74t-51 -70q49 -15 107.5 -39t109.5 -59t85 -82t34 -108
q0 -14 -4 -29.5t-22 -15.5q-6 0 -9.5 8t-5.5 13q-27 64 -57 110t-69.5 76.5t-92 47t-122.5 21.5q-4 -5 -12 -16.5t-17.5 -23t-19 -20t-15.5 -8.5q-5 0 -9 4l-4 11q2 14 6.5 27.5t9.5 27.5h-9h-25t-33 -0.5t-32 -1.5t-23 -4q-5 -2 -13.5 -6t-18 -8t-17.5 -7.5t-11 -3.5
q-7 0 -9.5 6t-2.5 11q0 11 14 21.5t36 19t49 15t52 11.5t45.5 7t30.5 2q45 81 102.5 152t117.5 141q23 26 41 54t37 57q11 16 22.5 31.5t19.5 32.5q-33 10 -66 24t-66.5 26t-67.5 20.5t-70 8.5q-19 0 -30.5 -9t-17.5 -23t-7.5 -30t-1.5 -31q0 -41 19.5 -54.5t57.5 -13.5
q15 0 29 4t28 9.5t28 9.5t29 4q8 0 10 -7t2 -12q0 -7 -18.5 -19t-42.5 -24t-46.5 -20.5t-30.5 -8.5q-23 0 -44.5 13t-38 33t-26.5 44t-10 46q0 47 17.5 74t59.5 48q11 5 21.5 9.5t22.5 4.5q25 0 50.5 -6t50.5 -15t49.5 -19.5t48.5 -18.5q23 -8 47 -12t48 -9q3 6 9 17
t13.5 22t15 19.5t14.5 8.5t9.5 -6.5t2.5 -11.5q0 -3 -2.5 -11t-6.5 -16t-7.5 -16t-5.5 -11q25 -3 50 -3q85 0 164.5 26t152.5 66q7 2 14.5 5.5t14.5 3.5t10 -6.5t3 -11.5zM814 847q0 -9 -1.5 -32t-5.5 -47t-11.5 -43t-20.5 -19q-6 0 -8.5 10.5t-2.5 15.5q0 8 4.5 15t4.5 15
t-3.5 14t-3.5 14t-3 18t-13 10q-9 0 -25 -7.5t-33 -17t-31 -17t-19 -7.5q-2 0 -7 4.5t-5 6.5q0 4 21.5 22t48.5 37t52 34.5t32 15.5q14 0 22 -15t8 -27z" />
    <glyph glyph-name="Idieresis" unicode="&#xcf;" horiz-adv-x="670" 
d="M1066 644q0 -5 -3 -9.5t-7 -7.5q-27 -24 -76.5 -45.5t-105.5 -38t-110 -26t-90 -9.5q-14 0 -27 1t-26 5q-29 -52 -57.5 -104t-66.5 -99q-11 -13 -22 -24.5t-21 -24.5q-13 -17 -22 -35t-20 -35q-22 -38 -46 -74t-51 -70q49 -15 107.5 -39t109.5 -59t85 -82t34 -108
q0 -14 -4 -29.5t-22 -15.5q-6 0 -9.5 8t-5.5 13q-27 64 -57 110t-69.5 76.5t-92 47t-122.5 21.5q-4 -5 -12 -16.5t-17.5 -23t-19 -20t-15.5 -8.5q-5 0 -9 4l-4 11q2 14 6.5 27.5t9.5 27.5h-9h-25t-33 -0.5t-32 -1.5t-23 -4q-5 -2 -13.5 -6t-18 -8t-17.5 -7.5t-11 -3.5
q-7 0 -9.5 6t-2.5 11q0 11 14 21.5t36 19t49 15t52 11.5t45.5 7t30.5 2q45 81 102.5 152t117.5 141q23 26 41 54t37 57q11 16 22.5 31.5t19.5 32.5q-33 10 -66 24t-66.5 26t-67.5 20.5t-70 8.5q-19 0 -30.5 -9t-17.5 -23t-7.5 -30t-1.5 -31q0 -41 19.5 -54.5t57.5 -13.5
q15 0 29 4t28 9.5t28 9.5t29 4q8 0 10 -7t2 -12q0 -7 -18.5 -19t-42.5 -24t-46.5 -20.5t-30.5 -8.5q-23 0 -44.5 13t-38 33t-26.5 44t-10 46q0 47 17.5 74t59.5 48q11 5 21.5 9.5t22.5 4.5q25 0 50.5 -6t50.5 -15t49.5 -19.5t48.5 -18.5q23 -8 47 -12t48 -9q3 6 9 17
t13.5 22t15 19.5t14.5 8.5t9.5 -6.5t2.5 -11.5q0 -3 -2.5 -11t-6.5 -16t-7.5 -16t-5.5 -11q25 -3 50 -3q85 0 164.5 26t152.5 66q7 2 14.5 5.5t14.5 3.5t10 -6.5t3 -11.5zM637 817q0 -13 -10.5 -24t-15.5 -22l-5 -10t-10 -4h-9q-18 0 -29 12.5t-11 29.5q0 2 9 10t21 17
t22.5 16.5t13.5 7.5t7 -4t8 -9.5t6.5 -11t2.5 -8.5zM922 811q0 -12 -6.5 -19t-16 -10.5t-20 -5t-19.5 -1.5q-4 0 -9.5 6t-11 14.5t-9 16.5t-3.5 12q0 3 3.5 9t8 12.5t9.5 11.5t8 5t13.5 -7t22 -16t21 -17t9.5 -11z" />
    <glyph glyph-name="Eth" unicode="&#xd0;" horiz-adv-x="1004" 
d="M357 51q-11 4 -23 8.5t-24 4.5q-25 0 -55.5 -1.5t-59.5 -8.5t-54.5 -20t-40.5 -37q-4 -6 -9.5 -18t-5.5 -20q0 -11 10 -15.5t19 -4.5q43 0 74.5 8.5t58 23.5t52.5 35.5t58 44.5zM952 409q0 26 -1.5 41.5t-6 27.5t-14.5 24.5t-26 31.5q-10 11 -20 22.5t-22 20.5
q-6 4 -27 8.5t-46 7.5t-47.5 5t-32.5 2q-39 0 -78 -2.5t-76 -12t-70.5 -28t-60.5 -49.5q-21 -24 -34 -45.5t-13 -55.5q0 -35 16.5 -58.5t42.5 -37.5t57 -19.5t60 -5.5q19 20 42 34.5t43 33.5q26 25 51 52.5t45 57.5q6 9 12 21t13 22.5t16.5 18t22.5 7.5q16 0 16 -14
q0 -5 -1 -9t-3 -9q5 3 12.5 7t14.5 4q18 0 24.5 -15.5t6.5 -29.5q0 -51 -20 -84.5t-52 -55.5t-72.5 -35.5t-81.5 -23.5q-17 -5 -34 -11t-35 -9q-10 -11 -18.5 -22.5t-17.5 -22.5q9 0 34.5 -4t53 -10.5t49 -14.5t21.5 -16t-6 -12t-13 -4q-45 0 -88 4t-87 9
q-17 -23 -34.5 -45.5t-36.5 -44.5q36 -17 73 -34t79 -17q24 0 49.5 9t49.5 23t46.5 29.5t42.5 29.5q22 15 46 27.5t42 32.5q12 13 20 29t16 31q19 34 30.5 51.5t17.5 33t8 36.5t2 63zM834 460q0 4 -4 10q-3 0 -5.5 0.5t-5.5 0.5q-7 0 -10 -1.5t-8 -6.5q-13 -12 -24 -26
t-23 -28q-25 -28 -52.5 -53t-58.5 -46q25 9 58.5 21t62.5 29.5t49.5 42t20.5 57.5zM995 422q0 -68 -19.5 -127t-54 -109.5t-82.5 -91.5t-105 -73q-16 -9 -35.5 -19t-40 -18.5t-41 -14t-39.5 -5.5q-23 0 -46.5 7.5t-46.5 18.5t-45.5 23t-42.5 21q-44 -33 -72.5 -58t-56.5 -42
t-64.5 -25.5t-97.5 -8.5q-26 0 -44.5 19.5t-18.5 44.5q0 31 22 58.5t53.5 47.5t67.5 31.5t63 11.5q38 0 74.5 -6.5t70.5 -22.5q22 36 50 68q-21 -4 -42 -7t-42 -3q-11 0 -23 2.5t-12 16.5q0 15 16 20q6 2 24.5 4.5t41 4.5t44 4t31.5 4l42 50q-36 6 -62.5 9.5t-46 13.5
t-35 30t-29.5 59q-5 13 -8 26t-3 27q0 32 15 61t35 53q15 18 36.5 34.5t46 29t50 21.5t48.5 14q25 5 50.5 5.5t50.5 4.5q21 3 42 8t43 5q39 0 81 -20.5t77 -53.5t57.5 -73.5t22.5 -79.5z" />
    <glyph glyph-name="Ntilde" unicode="&#xd1;" horiz-adv-x="746" 
d="M375 -71q0 1 -1.5 4.5t-1.5 4.5l-6 2q-6 -2 -11.5 -11.5t-10.5 -21.5t-8.5 -23.5t-4.5 -17.5l2 -1q5 1 12 9.5t14 19t11.5 20.5t4.5 15zM582 489q0 13 -13 13q-9 0 -15.5 -8.5t-11.5 -20.5t-9.5 -23.5t-10.5 -17.5q-5 -5 -9 -10.5t-4 -13.5q0 -4 2.5 -10t7.5 -6t10 8.5
t7 12.5q7 11 12 22.5t13 21.5q5 7 13 15t8 17zM1494 565q0 -15 -8.5 -34.5t-22 -37t-30 -29.5t-32.5 -12q-11 0 -11 10q0 15 12 24.5t27 18.5t27 20t12 29q0 16 -10.5 25.5t-25.5 15t-31 7.5t-28 2q-77 0 -159 -22.5t-164 -60.5t-161.5 -89t-152 -108t-135.5 -116.5
t-112 -115.5q-15 -17 -24.5 -27.5t-15.5 -21t-10 -24.5t-8 -36q-2 -11 -4 -23t-5 -23q-3 -12 -14 -34.5t-25.5 -44.5t-31 -38.5t-29.5 -16.5t-20.5 10.5t-7.5 22.5q0 30 9.5 55t23.5 48t30.5 45t30.5 46.5t23.5 52.5t9.5 62q0 20 -0.5 39t-5.5 39q-11 -9 -39.5 -35t-66 -60
t-79 -70.5t-77 -67.5t-61 -51t-30.5 -20t-11 4q-6 9 -6 19q0 16 14.5 24t25.5 15q15 9 44.5 32.5t65.5 54t74.5 65.5t72 67.5t58 59t31.5 39.5q8 14 10 24t5 26q13 68 46 118.5t84 96.5q11 10 22.5 18t26.5 8q14 0 24 -9t10 -23q0 -16 -11 -37.5t-28 -46t-37.5 -51
t-40.5 -51.5t-36.5 -47.5t-24.5 -38.5q-10 -19 -14 -39.5t-5 -42t0 -43t1 -41.5q21 12 36 30.5t31 36.5q40 47 85.5 89t93.5 80q71 56 148 100t157 84q44 22 83.5 39.5t80 29.5t83 18.5t92.5 6.5q18 0 42.5 -1.5t46 -8t37 -20.5t15.5 -39zM1055 765q0 -27 -18.5 -52.5
t-45.5 -44.5t-57.5 -30.5t-54.5 -11.5q-23 0 -36 11.5t-22 25.5t-17 25.5t-20 11.5q-13 0 -21 -6t-13 -13.5t-8.5 -13.5t-8.5 -6q-4 0 -5.5 3t-1.5 6q0 21 18.5 36t38.5 15q21 0 33.5 -11.5t24 -25t23.5 -24.5t31 -11q16 0 32.5 11.5t31.5 28t26 34.5t17 32q4 9 9 19t17 10
q9 0 18 -4t9 -15z" />
    <glyph glyph-name="Ograve" unicode="&#xd2;" horiz-adv-x="769" 
d="M797 679q3 -5 0 -8.5t-8 -3.5q-8 0 -22 7.5t-31.5 19.5t-35.5 26.5t-34 28.5t-27.5 25.5t-16.5 18.5q-5 8 -8.5 16.5t-6.5 16.5q0 5 7 12t13 7q16 0 31 -15.5t28.5 -36t26.5 -42t27 -33.5q1 -2 10.5 -8t19.5 -12.5t18.5 -12t8.5 -6.5zM552 347q0 17 -10 26.5t-25 15
t-31 7.5t-28 4l-7 -2q-27 -8 -48 -9.5t-40.5 -4.5t-38.5 -11.5t-43 -29.5q-20 -18 -36 -41t-30 -46q35 -14 71.5 -19t73.5 -5q30 0 63.5 3.5t62 15.5t47.5 34.5t19 61.5zM851 436q0 -64 -28 -134t-74.5 -137t-108.5 -127t-130.5 -105.5t-138.5 -72.5t-134 -27q-86 0 -130 41
t-44 129q0 32 5.5 66t16 66.5t26.5 62.5t38 54q-12 9 -25 26t-23.5 37t-17 40.5t-6.5 35.5q0 10 4 18.5t16 8.5q6 0 8 -6.5t4 -10.5q6 -19 11.5 -35t12 -30t16.5 -27.5t25 -27.5q23 26 46 49t48.5 42t54 33.5t63.5 23.5q15 11 33 14t36 3q6 0 9 -1q21 -4 44 -9.5t42.5 -16
t32.5 -27t13 -43.5q0 -19 -3.5 -32.5t-10.5 -24.5t-16.5 -21t-22.5 -22q-22 -21 -40 -35t-37.5 -23t-42 -12.5t-53.5 -3.5q-44 0 -89.5 12.5t-83.5 34.5q-33 -55 -52 -116.5t-19 -125.5q0 -38 16 -62.5t58 -24.5q48 0 96.5 4t93.5 23q59 24 107.5 51t89 61.5t73.5 78.5
t60 103q25 54 45.5 113.5t20.5 119.5q0 17 -7.5 33t-20.5 29t-29 20.5t-33 7.5q-12 0 -37 -1t-51 -3.5t-49 -6.5t-32 -10q-3 -2 -9.5 -7.5t-13.5 -11.5t-13.5 -11t-8.5 -5q-9 0 -11 13t-2 19q0 10 13.5 18.5t34 15t45.5 11t48.5 7.5t42.5 4.5t28 1.5q34 0 65 -6.5t54.5 -22
t37 -41.5t13.5 -65z" />
    <glyph glyph-name="Oacute" unicode="&#xd3;" horiz-adv-x="769" 
d="M936 762q-5 -9 -21 -17.5t-35 -16.5t-37.5 -15t-28.5 -12q-36 -18 -71 -37.5t-75 -25.5q-11 0 -11 8q0 4 7 8.5t16 8t18 6.5t14 5q26 14 52.5 29t52.5 32q11 7 23 16t25 17.5t27 14.5t28 6q6 0 13.5 -1.5t7.5 -10.5q0 -7 -5 -15zM786 447q0 19 -8.5 35.5t-22 28.5t-31 19
t-35.5 7q-24 0 -49.5 -1.5t-48 -4.5t-40 -7t-24.5 -8q-3 -2 -9.5 -8t-13.5 -12t-13 -10.5t-9 -4.5q-9 0 -11 13t-2 19q0 10 13 18.5t34.5 14.5t48 10.5t53.5 7.5t52 4.5t43 1.5q62 0 100 -34t38 -100q0 -65 -27.5 -135.5t-74.5 -138t-108.5 -128t-129.5 -106t-138 -71.5
t-134 -24q-53 1 -87 12.5t-53.5 32.5t-27.5 52.5t-8 72.5q0 66 21.5 131t64.5 116q22 27 49 55t57.5 52.5t63 43.5t67.5 28q7 7 15 7t11 -6t3 -12q0 -9 -5 -15t-12.5 -10t-16 -6t-15.5 -3q-23 -5 -45.5 -20.5t-40.5 -32.5q-10 -9 -21.5 -21t-23 -25.5t-23 -26.5t-20.5 -24
q-21 -25 -34 -55.5t-20 -63.5t-9.5 -67.5t-2.5 -67.5q0 -12 6 -27t19 -28.5t31.5 -22.5t44.5 -9q61 0 96.5 7.5t66.5 19.5q115 44 196 113t134 181q26 54 46 113.5t20 119.5z" />
    <glyph glyph-name="Ocircumflex" unicode="&#xd4;" horiz-adv-x="769" 
d="M552 347q0 17 -10 26.5t-25 15t-31 7.5t-28 4l-7 -2q-27 -8 -48 -9.5t-40.5 -4.5t-38.5 -11.5t-43 -29.5q-20 -18 -36 -41t-30 -46q35 -14 71.5 -19t73.5 -5q30 0 63.5 3.5t62 15.5t47.5 34.5t19 61.5zM851 436q0 -64 -28 -134t-74.5 -137t-108.5 -127t-130.5 -105.5
t-138.5 -72.5t-134 -27q-86 0 -130 41t-44 129q0 32 5.5 66t16 66.5t26.5 62.5t38 54q-12 9 -25 26t-23.5 37t-17 40.5t-6.5 35.5q0 10 4 18.5t16 8.5q6 0 8 -6.5t4 -10.5q6 -19 11.5 -35t12 -30t16.5 -27.5t25 -27.5q23 26 46 49t48.5 42t54 33.5t63.5 23.5q15 11 33 14
t36 3q6 0 9 -1q21 -4 44 -9.5t42.5 -16t32.5 -27t13 -43.5q0 -19 -3.5 -32.5t-10.5 -24.5t-16.5 -21t-22.5 -22q-22 -21 -40 -35t-37.5 -23t-42 -12.5t-53.5 -3.5q-44 0 -89.5 12.5t-83.5 34.5q-33 -55 -52 -116.5t-19 -125.5q0 -38 16 -62.5t58 -24.5q48 0 96.5 4t93.5 23
q59 24 107.5 51t89 61.5t73.5 78.5t60 103q25 54 45.5 113.5t20.5 119.5q0 17 -7.5 33t-20.5 29t-29 20.5t-33 7.5q-12 0 -37 -1t-51 -3.5t-49 -6.5t-32 -10q-3 -2 -9.5 -7.5t-13.5 -11.5t-13.5 -11t-8.5 -5q-9 0 -11 13t-2 19q0 10 13.5 18.5t34 15t45.5 11t48.5 7.5
t42.5 4.5t28 1.5q34 0 65 -6.5t54.5 -22t37 -41.5t13.5 -65zM827 817q0 -9 -1.5 -32t-5.5 -47t-11.5 -43t-20.5 -19q-6 0 -8.5 10.5t-2.5 15.5q0 8 4.5 15t4.5 15t-3.5 14t-3.5 14t-3 18t-13 10q-9 0 -27 -9.5t-36.5 -21t-34 -21t-19.5 -9.5q-2 0 -7 4.5t-5 6.5
q0 4 10.5 14.5t27 23.5t36 28t38 27t32.5 20t19 8q14 0 22 -15t8 -27z" />
    <glyph glyph-name="Otilde" unicode="&#xd5;" horiz-adv-x="769" 
d="M914 800q0 -27 -13.5 -52.5t-36.5 -45.5t-52.5 -31.5t-60.5 -9.5q-22 1 -36.5 13t-25 26t-19.5 25.5t-20 11.5q-17 0 -25.5 -9t-13.5 -20t-9 -20t-10 -9q-5 0 -7 5t-2 9q0 13 5 26t14 23.5t21 17t26 6.5q32 0 51.5 -10t34 -22.5t26 -22.5t28.5 -10q24 0 37 9t24 40
q5 14 8 26.5t4 26.5q0 10 6 18.5t20 8.5t20 -9t6 -21zM552 347q0 17 -10 26.5t-25 15t-31 7.5t-28 4l-7 -2q-27 -8 -48 -9.5t-40.5 -4.5t-38.5 -11.5t-43 -29.5q-20 -18 -36 -41t-30 -46q35 -14 71.5 -19t73.5 -5q30 0 63.5 3.5t62 15.5t47.5 34.5t19 61.5zM851 436
q0 -64 -28 -134t-74.5 -137t-108.5 -127t-130.5 -105.5t-138.5 -72.5t-134 -27q-86 0 -130 41t-44 129q0 32 5.5 66t16 66.5t26.5 62.5t38 54q-12 9 -25 26t-23.5 37t-17 40.5t-6.5 35.5q0 10 4 18.5t16 8.5q6 0 8 -6.5t4 -10.5q6 -19 11.5 -35t12 -30t16.5 -27.5t25 -27.5
q23 26 46 49t48.5 42t54 33.5t63.5 23.5q15 11 33 14t36 3q6 0 9 -1q21 -4 44 -9.5t42.5 -16t32.5 -27t13 -43.5q0 -19 -3.5 -32.5t-10.5 -24.5t-16.5 -21t-22.5 -22q-22 -21 -40 -35t-37.5 -23t-42 -12.5t-53.5 -3.5q-44 0 -89.5 12.5t-83.5 34.5q-33 -55 -52 -116.5
t-19 -125.5q0 -38 16 -62.5t58 -24.5q48 0 96.5 4t93.5 23q59 24 107.5 51t89 61.5t73.5 78.5t60 103q25 54 45.5 113.5t20.5 119.5q0 17 -7.5 33t-20.5 29t-29 20.5t-33 7.5q-12 0 -37 -1t-51 -3.5t-49 -6.5t-32 -10q-3 -2 -9.5 -7.5t-13.5 -11.5t-13.5 -11t-8.5 -5
q-9 0 -11 13t-2 19q0 10 13.5 18.5t34 15t45.5 11t48.5 7.5t42.5 4.5t28 1.5q34 0 65 -6.5t54.5 -22t37 -41.5t13.5 -65z" />
    <glyph glyph-name="Odieresis" unicode="&#xd6;" horiz-adv-x="769" 
d="M552 347q0 17 -10 26.5t-25 15t-31 7.5t-28 4l-7 -2q-27 -8 -48 -9.5t-40.5 -4.5t-38.5 -11.5t-43 -29.5q-20 -18 -36 -41t-30 -46q35 -14 71.5 -19t73.5 -5q30 0 63.5 3.5t62 15.5t47.5 34.5t19 61.5zM851 436q0 -64 -28 -134t-74.5 -137t-108.5 -127t-130.5 -105.5
t-138.5 -72.5t-134 -27q-86 0 -130 41t-44 129q0 32 5.5 66t16 66.5t26.5 62.5t38 54q-12 9 -25 26t-23.5 37t-17 40.5t-6.5 35.5q0 10 4 18.5t16 8.5q6 0 8 -6.5t4 -10.5q6 -19 11.5 -35t12 -30t16.5 -27.5t25 -27.5q23 26 46 49t48.5 42t54 33.5t63.5 23.5q15 11 33 14
t36 3q6 0 9 -1q21 -4 44 -9.5t42.5 -16t32.5 -27t13 -43.5q0 -19 -3.5 -32.5t-10.5 -24.5t-16.5 -21t-22.5 -22q-22 -21 -40 -35t-37.5 -23t-42 -12.5t-53.5 -3.5q-44 0 -89.5 12.5t-83.5 34.5q-33 -55 -52 -116.5t-19 -125.5q0 -38 16 -62.5t58 -24.5q48 0 96.5 4t93.5 23
q59 24 107.5 51t89 61.5t73.5 78.5t60 103q25 54 45.5 113.5t20.5 119.5q0 17 -7.5 33t-20.5 29t-29 20.5t-33 7.5q-12 0 -37 -1t-51 -3.5t-49 -6.5t-32 -10q-3 -2 -9.5 -7.5t-13.5 -11.5t-13.5 -11t-8.5 -5q-9 0 -11 13t-2 19q0 10 13.5 18.5t34 15t45.5 11t48.5 7.5
t42.5 4.5t28 1.5q34 0 65 -6.5t54.5 -22t37 -41.5t13.5 -65zM437 733q0 -5 -3 -11t-7.5 -12.5t-8.5 -12.5t-7 -10q-2 -9 -7 -11.5t-13 -2.5q-17 0 -30.5 10t-13.5 29q0 8 8 14q3 2 11.5 9t18.5 14t18 12.5t10 5.5q3 0 7.5 -4t8 -10t6 -11.5t2.5 -8.5zM829 793
q0 -12 -6.5 -19t-16 -10.5t-20 -5t-19.5 -1.5q-3 0 -9 6t-11 14.5t-9 16.5t-4 12q0 3 3.5 9t8 12.5t9.5 11.5t8 5t13.5 -7t22 -16t21 -17.5t9.5 -10.5z" />
    <glyph glyph-name="multiply" unicode="&#xd7;" horiz-adv-x="411" 
d="M366 321q-1 -6 -15 -20.5t-31.5 -31t-33.5 -31t-22 -19.5q7 -7 18 -19t20.5 -25t16 -25t5.5 -18q-1 -8 -9.5 -16t-16.5 -8q-5 0 -13 11.5t-17.5 26t-18.5 28.5t-14 20q-13 -12 -27.5 -26.5t-29.5 -28t-31 -22.5t-32 -9q-8 0 -13.5 5.5t-3.5 16.5q0 7 8 12
q11 11 24.5 15.5t26.5 12.5q16 9 31.5 20.5t29.5 25.5q-6 4 -19.5 15.5t-27 25t-23.5 26.5t-9 22q1 6 6 10.5t10 4.5q4 0 16 -11t26 -24.5t27 -26.5t18 -17q6 6 22.5 22t35 32.5t34.5 29t22 12.5q5 0 8.5 -4.5t1.5 -11.5z" />
    <glyph glyph-name="Oslash" unicode="&#xd8;" horiz-adv-x="769" 
d="M786 447q0 20 -9.5 37.5t-24.5 29.5q-9 8 -16.5 5t-14.5 -11q-9 -12 -17.5 -24t-17.5 -24q-54 -67 -109 -131.5t-106 -132.5q-5 -7 -23 -29.5t-42.5 -52t-51.5 -62.5t-51.5 -62.5t-42 -51.5t-22.5 -29q-5 -5 -2 -10.5t6 -5.5q54 1 86.5 8.5t61.5 18.5q115 44 196 113
t134 181q26 54 46 113.5t20 119.5zM833 639q0 -2 -7 -10.5t-17.5 -20.5t-22 -24.5t-19.5 -21.5q38 -13 61 -44t23 -82q0 -65 -27.5 -135.5t-74.5 -138t-108.5 -128t-129.5 -106t-138 -71.5t-134 -24q-22 2 -36 3t-26 -17q-20 -31 -41.5 -56.5t-34.5 -25.5q-4 0 -9.5 2.5
t-9.5 6t-6 8.5t1 10q2 7 14.5 25t28.5 38q8 11 9.5 18.5t-6.5 12.5q-35 20 -47.5 56t-12.5 89q0 66 21.5 131t64.5 116q22 27 49 55t57 53t63 44t68 27q17 4 22.5 -4.5t5.5 -14.5q0 -9 -5 -14t-12 -7t-15.5 -3t-15.5 -2q-23 -5 -45.5 -20.5t-40.5 -32.5q-10 -9 -21.5 -21
t-23 -25.5t-23 -26.5t-20.5 -24q-21 -25 -34 -55.5t-20 -63.5t-9.5 -67.5t-2.5 -67.5q0 -13 7 -29t21 -30q15 -15 24.5 -10t18.5 17q16 20 38 47t46 56t48.5 58t45 54t36 44t21.5 27q26 36 57 68.5t63 65.5q23 25 41 52.5t42 51.5q14 17 28 32t28 32q11 13 8.5 17t-10.5 4
q-24 0 -49.5 -1.5t-48 -4.5t-40 -7t-24.5 -8q-8 -5 -18 -9t-19 -5t-15 1.5t-6 9.5q0 10 13 18.5t34.5 14.5t48 10.5t53.5 7.5t52 4.5t43 1.5q6 0 12 -0.5t11 -1.5l30 36q8 9 14.5 19.5t14.5 19.5q11 12 30 11q7 0 7.5 -3.5t0.5 -11.5z" />
    <glyph glyph-name="Ugrave" unicode="&#xd9;" horiz-adv-x="682" 
d="M603 463q0 -9 -8 -9q-7 0 -17.5 11t-22.5 28t-24.5 37.5t-23.5 40.5t-18.5 36t-9.5 25t-2 18v18q2 4 8.5 7.5t12.5 3.5q16 0 25 -19.5t15.5 -46t11.5 -53t13 -40.5q1 -3 7.5 -11.5t14 -18t13.5 -18t5 -9.5zM253 209h-1q-9 -17 -35 -43.5t-54.5 -58.5t-50.5 -67.5
t-22 -71.5q0 -10 7 -15.5t15 -8t15.5 -3t9.5 -0.5q27 0 63 15.5t76 41t80.5 57t76.5 63t64 61t43 49.5q6 8 13 23.5t16 31t19 27t21 11.5t15.5 -7t6.5 -16q0 -10 -10.5 -26t-26.5 -37t-35.5 -46t-36.5 -53q-27 -44 -47.5 -94.5t-30.5 -98.5l1 -7.5t4 -15.5t9.5 -15t18.5 -7
q27 0 52 12t48.5 29.5t43.5 37.5t37 35l9 -4q-2 -9 -16 -24.5t-34.5 -33.5t-45 -36t-47.5 -33t-42 -24.5t-29 -9.5q-29 0 -46 17t-17 38q0 22 6.5 47t17.5 52t24 54.5t27 53.5q-23 -20 -65.5 -57.5t-95 -75.5t-111 -66t-115.5 -28q-16 0 -25 11t-13.5 24.5t-5.5 26t-1 14.5
q0 9 2 19.5t9 35.5q20 37 35 58.5t24 30.5q18 19 31 37t30 35q12 12 30 29.5t30 33.5q19 25 40 48.5t39.5 49t32 55t16.5 65.5q0 23 -19.5 38.5t-40.5 15.5q-12 0 -41.5 -2t-60.5 -11t-56.5 -28.5t-28.5 -53.5q0 -19 14 -31.5t30 -12.5q12 0 16 6t8 12.5t12 12.5t27 6
q4 0 7.5 -4.5t3.5 -7.5q0 -22 -8.5 -37.5t-20 -25t-24.5 -13.5t-22 -4q-14 0 -28.5 6.5t-26.5 17.5t-19.5 25t-7.5 29q0 42 23.5 70.5t57 45.5t72 24.5t68.5 7.5q18 0 38 -3t37 -10.5t28 -22t11 -36.5q0 -48 -32 -105.5t-88 -117.5z" />
    <glyph glyph-name="Uacute" unicode="&#xda;" horiz-adv-x="654" 
d="M880 474q-5 -9 -21 -17.5t-35 -16.5t-37.5 -15t-28.5 -12q-36 -18 -71 -37.5t-75 -25.5q-11 0 -11 8q0 4 7 8.5t16 8t18 6.5t14 5q26 14 52.5 29t52.5 32q11 7 23 16t25 17.5t27 14.5t28 6q6 0 13.5 -1.5t7.5 -10.5q0 -7 -5 -15zM71 122q16 -13 25.5 -9.5t21.5 15.5
q21 23 47 44q27 24 50.5 43t46.5 37t46.5 37t49.5 43q21 18 39 33t35 29t34.5 29.5t37.5 34.5q21 20 40 36t32.5 33t21.5 37t8 49q0 23 -14 30.5t-36 7.5q-59 0 -100.5 -14t-85.5 -35q-24 -12 -44 -23.5t-39 -23.5t-38.5 -25t-41.5 -29q-27 -18 -43.5 -35t-42.5 -37
q-26 -21 -46.5 -41t-35 -43t-22.5 -49.5t-8 -59.5q0 -14 2.5 -29.5t10.5 -26.5q11 -19 19 -32t30 -26zM67 11q0 38 17 70q-28 4 -51 23q-27 21 -39.5 55.5t-12.5 72.5q0 68 26 116t78 93q19 17 34 30t30 25t31 24.5t37 28.5q19 14 35.5 25.5t34 21t35.5 19t40 20.5
q27 13 49.5 24.5t45 19t47 12t54.5 4.5h27q5 0 13.5 -1.5t11.5 -1.5q35 0 46 -19.5t11 -54.5q0 -23 -9 -45t-23.5 -43t-32 -40t-34.5 -34q-26 -25 -47 -44t-41.5 -37t-42.5 -36.5t-50 -41.5q-29 -24 -56 -44t-51.5 -38.5t-46.5 -37.5t-42 -40q-14 -15 -26 -28t-21 -27
t-14 -30.5t-5 -38.5q0 -14 15.5 -20.5t30.5 -6.5q26 0 48 6t46 17q20 8 34 15t25.5 15t24 17t29.5 22q29 23 49 41t43 44q7 7 16.5 17.5t19 22l19 23t16.5 20.5q8 14 21.5 22t21.5 8q9 0 15.5 -5.5t6.5 -14.5q0 -14 -8.5 -22.5l-19.5 -19.5q-9 -9 -21 -20.5t-25 -23.5
t-25 -24t-21 -22q-14 -17 -26.5 -29.5t-12.5 -34.5q0 -20 16 -34t42 -14q21 0 49 4.5t48 15.5q10 5 17 9.5t11 4.5q7 0 7 -5q0 -3 -15 -14.5t-33 -22.5q-23 -14 -49.5 -26t-52.5 -12q-16 0 -29.5 6t-24 16t-17 21.5t-9.5 22.5q-2 5 -6 2q-12 -6 -21 -11t-17 -10
q-19 -11 -38.5 -20.5t-33.5 -20.5q-11 -8 -28.5 -16t-33.5 -14q-14 -5 -28.5 -11.5t-36.5 -6.5q-21 0 -39.5 3.5t-29.5 11.5q-16 12 -22 31.5t-6 40.5z" />
    <glyph glyph-name="Ucircumflex" unicode="&#xdb;" horiz-adv-x="789" 
d="M827 433q-15 0 -29 6t-14 20q0 7 -3 13t-3 13t-2.5 17t-10.5 10t-24.5 -9.5t-34 -21.5t-32 -21.5t-18.5 -9.5q-3 0 -7 3.5t-4 6.5q0 4 21 23t47.5 40.5t50.5 38.5t30 17q10 0 17 -13.5t7 -23.5q0 -9 5.5 -27t9.5 -36.5t4 -32t-10 -13.5zM83 531q-17 14 -23.5 33t-6.5 45
q0 42 15.5 68t46.5 50q25 20 48.5 32.5t47.5 20t50.5 10.5t58.5 3q45 0 85 -9t74 -35q25 -20 37 -39t19 -49q6 -29 10 -48.5t4 -47.5q0 -13 -2 -24.5t-4 -23.5q-5 -34 -9.5 -58.5t-12.5 -46t-20.5 -44.5t-31.5 -54q-27 -42 -58 -71.5t-63 -66.5q-14 -17 -28 -32.5t-25 -31.5
t-18 -33.5t-7 -37.5q0 -9 6 -16t15 -12t20 -7.5t20 -2.5q31 0 56.5 9t48 23.5t43.5 33t42 37.5q11 9 17.5 21t13 23t14 18.5t21.5 7.5t13.5 -9t-0.5 -23q0 -15 -11 -22.5t-22 -17.5q-15 -15 -23.5 -28t-8.5 -35q0 -10 6 -22t15.5 -22t20.5 -16.5t21 -6.5q25 0 42 3t37 10
q13 5 20.5 10.5t15.5 13.5q6 7 8.5 13.5t5.5 6.5t4 -0.5t4 -4.5v-8t-7 -12q-8 -11 -19 -21t-22 -17q-15 -9 -26 -15t-22 -9t-23.5 -4t-28.5 -1q-25 0 -43 8t-30 22q-4 5 -7 12t-6.5 14t-8 11.5t-10.5 4.5q-20 0 -38 -9.5t-36 -21.5t-37.5 -21.5t-42.5 -9.5q-45 0 -76 19
t-31 57q0 54 31 96.5t77 88.5q11 11 23.5 25t20.5 27q9 13 15.5 21t17.5 19q19 19 32.5 35.5t23 34.5t16 38.5t11.5 46.5q4 20 9.5 31t5.5 32q0 10 1.5 22.5t1.5 23.5v43q-4 11 -5.5 19.5t-3.5 16.5t-5 15.5t-9 16.5q-18 29 -40 38.5t-55 18.5q-32 9 -55.5 12t-53.5 3
q-26 0 -47 -3.5t-49 -17.5q-19 -9 -38.5 -19t-33.5 -23q-15 -14 -20 -33.5t-5 -42.5q0 -38 22.5 -60.5t54.5 -26.5q8 -5 6.5 -8t-6.5 -8q-5 0 -8 -0.5t-8 -0.5q-22 0 -36.5 7t-28.5 18z" />
    <glyph glyph-name="Udieresis" unicode="&#xdc;" horiz-adv-x="682" 
d="M604 541q0 -8 -7 -17t-17 -16.5t-20.5 -12.5t-16.5 -5q-9 0 -13.5 2t-7.5 11q-2 3 0 10.5t5.5 16t7 16t3.5 11.5q0 3 4.5 6.5t10.5 7t12 6t9 2.5q14 0 20.5 -4t8.5 -9.5t1.5 -12t-0.5 -12.5zM762 531q0 -9 -6 -16t-10 -15q-2 -5 -9 -11t-16 -12t-17.5 -10t-13.5 -4
q-7 0 -10.5 5t-5 13t-1 17.5t2.5 17.5t9.5 17t16.5 16t18.5 11.5t15.5 4.5q2 0 6.5 -4.5t9 -10.5t7.5 -11.5t3 -7.5zM253 209h-1q-9 -17 -35.5 -43.5t-54.5 -59t-50 -68t-22 -71.5q0 -10 7 -15t15.5 -7.5t16 -3t8.5 -0.5q27 0 63 15.5t76 41t80.5 57t76.5 63t64 61t43 49.5
q5 8 12.5 23.5t16.5 31t19 27t21 11.5t15.5 -7t6.5 -16q1 -5 -3 -12.5t-11 -16.5t-14.5 -19.5t-14.5 -21.5q-11 -20 -31 -43.5t-35 -48.5q-27 -44 -47.5 -94.5t-30.5 -98.5l1 -7.5t4 -15.5t9.5 -15t18.5 -7q27 0 52 12t48.5 29.5t43.5 37.5t37 35l9 -4q-2 -9 -16 -24.5
t-34.5 -33.5t-45 -36t-47.5 -33t-42 -24.5t-29 -9.5q-7 0 -17 3t-19.5 7.5t-16.5 11t-8 12.5q-5 22 0.5 49t16.5 57t26 61.5t30 60.5q-23 -20 -65.5 -57.5t-95 -75.5t-111 -66t-115.5 -28q-8 0 -15 5t-12.5 12t-9 14.5t-4.5 13.5q-5 22 -4 35t5 33l6 18q20 37 35 58.5
t24 30.5q17 19 30.5 37t30.5 35q12 12 30 29.5t30 33.5q19 25 40 48.5t39.5 49t32 55t16.5 65.5q1 12 -5 21.5t-15 17t-19.5 11.5t-20.5 4q-14 0 -29.5 -2t-29.5 -2q-18 0 -39.5 -7t-40.5 -19t-32.5 -28.5t-15.5 -36.5q-1 -9 3 -17t10.5 -14t14.5 -9.5t16 -3.5q12 0 16 6
t8 12.5t12 12.5t27 6q4 0 8 -5t3 -8q-2 -22 -10 -37t-19 -24.5t-23.5 -13.5t-22.5 -4q-14 0 -29 6.5t-27 18t-19.5 26t-6.5 29.5q2 22 10 43.5t23 36.5q37 35 89 50.5t99 15.5q19 0 40 -3t38 -12t27.5 -24.5t8.5 -40.5q-4 -48 -35 -102.5t-85 -112.5z" />
    <glyph glyph-name="Yacute" unicode="&#xdd;" horiz-adv-x="945" 
d="M460 -149q-30 -2 -64.5 -16t-68 -33.5t-65 -41t-55.5 -39.5q-47 -35 -77 -75t-31 -102q100 66 186.5 146t174.5 161zM1004 488q-14 -25 -30.5 -48t-30.5 -47q-31 -52 -58.5 -104.5t-61.5 -103.5q-38 -57 -82 -109.5t-86 -107.5q63 9 125 26.5t120 44.5q19 9 39.5 20.5
t40.5 16.5l2 -4q-2 -11 -10.5 -15t-16.5 -8q-29 -14 -57 -29.5t-57 -29.5q-24 -12 -49 -22t-51 -18q-38 -12 -75 -27.5t-75 -30.5q-19 -21 -57 -59t-86 -83.5t-101.5 -92.5t-103.5 -85.5t-92 -63t-66 -24.5q-19 0 -30 17t-11 34q0 20 8 37l16 34q13 27 26 53.5t28.5 51
t34 47.5t41.5 42q46 38 100.5 64t108.5 49q41 17 83.5 26.5t86.5 17.5q68 62 124.5 133.5t108.5 146.5q-37 -24 -77.5 -44.5t-86.5 -20.5q-8 0 -20.5 1t-25 4t-21.5 9t-9 17q0 32 15.5 58.5t34.5 54.5t34.5 61t15.5 78q0 12 -6.5 20.5t-16 14t-20.5 8.5t-21 3q-14 0 -29 -2
t-29 -2q-18 0 -40.5 -9t-42 -23.5t-33 -33.5t-13.5 -39q0 -9 6 -16t14.5 -11.5t18 -7t17.5 -2.5q6 0 13.5 9t16 20t16.5 20t16 9q4 0 5 -3t1 -6q0 -9 -6 -24t-15.5 -29.5t-21 -25t-21.5 -10.5q-14 0 -31 6.5t-31.5 18t-24 26t-9.5 29.5q0 22 14.5 43t28.5 36q33 35 77 48.5
t91 13.5q19 0 42.5 -2.5t44.5 -10t35.5 -22.5t14.5 -40q0 -28 -14.5 -59.5t-32.5 -62t-32.5 -58.5t-14.5 -49q46 5 93 28t89 57t75.5 74.5t52.5 81.5q4 8 9.5 20.5t16.5 12.5q10 0 19.5 -3t11.5 -15zM1037 793q0 -6 -3.5 -14t-8.5 -16.5t-10.5 -16t-10.5 -10.5
q-15 -11 -30.5 -20.5t-29.5 -22.5q-3 -3 -12.5 -12t-20 -18.5t-19.5 -17t-11 -7.5q-1 0 -2 0.5t-2 0.5q-5 0 -9 -2.5t-9 -2.5t-8.5 4t-3.5 9q0 4 4 7q23 17 42.5 37.5t39.5 42.5q9 10 16.5 23.5t16.5 26t20.5 21t27.5 8.5q6 0 14.5 -6.5t8.5 -13.5z" />
    <glyph glyph-name="Thorn" unicode="&#xde;" horiz-adv-x="899" 
d="M846 337q0 26 -15.5 48.5t-39.5 40.5q-23 -19 -45 -36t-40 -31t-30.5 -24.5t-18.5 -14.5q-12 -9 -37 -32.5t-52.5 -50.5t-51.5 -51.5t-33 -36.5q0 -19 14.5 -36t35 -29.5t43 -20t39.5 -7.5q39 0 79.5 30.5t74.5 74.5t55.5 92t21.5 84zM885 338q0 -29 -11 -64.5
t-30.5 -71.5t-46 -70.5t-56.5 -61.5t-62 -43t-63 -16q-23 0 -48.5 8t-49 22.5t-42 33.5t-26.5 41q-41 -37 -83 -73t-75 -80q-13 -17 -27.5 -30.5t-28.5 -29.5q-6 -7 -26.5 -24.5t-42.5 -35.5t-40.5 -32t-19.5 -14q-8 0 -13 6t-5 14t1 15.5t4 15.5q6 14 18 25t26.5 20.5
t29 18.5t25.5 19q33 31 74 67.5t74 74.5q19 22 45 48t54 52.5t55.5 51.5t49.5 43q11 9 36 32t53 48t54 46.5t38 29.5q6 4 14 9.5t16 13.5q-41 22 -85 33t-75 11q-42 0 -83.5 5.5t-83.5 5.5t-81 -12.5t-80 -18.5q-43 -6 -76.5 -12.5t-61.5 -19t-52 -35.5t-48 -63
q-15 -26 -26.5 -54t-11.5 -58q0 -29 11.5 -49t30.5 -33.5t43.5 -19.5t49.5 -6q18 0 34 8.5t28 22t19 30.5t7 35q0 8 -5 12.5t-13 4.5q-11 0 -17.5 -5.5t-11.5 -12t-9.5 -12t-11.5 -5.5q-9 0 -14.5 7t-5.5 15q0 11 8 23t20 21.5t25 16t24 6.5q25 0 38.5 -18t13.5 -41
q0 -27 -9.5 -54t-26.5 -48.5t-41 -35.5t-53 -14q-35 0 -66.5 9.5t-55.5 28.5t-38 47t-14 66q0 37 13.5 71t31.5 66q26 46 53 72.5t59 42t70 22.5t87 14q41 6 80.5 18.5t81.5 12.5t84 -4.5t84 -4.5t95.5 -15t98.5 -44q7 6 12.5 11.5t10.5 9.5q22 18 41 40t35.5 40.5t31 30.5
t28.5 11q8 -1 14 -7.5t6 -14.5t-12 -23t-32 -35t-46 -42.5t-54 -45.5q27 -23 43.5 -52t16.5 -64z" />
    <glyph glyph-name="germandbls" unicode="&#xdf;" horiz-adv-x="323" 
d="M339 66q-4 -6 -19 -18t-33 -24.5t-34.5 -23t-23.5 -13.5q-12 -5 -17.5 -5.5t-17.5 -4.5q-12 -22 -30 -41.5t-39.5 -34t-46 -23t-49.5 -8.5q-11 0 -11 11q0 13 18.5 31.5t43 35.5t48.5 30.5t35 17.5q16 30 16 61q0 13 -1.5 25.5t-1.5 25.5q0 19 4.5 38.5t15.5 31.5
q8 9 27 28t36 30q23 23 51 46t57 47t56.5 48t48.5 48l7.5 7.5t8 9.5t5.5 10t0 9q-2 17 -10.5 21t-10.5 4q-19 0 -32.5 -6.5t-27.5 -18.5q-9 -8 -29.5 -27.5t-46 -44.5t-53 -52.5t-50.5 -52.5t-39 -44.5t-18 -27.5l-29 -41l-33 -31q-14 -13 -24 -22.5t-20 -18.5t-22 -18.5
t-31 -22.5q-9 -6 -20.5 -13t-22.5 -8l-3 2q1 4 4 7q4 5 6 6l8 4q20 10 36 25.5t33 29.5q34 29 57.5 60t43.5 52q4 4 10 12.5l12 17t12 16.5t11 13q28 28 56.5 60t57.5 63.5t60 61t64 52.5q13 9 28 13t30 4q5 0 12 -3.5t13.5 -9t11 -12t4.5 -12.5q0 -14 -3 -33.5t-11 -30.5
q-8 -12 -14.5 -18.5l-16.5 -16.5q-8 -8 -12 -13t-13 -12q-43 -31 -88.5 -65.5t-81.5 -61.5q-12 -9 -25 -21t-29 -27q-11 -11 -17 -26t-10 -26q-5 -13 -5 -24.5v-26.5q0 -10 2 -19t2 -19q0 -13 -2.5 -25t-6.5 -24q10 3 18 5t15.5 4t15.5 5t17 8q16 8 30 19t31 18z" />
    <glyph glyph-name="agrave" unicode="&#xe0;" horiz-adv-x="301" 
d="M134 131q0 7 -4 13.5t-12 6.5q-5 0 -8.5 -0.5t-8.5 -0.5q-5 -3 -16.5 -18t-23.5 -32.5t-21 -34t-10 -22.5q-1 -8 -2.5 -15.5t-1.5 -15.5t3.5 -14.5t12.5 -6.5t24.5 18.5t30.5 42.5t26 47t11 32zM316 57q0 -2 -7.5 -6t-17 -8.5t-18.5 -9t-12 -6.5q-10 -7 -18.5 -13.5
t-18.5 -11.5t-21 -8t-26 -3q-11 0 -21 4.5t-18 10t-13.5 10t-6.5 4.5q-10 0 -19 -11.5t-19 -25.5t-22.5 -25.5t-29.5 -11.5q-26 0 -37 13t-11 39q0 7 7.5 23.5t19 37t26 42.5t28 40.5t25.5 31t18 14.5q5 2 15 2q7 0 10.5 -3t6 -7t5 -7t6.5 -3q6 0 10.5 4t9 8.5t9 8.5t8.5 4
q16 0 16 -13q0 -10 -6.5 -23.5t-14 -28.5t-14 -30.5t-6.5 -28.5q0 -29 10.5 -38t36.5 -9q12 0 26.5 6.5t29 14t27.5 14t21 6.5q4 0 6 -7zM251 302q0 -10 -10 -10q-1 0 -2.5 0.5t-2.5 0.5q-9 4 -14.5 6.5t-9.5 5.5t-8 8t-10 13q-8 11 -18.5 21t-19.5 21.5t-15.5 24.5t-6.5 30
q0 5 7.5 10.5t11.5 5.5q13 0 21.5 -9.5t15 -22.5t11.5 -26.5t10 -22.5q6 -10 9.5 -16t7 -11t8.5 -10t13 -14q2 -2 2 -5z" />
    <glyph glyph-name="aacute" unicode="&#xe1;" horiz-adv-x="278" 
d="M148 151q0 7 -4 13t-12 6q-4 0 -9 -3t-9 -11q-3 -4 -14.5 -19.5t-24 -33.5t-22.5 -32.5t-10 -17.5q-1 -5 -2 -10.5t-1 -10.5q0 -8 3.5 -14.5t12.5 -6.5t24.5 18.5t30.5 42.5t26 47t11 32zM295 58q-1 -2 -16 -10t-33 -16t-34.5 -14.5t-20.5 -6.5q-14 0 -24 4.5t-17.5 10
t-12 10t-5.5 4.5q-10 0 -19 -11.5t-19 -25.5t-22.5 -25.5t-29.5 -11.5q-26 0 -37 13t-11 39q0 7 7.5 23.5t19 37t25.5 42t28 40t25.5 31.5t18.5 15q5 2 15 2q7 0 10.5 -3t6 -7t5 -7t6.5 -3q6 0 10.5 4t9 8.5t9 8.5t8.5 4q16 0 16 -13q0 -10 -6.5 -23.5t-14 -28.5t-14 -30.5
t-6.5 -28.5q0 -29 10.5 -38t36.5 -9q10 0 20.5 3.5t20 8t17.5 8t12 3.5q2 0 3.5 -3t1.5 -5zM346 511q1 -1 1 -4q0 -21 -7.5 -36.5t-18.5 -28t-23 -24.5t-22 -26q-5 -7 -12.5 -18.5t-15 -22t-14.5 -18.5t-10 -8q-6 0 -11 -4.5t-10 -4.5t-9 3.5t-3 8.5q0 4 8 15.5t18.5 26.5
t21.5 31t18 28q6 10 11.5 26.5t13 32t17.5 26.5t26 11q5 0 12 -5t9 -9z" />
    <glyph glyph-name="acircumflex" unicode="&#xe2;" horiz-adv-x="307" 
d="M184 165q-20 0 -38 -8t-34 -21t-28.5 -29.5t-20.5 -32.5q-4 -8 -11 -19t-7 -19t7.5 -9.5t13.5 -1.5q45 0 65.5 17t29.5 39.5t14.5 44.5t20.5 32zM320 61q0 -5 -9.5 -12.5t-22 -14.5t-25 -12.5t-17.5 -5.5q-18 0 -36 9.5t-35 14.5q-9 -11 -27.5 -23t-39.5 -22.5t-42 -17
t-35 -6.5q-20 0 -33.5 15t-13.5 34q0 18 20.5 49t49 61.5t58.5 52.5t50 22q6 0 10 -5t12 -5q13 0 21.5 -9.5t19.5 -9.5q8 0 17.5 10t22.5 10q7 0 10 -4.5t3 -10.5q0 -25 -10 -41.5t-22 -28.5t-22 -20.5t-10 -17.5q0 -14 13 -22.5t25 -8.5q10 0 20 3.5t18.5 8t15 8t9.5 3.5
q5 0 5 -4zM365 419q0 -9 -1 -31.5t-5 -46.5t-12 -42t-21 -18q-5 0 -8 11t-3 15q0 8 4.5 15.5t4.5 15.5q0 5 -1.5 14.5t-4.5 18.5t-7 15.5t-10 6.5q-7 0 -15 -3.5t-14.5 -8t-12 -8t-8.5 -3.5q-4 0 -8.5 5t-4.5 9q0 10 12 24t27.5 26.5t32 21t25.5 8.5q16 0 23 -16.5t7 -28.5z
" />
    <glyph glyph-name="atilde" unicode="&#xe3;" horiz-adv-x="316" 
d="M441 393q0 -8 -2.5 -19t-8 -23.5t-15 -25t-24.5 -22.5q-9 -6 -20 -8.5t-23 -3.5q-32 -2 -47 13.5t-15 31.5t-5.5 30.5t-13.5 26.5q-5 6 -19 14t-21 8q-17 0 -23 -3.5t-9 -9t-5.5 -11.5t-11.5 -11q-4 -2 -9 -3t-9 -1q-9 0 -9 10q0 4 2.5 8.5t4.5 9.5q6 11 16 18t21 11
t21.5 5.5t18.5 1.5q31 0 49 -14t28.5 -31.5t17.5 -33.5t17 -20q7 -3 18.5 -4.5t19.5 4.5q14 9 20 18t9 29q-1 7 -6.5 14t-0.5 13q5 9 11 9.5t11 -4t8.5 -12.5t3.5 -15zM194 151q0 8 -7.5 18.5t-16.5 10.5q-8 0 -25 -14t-35.5 -32t-34 -35.5t-19.5 -24.5q-5 -8 -11.5 -25
t-6.5 -27q0 -8 6 -12.5t14 -4.5q12 0 34.5 18.5t45 43.5t39.5 49t17 35zM330 61q0 -7 -11.5 -16.5t-26.5 -18.5t-30 -15t-22 -6q-16 0 -28 4.5t-20 9.5t-13 9.5t-6 4.5q-13 0 -24.5 -12t-24 -27t-28.5 -27t-38 -12q-29 0 -48 19t-19 48q0 17 9 35t19 31q7 9 25 28.5t39.5 40
t41.5 36.5t30 18q5 1 9.5 1h9.5q8 0 13 -3.5t8 -7t6.5 -7t8.5 -3.5q13 0 20 8.5t18 8.5q7 0 13.5 -3t6.5 -11q0 -10 -6.5 -23t-15 -27t-15 -29t-6.5 -29q0 -17 8 -33.5t28 -16.5q8 0 16 4t16.5 9t16 10t15.5 7z" />
    <glyph glyph-name="adieresis" unicode="&#xe4;" horiz-adv-x="437" 
d="M281 138q0 11 -10.5 14.5t-18.5 3.5q-10 0 -36.5 -8.5t-56 -20.5t-53.5 -23.5t-29 -17.5q-9 -12 -9 -27q0 -9 3.5 -18t3.5 -17q0 -6 4.5 -9t10.5 -4t12.5 -1h10.5q8 0 23.5 7.5t34 19t38.5 26t36 29t26 27t10 19.5zM450 60q0 -6 -12 -15t-28 -16.5t-31 -13t-21 -5.5
q-8 0 -20.5 1t-26 3.5t-25 6t-17.5 8.5q-4 3 -8 5.5t-9 2.5q-18 0 -34.5 -10.5t-35.5 -23.5t-42 -23.5t-53 -10.5q-23 0 -40 2t-28 9.5t-16 22t-5 39.5q0 7 0.5 14t4.5 12q5 7 17 17t26 20.5t27.5 19.5t21.5 15q13 9 31.5 18.5t38.5 16.5t40 11.5t37 4.5q15 0 24 -3t15.5 -6
t11.5 -6t11 -3q10 0 19 3.5t17.5 8t16.5 8t16 3.5q6 0 17 -1.5t11 -10.5t-12 -21t-26 -25.5t-26 -28t-12 -26.5q0 -22 16 -33t36 -11q11 0 19.5 3t16 7.5t15 8.5t16.5 6zM287 381q0 -9 -10.5 -24t-15.5 -22q-2 -9 -7 -11.5t-13 -2.5q-18 0 -31 10t-13 29q0 8 8 14
q3 3 10.5 9.5t16 13.5t17 12.5t14.5 5.5q3 0 7.5 -4.5t8 -10t6 -11t2.5 -8.5zM417 353q-11 0 -20 6t-15 14.5t-9.5 16.5t-3.5 12q0 3 3.5 9t8 12.5t9.5 11.5t8 5q13 0 25 -7t21 -16t14.5 -17.5t5.5 -10.5q0 -20 -15 -28t-32 -8z" />
    <glyph glyph-name="aring" unicode="&#xe5;" horiz-adv-x="274" 
d="M182 179q-21 0 -39.5 -10t-34 -25.5t-28 -34.5t-19.5 -36q-4 -9 -10.5 -22t-6.5 -22q0 -8 7 -10.5t14 -2.5q17 0 35.5 6.5t31.5 16.5q17 13 25 30t14 34t12 32t18 24zM304 68q0 -2 -10.5 -10t-24 -17t-25.5 -16t-15 -7q-15 0 -28.5 5t-27.5 10q-9 -12 -27 -26t-39 -26
t-42 -20t-36 -8q-22 0 -34.5 18.5t-12.5 38.5q0 13 9.5 34t24.5 44.5t34 48t39 44t38.5 32t32.5 12.5q7 0 10.5 -5.5t11.5 -5.5q12 0 21.5 -11t17.5 -11q5 0 10 3.5t9.5 8t10 8t12.5 3.5q8 0 10.5 -5.5t2.5 -11.5q0 -29 -10 -48.5t-22 -33.5t-22 -24t-10 -20q0 -7 3 -15.5
t11 -8.5q11 0 21.5 2t21.5 9q4 2 15 9.5t15 7.5q2 0 3.5 -3t1.5 -5zM236 300q-26 0 -43.5 20t-17.5 46q0 16 9 32t22.5 29t30 21.5t32.5 8.5h7.5t4.5 -5q0 -8 -10 -18.5t-21.5 -23t-21.5 -25t-10 -24.5q0 -14 12 -22t24 -8q10 0 25 8.5t29.5 20.5t25.5 25t14 23t3 23
q0 20 -11.5 27t-25 8.5t-24.5 2.5t-11 10q0 12 12.5 23t23.5 11q16 0 32 -3.5t29 -11.5t21 -21t8 -32q0 -29 -16.5 -55t-41 -46t-54.5 -32t-57 -12z" />
    <glyph glyph-name="ae" unicode="&#xe6;" horiz-adv-x="423" 
d="M198 140q0 8 -7 12t-14 4t-11 -1q-2 -1 -10.5 -7.5t-21.5 -17t-27 -22.5t-26 -22t-20.5 -17.5t-8.5 -8.5q-3 -9 -3 -18q0 -10 7 -13.5t15 -3.5q10 0 31 14.5t42.5 33.5t37.5 38t16 29zM368 169q0 9 -7.5 14t-15.5 5q-9 0 -22 -2.5t-21 -7.5q-7 -4 -16.5 -14t-18.5 -21.5
t-15.5 -23.5t-6.5 -20q0 -2 0.5 -2.5t0.5 -2.5l7 -3q5 0 19 6t29 14t28 16t17 12q6 6 11.5 13t10.5 14v3zM445 63q0 -7 -11 -14t-16 -10q-36 -22 -72 -35.5t-79 -13.5q-20 0 -37.5 11.5t-26.5 29.5q-2 3 -3.5 8t-3.5 7t-5.5 2.5t-6.5 0.5q-19 0 -33 -9.5t-28.5 -21t-31 -21
t-40.5 -9.5q-11 0 -23 1t-21.5 5.5t-15.5 13t-6 22.5q0 11 22.5 36t52 51t57.5 47t40 23q5 1 15 1t16.5 -2.5t11 -5.5t8 -5.5t8.5 -2.5q15 0 27 10t27 10q20 19 38.5 26t45.5 7q10 0 21 -1t21 -5t16.5 -11.5t6.5 -20.5t-14 -29.5t-33.5 -32.5t-39.5 -28.5t-31 -17.5
q-16 -7 -32 -13t-31 -16q-2 -6 -2 -10q0 -6 5 -10t12 -7t14 -4.5t12 -1.5q23 0 50 8t51 17t41 17t21 8q3 0 3 -4z" />
    <glyph glyph-name="ccedilla" unicode="&#xe7;" horiz-adv-x="350" 
d="M266 -8q-31 -20 -57.5 -32.5t-58.5 -21.5q-21 -6 -33 -8.5t-25 -3.5q-10 -9 -21 -22t-21 -30q-12 -20 -12.5 -34t2 -26t2.5 -24.5t-10 -30.5q-12 -22 -23 -38t-23 -29t-26 -23.5t-33 -20.5q-8 -4 -15 -7t-14 -3q-14 0 -23 5.5t-7 17.5q1 6 9.5 10.5t28.5 4.5
q24 6 45.5 21t32.5 36q7 13 4 23.5t-6.5 25t-2 34t19.5 50.5q2 3 8 10t14.5 15.5t18.5 17.5l20 18q-10 4 -14 4q-16 0 -24 15t-8 36q0 9 4 20t10 21.5t12 19t11 14.5t12 13t14 13.5t12 11l5 4.5q5 4 16.5 13.5t22.5 17.5q6 5 16 11t19.5 11t16 8.5t6.5 4.5q17 7 34 12
q14 5 30 9t29 4q8 0 12 -4t6 -9t2 -9.5v-5.5q0 -15 -7 -26.5t-17 -20.5t-21 -15.5t-20 -11.5q-23 -14 -41.5 -22.5t-21.5 -9.5l-7.5 -1.5t-7.5 4.5q-6 8 8 17q2 2 8.5 5t19.5 11q6 4 14.5 9t15.5 10t12 9t5 6q0 8 -9.5 11t-20.5 3q-3 0 -7.5 -1t-6.5 -1q-8 0 -21.5 -8.5
t-27.5 -19t-26.5 -20.5l-17.5 -14q-2 -2 -8.5 -9t-14 -15.5t-14 -16t-7.5 -10.5q-2 -4 -5 -11.5t-3 -16.5q0 -2 2.5 -8t3.5 -8q4 -8 14 -13t16 -5q40 0 84.5 13.5t82.5 32.5q7 3 22 11.5t31 18t29.5 17.5t17.5 11q5 4 8.5 0t-2.5 -11q-4 -3 -11.5 -8.5t-15 -10t-13 -8.5
l-5.5 -4z" />
    <glyph glyph-name="egrave" unicode="&#xe8;" horiz-adv-x="318" 
d="M228 153q0 7 -5 11t-12.5 5.5t-15 2t-12.5 0.5q-9 0 -23 -8.5t-26.5 -21t-21.5 -26t-9 -22.5q0 -1 0.5 -2t0.5 -2l7 -3q6 0 19.5 4.5t27.5 10.5t27 12.5t18 10.5q7 5 13 12t12 13v3zM333 60q0 -4 -6 -8.5t-13 -8.5t-14.5 -7.5t-10.5 -5.5q-36 -20 -77.5 -30t-83.5 -10
q-41 0 -57 25t-18 61q-3 -2 -13 -7.5t-21 -11.5t-21 -11t-12 -5t-3 2t-1 3q4 7 13.5 13t20.5 12t21.5 11.5t17.5 12.5t10.5 15t7.5 16.5t9 17t14 14.5q18 13 29.5 22t23 15t25.5 8.5t38 2.5q9 0 22 -0.5t25 -4t20 -11t8 -20.5t-15 -28t-35 -28.5t-40 -24t-31 -14.5
q-8 -3 -20 -6.5t-24 -8t-20.5 -10t-8.5 -12.5q0 -6 6 -10t13.5 -7t15.5 -4t13 -1q16 0 36 3t40.5 7.5t40 10.5t34.5 12q1 1 6.5 3.5t11 5.5t10.5 5l5 2q2 0 4 -1.5t4 -3.5zM326 312q0 -10 -10 -10q-9 0 -21.5 12t-25 27.5t-23.5 30.5t-16 22q-9 12 -19.5 22t-20 21.5
t-15.5 24.5t-6 30q0 4 8 9.5t11 5.5q14 0 22.5 -8.5t14.5 -21.5t11 -27t11 -25q18 -30 35 -56t42 -52q2 -2 2 -5z" />
    <glyph glyph-name="eacute" unicode="&#xe9;" horiz-adv-x="255" 
d="M194 186q0 8 -6.5 14.5t-14.5 6.5t-20.5 -3t-18.5 -8q-7 -5 -15.5 -16t-16.5 -24t-13.5 -25.5t-5.5 -21.5q0 -6 7 -9q16 0 29 13q10 10 19.5 16t18.5 12.5t18 15.5t19 26v3zM268 60q0 -4 -5.5 -7.5t-8.5 -5.5q-36 -23 -71.5 -40.5t-79.5 -17.5q-19 0 -30.5 9.5t-18.5 24
t-9.5 31.5t-2.5 32q-11 -14 -20.5 -26t-28.5 -17q-4 1 -4 6q0 3 4.5 7t10 8.5t10.5 8.5t7 6q12 12 19.5 26.5t13 28.5t10.5 27t14 22q13 13 23 24.5t21.5 20.5t25 14t33.5 5q22 0 40.5 -7t18.5 -34q0 -14 -12.5 -32t-29.5 -35t-35 -31.5t-30 -20.5q-7 -4 -17 -8.5t-19 -9.5
t-15.5 -11.5t-6.5 -13.5q0 -12 14 -18.5t24 -6.5q23 0 49 7.5t48 16t37 16t16 7.5q5 0 5 -6zM237 318q-13 0 -13 12q0 2 1 3t2 3q8 10 12 20t6.5 19.5t5 18.5t8.5 17l15 20t20 23.5t22.5 19.5t22.5 8q8 0 14 -7.5t6 -14.5q0 -5 -3.5 -8t-8 -6t-8 -6.5t-4.5 -8.5
q-1 -8 -8 -16t-16 -16t-19 -16.5t-17 -17.5q-3 -5 -7 -12.5t-9 -15.5t-10.5 -13.5t-11.5 -5.5z" />
    <glyph glyph-name="ecircumflex" unicode="&#xea;" horiz-adv-x="287" 
d="M214 163q-3 11 -8 17.5t-18 6.5q-4 0 -11.5 -2t-15 -5t-14 -6t-9.5 -6q-7 -6 -16.5 -18.5t-18.5 -26.5t-15 -28.5t-6 -23.5q0 -5 2.5 -6t6.5 -3q7 0 21 6t29 15t29.5 20.5t22.5 22.5q6 8 11 18t10 19zM304 63q0 -5 -6.5 -10.5t-14.5 -10.5t-16 -9t-12 -7
q-16 -11 -33.5 -25t-36.5 -26.5t-39 -21t-40 -8.5q-22 0 -36 11.5t-22 29t-11.5 38t-4.5 37.5q-5 -4 -13.5 -5t-16.5 -6t-14.5 -9.5t-15.5 -6.5q-5 0 -5 5q3 6 12.5 11.5t20.5 11.5t21.5 12t15.5 12q6 7 10 15t7.5 16t8 15.5t13.5 15.5q20 18 32.5 34t25 28t31 19t50.5 7
q22 0 37.5 -9.5t15.5 -34.5q0 -15 -14.5 -37t-34.5 -44t-41.5 -39.5t-34.5 -23.5q-8 -3 -19.5 -7.5t-23 -10.5t-19.5 -12.5t-8 -14.5q0 -7 5 -12t12.5 -8t15.5 -4.5t13 -1.5q28 0 51 11.5t44.5 26.5t42.5 30.5t44 23.5l3 -3v-3zM443 391q0 -10 -9.5 -17.5t-22 -12.5
t-26 -7.5t-20.5 -2.5q-27 0 -44.5 9.5t-28.5 20.5t-17.5 20.5t-10.5 9.5q-6 0 -11.5 -1.5t-6.5 -8.5q0 -3 -7 -13.5t-15 -22t-16.5 -20.5t-11.5 -9q-5 0 -9 5t-4 10q0 15 10 26t18 24q6 11 10.5 24.5t10.5 25.5t15.5 20t26.5 8q8 0 14.5 -9.5t12.5 -22.5t12.5 -25.5
t15.5 -19.5t22.5 -15.5t24.5 -8.5q14 0 32.5 8.5t26.5 8.5q5 0 8 -3v-1z" />
    <glyph glyph-name="edieresis" unicode="&#xeb;" horiz-adv-x="213" 
d="M225 391q0 -9 -10.5 -24t-15.5 -22q-2 -9 -7 -11.5t-13 -2.5q-18 0 -31 10t-13 29q0 8 8 14q3 3 10.5 9.5t16 13.5t17 12.5t14.5 5.5q3 0 7.5 -4.5t8 -10t6 -11t2.5 -8.5zM323 359q-11 0 -20 6t-15 14.5t-9.5 16.5t-3.5 12q0 3 3.5 9t8 12.5t9.5 11.5t8 5q13 0 25 -7
t21 -16t14.5 -17.5t5.5 -10.5q0 -20 -15 -28t-32 -8zM162 179q0 6 -4 13.5t-12 7.5q-15 0 -27.5 -11.5t-22 -27.5t-15 -34t-5.5 -30q0 -2 0.5 -2.5t0.5 -2.5l5 -3q7 0 12.5 4t9.5 9q9 12 22 20.5t21 21.5q9 16 15 31v4zM225 58q0 -5 -7 -11.5t-11 -9.5q-14 -12 -26 -23.5
t-25.5 -21t-29 -15t-35.5 -5.5q-16 0 -25.5 12.5t-15 29.5t-6.5 35.5t0 29.5q-3 -4 -9 -9.5t-13 -11t-14.5 -9t-12.5 -3.5q-2 0 -5 1.5t-2 4.5q6 7 14 11.5t16.5 9t16 10.5t12.5 16q9 17 11.5 38.5t13.5 37.5q8 11 15.5 23t16.5 22t20.5 16.5t27.5 6.5q23 0 34.5 -10
t11.5 -34q0 -13 -9 -31t-22 -36.5t-27.5 -34t-24.5 -22.5q-11 -8 -22 -13t-20 -15q0 -3 -0.5 -5.5t-0.5 -5.5q0 -10 8.5 -21t19.5 -11q18 0 36.5 9t35 20t28.5 20t16 9q2 0 5.5 -1t3.5 -3z" />
    <glyph glyph-name="igrave" unicode="&#xec;" horiz-adv-x="221" 
d="M261 72q-3 -8 -25.5 -20.5t-49.5 -24.5t-52.5 -21t-34.5 -9q-7 0 -13.5 6.5t-6.5 13.5q0 15 11.5 35t19.5 33q-8 -2 -26.5 -9t-38 -14.5t-36 -13.5t-20.5 -6q-5 0 -13 4q0 4 10.5 9.5t23.5 10.5t25 9.5t16 6.5q33 14 68 28t64 35q8 6 14.5 13.5t17.5 7.5q3 0 8.5 -1
t5.5 -6t-15 -17.5t-33 -28t-33 -32t-15 -29.5l4 -8q3 -1 6.5 -2t7.5 -1q29 0 51.5 12.5t49.5 20.5zM298 295q0 -10 -10 -10q-1 0 -2.5 0.5t-2.5 0.5q-10 4 -15.5 6.5t-9.5 5.5t-7.5 8t-9.5 13q-9 13 -20 24l-22 22q-8 8 -13.5 24.5t-5.5 27.5q0 4 8 9.5t11 5.5q13 0 22 -9.5
t15.5 -23t11.5 -27t10 -22.5q6 -10 9.5 -16t7.5 -10.5t8.5 -10t12.5 -13.5q2 -2 2 -5z" />
    <glyph glyph-name="iacute" unicode="&#xed;" horiz-adv-x="178" 
d="M429 429q-5 -9 -21 -17.5t-35 -16.5t-37.5 -15t-28.5 -12q-36 -18 -71 -37.5t-75 -25.5q-11 0 -11 8q0 4 7 8.5t16 8t18 6.5t14 5q26 14 52.5 29t52.5 32q11 7 23 16t25 17.5t27 14.5t28 6q6 0 13.5 -1.5t7.5 -10.5q0 -7 -5 -15zM203 69q-2 -7 -18 -21t-36 -28
t-38.5 -24.5t-25.5 -10.5t-10.5 10.5t-3.5 15.5q0 41 15 77q-5 -2 -19 -9.5t-30 -15.5t-29.5 -14.5t-15.5 -6.5q-4 0 -10 4q0 4 8 9.5t17.5 10.5t19 9.5t13.5 6.5q29 16 54.5 38t48.5 45q3 3 7.5 10t10 14t10.5 12.5t9 5.5q5 0 7.5 -4t2.5 -8q0 -7 -13 -24t-28 -38.5
t-28 -44t-13 -40.5q0 -1 1.5 -4.5t1.5 -5.5l5 -2.5t5 -1.5q11 0 20.5 4.5t18.5 11t18 12.5t19 9z" />
    <glyph glyph-name="icircumflex" unicode="&#xee;" horiz-adv-x="158" 
d="M193 72q-2 -6 -16.5 -15.5t-32 -18.5t-34.5 -15.5t-23 -6.5q-8 0 -11.5 7.5t-3.5 13.5q0 23 10 46q-11 -5 -22 -7.5t-22 -7.5q-12 -5 -23.5 -12.5t-23.5 -12.5q-1 0 -3 -1t-3 -1q-2 0 -5.5 1t-3.5 4q0 2 13 9.5t29.5 16t32 16.5t20.5 11q16 8 30.5 17t28.5 21q6 5 15 17
t17 12q2 0 5.5 -1t3.5 -5q0 -5 -10.5 -16.5t-23 -26t-23 -30.5t-10.5 -28l4 -6q2 0 4.5 -1t4.5 -1q17 0 35.5 9t34.5 14zM326 351q0 -7 -2 -24t-6 -34t-10.5 -30.5t-15.5 -13.5q-11 0 -11 9q0 8 2.5 16t2.5 16q0 13 -5 20.5t-19 7.5q-15 0 -31 -7.5t-31 -17t-27.5 -17
t-20.5 -7.5q-1 0 -1 3q0 4 1 5q1 9 20 25.5t43.5 32.5t48 28t33.5 12q13 0 21 -5t8 -19z" />
    <glyph glyph-name="idieresis" unicode="&#xef;" horiz-adv-x="260" 
d="M333 381q0 -9 -10.5 -24t-15.5 -22q-2 -9 -7 -11.5t-13 -2.5q-18 0 -31 10t-13 29q0 8 8 14q3 3 10.5 9.5t16 13.5t17 12.5t14.5 5.5q3 0 7.5 -4.5t8 -10t6 -11t2.5 -8.5zM458 331q-11 0 -20 6t-15 14.5t-9.5 16.5t-3.5 12q0 3 3.5 9t8 12.5t9.5 11.5t8 5q13 0 25 -7
t21 -16t14.5 -17.5t5.5 -10.5q0 -20 -15 -28t-32 -8zM273 195q0 -4 -19.5 -22t-42.5 -41.5t-43 -49.5t-20 -45l4 -8q8 -4 14 -4q27 0 48 13.5t46 22.5l9 -4q-3 -8 -24 -21t-46.5 -25.5t-49.5 -21.5t-33 -9q-8 0 -14.5 8.5t-6.5 16.5q0 9 3.5 22t8.5 26.5t10.5 26t10.5 20.5
l-28.5 -9.5t-33 -12.5t-31.5 -14t-26 -14q-10 0 -14 5q0 3 4.5 6.5t10 7t11 6.5t7.5 4q20 10 44.5 21t48.5 22t47 23t40 25q5 4 11.5 10l13 12t13.5 10.5t13 4.5q5 0 9.5 -3t4.5 -9z" />
    <glyph glyph-name="eth" unicode="&#xf0;" horiz-adv-x="438" 
d="M288 361q0 -1 1 0h-1zM647 576q-2 -7 -14 -8t-17 -3q-36 -11 -72 -29t-71 -39v-34v-25t-1.5 -28t-4.5 -27.5t-8 -22.5l-24 -49q-18 -31 -48.5 -75.5t-66 -89t-71 -82t-63.5 -53.5q-34 -19 -71 -24q-6 -5 -16 -9.5t-22 -7.5t-23.5 -4.5t-18.5 -1.5q-11 0 -19 6.5
t-12.5 16.5t-6.5 21t-2 20q0 14 13 34t31 39.5t37.5 35t31.5 21.5l13.5 4.5t22.5 7t22 6t13 2.5q5 0 12.5 -0.5t15 -2t13 -5.5t5.5 -11q0 -8 -10 -12.5t-22.5 -6.5t-25 -2h-17.5q-18 0 -36.5 -9t-34 -23.5t-25.5 -33t-10 -36.5q0 -8 3.5 -14.5t13.5 -6.5q32 0 65.5 15
t66.5 40t63.5 57t56.5 65t47 65t34 57l6 12t7.5 16.5t5.5 13.5t0 3q8 24 12.5 54t6.5 58q-30 -20 -56 -39.5t-45.5 -35t-30.5 -25t-12 -10.5q-3 -2 -7 -6t-8 -7t-8 -4.5t-8 0.5q-3 1 -4.5 6t-2.5 11.5t-1 12v8.5q1 1 11 10.5t23 21.5t27 23.5t24 17.5q14 8 37 25.5t60 37.5
q-5 22 -17 40.5t-24.5 33t-22.5 24.5t-10 16q0 5 4 13.5t9 8.5q4 0 11 -3t14 -7.5t13 -9l10 -7.5q24 -17 39 -33.5t15 -48.5v-5q25 12 54 23t64 22q13 4 32 2q4 -1 14.5 -3t10.5 -8z" />
    <glyph glyph-name="ntilde" unicode="&#xf1;" horiz-adv-x="480" 
d="M528 361q0 -26 -13.5 -51.5t-36 -45t-51 -31t-59.5 -9.5q-21 1 -35 13.5t-24.5 26t-19.5 25t-20 11.5q-16 0 -24.5 -9t-13.5 -20t-9 -20t-10 -9q-5 0 -7 5t-2 9q0 13 5 25.5t14 23t21 17t25 6.5q31 0 50.5 -10t33.5 -22t25.5 -22t28.5 -10q23 0 36 9t24 39q5 14 7.5 26.5
t3.5 26.5q1 9 6.5 17.5t18.5 8.5q14 0 20 -9t6 -21zM503 72q-2 -14 -21.5 -26.5t-44.5 -21.5t-50 -14t-38 -5l-31 1q-14 0 -17.5 10.5t-4.5 23t-3.5 23t-13.5 10.5q-10 0 -27.5 -8.5t-38.5 -21t-43.5 -27.5t-42.5 -27.5t-34.5 -21t-19.5 -8.5q-17 0 -17 17q0 15 9 26.5
t20 22.5t20 22t9 25q0 4 -0.5 8t-0.5 8q-3 2 -10 2q-35 0 -63 -18t-58 -34l-4 2q0 6 4 9q5 6 13.5 10t15.5 8q16 10 37.5 26t44.5 31.5t45.5 26.5t41.5 11q5 0 12 -0.5t14 -2.5t11.5 -6t4.5 -11q0 -6 -5 -13.5t-11 -15t-12 -14.5t-8 -14q1 -5 3.5 -10.5t8.5 -5.5
q13 0 33 11.5t42.5 26t45.5 26t42 11.5q13 0 19.5 -3t6.5 -18q0 -12 -4.5 -23t-10.5 -20t-10.5 -16.5t-4.5 -13.5l3 -6q8 -2 14.5 -3t14.5 -1q32 0 58 8t54 25z" />
    <glyph glyph-name="ograve" unicode="&#xf2;" horiz-adv-x="268" 
d="M304 285q0 -10 -10 -10q-1 0 -2.5 0.5t-2.5 0.5q-9 4 -14.5 7t-9.5 6t-8 7.5t-10 12.5q-8 11 -18.5 21t-20 21t-16 24.5t-6.5 31.5q0 5 7.5 10t11.5 5q13 0 22 -9.5t15 -22.5t11 -26.5t10 -22.5q6 -10 9.5 -16t7.5 -11t9 -10t13 -14q2 -2 2 -5zM188 63q0 4 -6 9.5t-14 11
t-16 10t-12 4.5q-13 -6 -34.5 -21t-42 -34t-35.5 -39t-15 -35q0 -8 6 -12t13 -4q5 0 11 1t11 3q24 7 42.5 12.5t33.5 14.5t27.5 23.5t25.5 37.5q5 10 5 18zM282 60q-3 -7 -11.5 -11.5t-18.5 -8t-20.5 -6t-17.5 -3.5q-29 -20 -44 -35t-29.5 -27t-35 -22t-58.5 -21
q-12 -4 -23.5 -8t-24.5 -4q-19 0 -27.5 12.5t-8.5 29.5q0 13 9 28.5t19.5 29t20 24t9.5 13.5q-1 0 -1.5 0.5t-1.5 0.5q-5 0 -9.5 -1.5t-9.5 -3.5l-8 4q8 12 21.5 24t28.5 21t30 14.5t27 5.5q14 8 33.5 14t36.5 6t31 -14q10 7 20.5 11t22.5 4q5 0 6.5 -4t1.5 -8
q0 -38 -21 -72q4 -1 11 -1q11 0 23.5 7.5t15.5 7.5z" />
    <glyph glyph-name="oacute" unicode="&#xf3;" horiz-adv-x="275" 
d="M189 83q0 4 -6 10t-14 11.5t-16 9.5t-12 4q-13 0 -34.5 -14.5t-42 -35t-35.5 -42.5t-15 -37q0 -8 6.5 -12t12.5 -4q5 0 11 1t11 3q25 7 43 13t32.5 14.5t27 22.5t26.5 38q5 10 5 18zM0 -66q-18 0 -27 12.5t-9 29.5q0 15 7 27.5t16.5 23.5l19 22t15.5 22q4 8 8.5 19.5
t12 21.5t21 17t35.5 7q14 8 33.5 14t36.5 6t31 -14q10 7 20.5 11t22.5 4q5 0 6.5 -4t1.5 -8q0 -12 -3 -26.5t-9 -28t-14 -26t-18 -19.5h2q8 0 16 1t16 1q12 0 21.5 8t20.5 8l2 -4q-8 -14 -21.5 -19.5t-28.5 -8.5t-30.5 -5.5t-27.5 -9.5t-21.5 -15.5t-20.5 -16.5
q-9 -7 -27 -15.5t-38.5 -16t-39.5 -13t-30 -5.5zM416 465q1 -1 1 -4q0 -21 -7.5 -36.5t-18.5 -28t-23 -24.5t-22 -26q-5 -7 -12.5 -18.5t-15 -22t-14 -18.5t-9.5 -8h-1q-6 0 -11 -4.5t-10 -4.5t-8.5 3.5t-3.5 8.5l2 6q20 19 35 45t29 50q6 10 11.5 26.5t13 32t17.5 26.5
t26 11q5 0 12 -5t9 -9z" />
    <glyph glyph-name="ocircumflex" unicode="&#xf4;" horiz-adv-x="279" 
d="M202 157q-5 3 -12 6.5t-13 3.5q-11 0 -31.5 -17t-40 -39.5t-34 -45t-14.5 -34.5q0 -9 6 -13.5t14 -4.5q6 0 19.5 4.5t28.5 11.5t28.5 13.5t19.5 11.5v6q0 4 -1 7.5t-1 7.5q0 20 10.5 42.5t20.5 39.5zM239 142q0 7 -4 8.5t-10 1.5q-3 0 -7 -7.5t-7 -16.5t-5 -18t-2 -12
q0 -2 2 -6h1q2 0 7.5 7t11 15.5t9.5 16.5t4 11zM201 56q5 -5 11 -8.5t13 -3.5t16 3t17 6t13.5 6t7.5 3t3.5 -1t2.5 -1v-7q-17 -12 -36.5 -22.5t-42.5 -10.5q-8 0 -17.5 2.5t-13.5 10.5q-10 -8 -27 -18.5t-36 -20.5t-37.5 -16.5t-30.5 -6.5q-17 0 -26.5 13.5t-9.5 29.5
q0 10 5 21t10 19q-7 -4 -16.5 -8.5t-17.5 -4.5q-6 0 -8 2q1 4 11 12t22 17t23.5 17t16.5 12q1 2 2 4.5t2 4.5v-1q5 10 9.5 22t11.5 22.5t18.5 18t31.5 9.5q14 9 34.5 17.5t37.5 8.5q8 0 15 -3t13 -8q8 7 19 12.5t22 5.5q8 0 9 -8t1 -13t-2.5 -19t-6.5 -29t-9 -26.5
t-10 -11.5q-3 0 -9 -6t-12.5 -14.5t-14.5 -17t-15 -13.5zM433 384q0 -10 -6.5 -18.5t-16.5 -15t-21.5 -10t-21.5 -3.5q-23 0 -37.5 10.5t-24 23t-15 23t-10.5 10.5q-11 0 -14 -11q-1 -3 -6.5 -14.5t-12 -24t-13 -22.5t-9.5 -10q-12 3 -12 15q0 17 8.5 29.5t14.5 26.5
q5 12 8.5 26.5t9 28t14 22.5t23.5 9q6 0 11 -11t10.5 -25l11 -28t12.5 -21q7 -6 19 -16.5t22 -10.5q6 0 14 3t15.5 6.5t13.5 6.5t7 3q2 0 6 -2z" />
    <glyph glyph-name="otilde" unicode="&#xf5;" horiz-adv-x="292" 
d="M215 83q0 6 -5.5 12t-13 11t-16 8.5t-13.5 3.5q-13 -6 -34.5 -21t-42 -34t-35.5 -39t-15 -35q0 -1 0.5 -1.5t0.5 -1.5q0 -7 6.5 -10t11.5 -3t11 1t11 3q24 7 42.5 13t33.5 14.5t27.5 22.5t25.5 38q3 5 4 8.5t1 9.5zM277 145q0 -11 -2.5 -24t-7 -26.5t-11 -25t-15.5 -18.5
q-25 -20 -42 -35.5t-34 -27.5t-37.5 -22.5t-53.5 -19.5q-12 -4 -23.5 -8t-24.5 -4q-19 0 -27.5 12.5t-8.5 29.5q0 13 8 27t17.5 26.5t17.5 21.5t8 12q-1 0 -1.5 0.5t-2.5 0.5q-5 0 -3 -1.5t-4 -1.5q-3 0 -7.5 3.5t-4.5 6.5t9 11t20 16.5t22 16t14 9.5q2 1 8 3.5t12.5 4
t12.5 3t9 1.5q14 8 33.5 14t36.5 6t31 -14q10 7 20.5 11t22.5 4q5 0 6.5 -4t1.5 -8zM446 382q0 -21 -17.5 -46.5t-42 -47.5t-52 -36.5t-48.5 -14.5q-18 0 -30.5 9t-22.5 20t-19 20t-19 9t-17 -7.5t-12.5 -17t-10 -17t-9.5 -7.5q-4 0 -4.5 3.5t-0.5 5.5q0 22 16 38.5t38 16.5
q18 0 30.5 -8t24 -18t23 -18t26.5 -8q30 0 50 22t33.5 48t24.5 48t23 22q16 0 16 -16z" />
    <glyph glyph-name="odieresis" unicode="&#xf6;" horiz-adv-x="236" 
d="M157 383q0 3 2.5 8.5t6 11t8 10t7.5 4.5q6 0 14.5 -5.5t17 -12.5t16 -13.5t10.5 -9.5q8 -6 8 -14q0 -19 -13 -29t-31 -10q-8 0 -13 2.5t-7 11.5q-5 7 -15.5 22t-10.5 24zM348 297q-11 0 -20 6t-15 14.5t-9.5 16.5t-3.5 12q0 3 3.5 9t8 12.5t9.5 11.5t8 5q13 0 25 -7
t21 -16t14.5 -17.5t5.5 -10.5q0 -20 -15 -28t-32 -8zM198 117q0 4 -6 9.5t-13.5 10t-15 8t-11.5 3.5q-15 0 -35.5 -15.5t-39.5 -37t-32 -44.5t-13 -38q0 -19 20 -19q6 0 19.5 5t28.5 11.5t28 13.5t19 11q2 16 14 28.5t26 20.5q4 8 7.5 15.5t3.5 17.5zM261 71q1 -1 1 -3
q0 -6 -8 -10q-3 -6 -15.5 -12.5t-27.5 -12t-29.5 -9t-21.5 -3.5q-11 -8 -29.5 -20t-39 -23t-40 -18.5t-33.5 -7.5q-17 0 -26 13.5t-9 29.5q0 15 8 37.5t20 45t25.5 41.5t25.5 28q8 6 20 10t22 5q14 10 34 18t37 8q8 0 15.5 -3t13.5 -8q8 7 19 13t22 6q7 0 8 -6t1 -11
q0 -7 -2 -20.5t-6 -27.5t-8.5 -26.5t-9.5 -16.5q-3 -3 -5.5 -6t-2.5 -7q0 -5 6.5 -6.5t9.5 -1.5q6 0 12.5 1.5t12.5 2.5z" />
    <glyph glyph-name="divide" unicode="&#xf7;" horiz-adv-x="439" 
d="M242 93q-1 -2 -6 -5.5t-12 -7.5t-13 -6.5t-8 -2.5q-11 0 -24.5 13.5t-13.5 24.5q0 7 5 11.5t12.5 7.5t15.5 4t13 1q7 0 16 0.5t13 -6.5q5 -7 5 -16.5t-3 -17.5zM388 222q0 -10 -8 -15t-20 -5q-17 0 -48 -0.5t-61.5 -0.5t-54 1t-26.5 3q-5 0 -12.5 -0.5t-15.5 -0.5
q-17 0 -31 4.5t-14 25.5q0 7 6 12t13 5q18 0 30.5 -2t24 -4t24.5 -4t31 -2q7 0 14 1t15 3q29 -1 54 -5.5t54 -4.5q5 -3 9.5 -2.5t8 0.5t5.5 -1.5t2 -7.5zM319 313q-9 -17 -28 -17q-3 0 -9.5 3.5t-13.5 9t-12 11t-5 8.5q0 7 1.5 15t5 15t9.5 12t14 5q11 0 20 -6.5t14.5 -16.5
t6.5 -20.5t-3 -18.5z" />
    <glyph glyph-name="oslash" unicode="&#xf8;" horiz-adv-x="329" 
d="M254 114q-6 3 -17.5 -5.5t-23.5 -20t-20.5 -20.5t-7.5 -8q-12 -12 -25.5 -23.5t-28.5 -23.5q-3 -4 -7.5 -8.5t-7 -7.5t-1 -4.5t11.5 1.5q25 7 42.5 13t31.5 15.5t26 23.5t26 38q2 5 3.5 15.5t-2.5 14.5zM76 8q0 -6 5 -9q17 17 35.5 33.5t35.5 33.5q1 2 8.5 9t17 17t21 21
t22.5 22q-10 2 -18 2q-20 0 -42 -12.5t-41 -32t-31.5 -42t-12.5 -42.5zM3 -85q0 5 3.5 9.5t8.5 9.5t13 10q5 5 9 10t9 10q-20 13 -20 31q0 15 4.5 25t10 17.5t10.5 13t6 11.5q1 8 8 20.5t21 23.5q2 2 13 10t24 16.5t24 15.5t14 7q14 8 33.5 14t36.5 6q8 0 18 -5
q5 -3 6.5 -1.5l6.5 6.5q5 6 11.5 14.5t14 16.5t14 13.5t11.5 5.5q2 0 8.5 1.5t8.5 0.5q4 0 8 -4t4 -7q0 -2 -5.5 -8t-12 -13t-13 -13t-9.5 -9q-2 -2 -6 -6.5t-9 -9.5q-4 -4 -6.5 -5.5t2.5 -6.5q11 -14 11 -24q-4 -26 -10.5 -41.5t-7.5 -15.5q0 -5 9.5 -9t17.5 -4
q12 0 21.5 8.5t20.5 7.5l2 -4q-18 -18 -31.5 -22t-24.5 -3t-22 2.5t-23 -5.5t-21.5 -15.5t-20.5 -16.5q-20 -16 -50.5 -32.5t-75.5 -16.5q-14 0 -22.5 -10.5t-18.5 -19.5q-4 -3 -6.5 -6.5t-6.5 -6.5q-3 -4 -13 -4q-3 0 -5 3t-3 5z" />
    <glyph glyph-name="ugrave" unicode="&#xf9;" horiz-adv-x="283" 
d="M308 61q0 -2 -5.5 -5.5t-12 -8t-13 -8t-8.5 -4.5q-3 -2 -9.5 -6t-13 -8.5t-13 -8t-9.5 -3.5q-9 0 -13 3t-5 8t0 11.5t1 13.5q0 4 -1 7.5t-6 3.5q-8 0 -15 -11t-12 -16q-9 -9 -28 -19t-41 -18.5t-42.5 -14t-33.5 -5.5q-19 0 -26.5 13t-7.5 30v21.5t4 21.5q3 10 15.5 31
t28.5 41.5t32.5 36t28.5 15.5q6 0 9 -6.5t3 -11.5q0 -14 -12.5 -29t-27 -32.5t-27 -37.5t-12.5 -44q0 -8 4.5 -16t13.5 -8q21 0 42 10t40.5 26t35.5 34.5t25 35.5q5 9 10 21t11.5 23.5t15.5 19t22 7.5q7 0 13.5 -2.5t6.5 -11.5q0 -3 -7.5 -15t-17 -26.5t-17 -28t-7.5 -19.5
q0 -8 4.5 -19t14.5 -11q6 0 14.5 5t16.5 11t16 10.5t14 3.5q0 -2 0.5 -5t0.5 -5zM290 273q0 -5 -4.5 -6.5t-9.5 -1.5q-3 0 -7 2t-6 4q-9 7 -22 18.5t-27 24t-27.5 22.5t-22.5 14q-17 8 -36 21.5t-35 24.5q-8 6 -8 13q0 6 5.5 10.5t13.5 7.5t16 5t13 2q12 0 28 -9.5t32 -24
t30 -32t23 -34.5q3 -6 10.5 -14t15 -16.5t13 -16.5t5.5 -14z" />
    <glyph glyph-name="uacute" unicode="&#xfa;" horiz-adv-x="313" 
d="M322 61q-3 -6 -19 -20t-36 -28t-38.5 -25t-24.5 -11q-7 0 -10.5 11t-3.5 16q0 20 4 39t11 38q-12 -6 -36.5 -19t-51 -26.5t-50 -24t-33.5 -10.5q-7 0 -11 7.5t-4 12.5q0 18 8 37l-1 5q-5 -3 -10 -3q-7 0 -7 5l3 6q11 10 23.5 15.5t23.5 15.5q9 8 17.5 16t18.5 16
q8 6 18.5 18t20.5 12t10 -9q0 -5 -13.5 -17.5t-29.5 -28t-29.5 -32t-13.5 -29.5q0 -7 6.5 -9t7.5 -2q18 0 45.5 14t55.5 33t52.5 39.5t36.5 34.5q3 3 7.5 10t9.5 14t10.5 12t10.5 5t7 -3.5t2 -7.5q0 -8 -13 -25t-28 -38t-28 -43.5t-13 -40.5q0 -1 2 -8t11 -7q12 0 21.5 4.5
t18 11t17.5 13t19 9.5zM493 489q0 -7 -4.5 -17t-11 -19.5t-13.5 -18.5t-11 -15q-18 -23 -40 -36t-43 -31q-8 -8 -22 -15.5t-22 -15.5q-9 -9 -25.5 -14.5t-31.5 -16.5q-7 -5 -14 -5q-5 0 -8.5 2t-3.5 7q0 9 12 19t28.5 20.5t33.5 20t28 17.5q18 13 36 36.5t34 46.5t29.5 40
t24.5 17t17.5 -5.5t6.5 -16.5z" />
    <glyph glyph-name="ucircumflex" unicode="&#xfb;" horiz-adv-x="371" 
d="M387 59q0 -4 -14.5 -11.5t-33.5 -15.5t-37 -14t-24 -6q-14 0 -18 2.5t-4 6.5q0 2 0.5 5t0.5 5q0 8 -5 14q-11 0 -19.5 -7t-18.5 -12q-13 -7 -38 -14t-52.5 -13t-53.5 -9.5t-41 -3.5t-29.5 6.5t-14.5 24.5q0 8 0.5 15.5t4.5 14.5q5 10 21.5 27t36 33.5t38.5 29t29 12.5
q7 0 8 -6t1 -11q0 -9 -13.5 -20.5t-29.5 -25.5t-29.5 -30.5t-13.5 -34.5q0 -8 7.5 -13t15.5 -5q51 0 98 22t85 54q11 19 30.5 34.5t42.5 15.5q5 0 16 -1t11 -9q0 -1 -8.5 -9t-19.5 -18.5t-21 -20.5t-13 -15q0 -19 18 -19t41 9.5t37 20.5q9 0 9 -8zM419 424q0 -29 -7 -57
t-7 -57q0 -11 3.5 -22t3.5 -22q0 -5 -3 -10.5t-10 -5.5q-9 0 -16.5 14t-13 33t-9.5 36.5t-5 25.5q-47 -24 -83.5 -40.5t-64.5 -16.5q-6 0 -11 3.5t-5 10.5q0 9 10 14.5t26.5 11.5t39 14.5t46.5 23.5q9 5 17.5 18.5t18 27t19 24t20.5 10.5q5 0 6.5 -3.5t9.5 -3.5
q11 0 13 -10.5t2 -18.5z" />
    <glyph glyph-name="udieresis" unicode="&#xfc;" horiz-adv-x="289" 
d="M307 65q0 -5 -13.5 -14t-30.5 -18t-33 -15.5t-21 -6.5q-15 0 -15.5 4.5t-0.5 17.5q0 4 -0.5 6t-5.5 2q-8 0 -13.5 -6.5t-10.5 -10.5q-9 -6 -26.5 -12.5t-37.5 -12t-38.5 -9t-29.5 -3.5q-14 0 -27.5 12t-13.5 26q0 7 0.5 14t3.5 14q4 9 21 23t38 27.5t41.5 23t29.5 9.5
q4 0 4.5 -3t0.5 -5q0 -14 -16.5 -26t-36.5 -23t-36.5 -23.5t-16.5 -28.5q0 -8 11.5 -16t19.5 -8q43 0 71 18t48 39t35 39t32 18q5 0 10.5 -1.5t5.5 -7.5q0 -1 -6 -8t-14 -16.5t-15 -19t-9 -13.5q0 -6 2 -11.5t10 -5.5q9 0 21.5 5.5t24 11.5t20.5 11.5t12 5.5q2 0 5 -3z
M181 246q-8 0 -15 5t-7 14q0 6 3.5 10.5t8.5 8.5q2 7 8 9.5t12 2.5q2 1 4.5 2t5.5 1q8 0 11 -7t3 -13q0 -14 -10.5 -23.5t-23.5 -9.5zM291 262q-9 0 -19 4t-10 15q0 6 4 14.5t10 17t13.5 14t13.5 5.5q8 0 13.5 -4.5t6.5 -12.5q11 -5 11 -16q0 -16 -14.5 -26.5t-28.5 -10.5z
" />
    <glyph glyph-name="yacute" unicode="&#xfd;" horiz-adv-x="342" 
d="M-6 -197q-26 -14 -54 -25.5t-54 -25.5q-20 -11 -37 -25.5t-34 -28.5q-20 -16 -44 -36t-45 -43.5t-35 -49t-14 -53.5v-9.5t1 -9.5q13 6 24.5 12.5t22.5 16.5q30 28 61.5 61t57.5 65q34 42 74 77t76 74zM360 63q0 -3 -5 -7.5t-11 -9.5t-12 -9l-9 -6q-9 -7 -16.5 -15
t-15.5 -16q-32 -31 -68 -57.5t-73 -51.5q-19 -13 -38.5 -23.5t-36.5 -25.5q-34 -30 -61.5 -66t-59.5 -69q-51 -53 -102 -103.5t-103 -101.5q-10 -10 -25 -21t-31.5 -20.5t-33.5 -16t-31 -6.5q-3 0 -6 1t-3 5q0 10 8 30.5t18.5 44t21.5 44t17 30.5q7 13 17.5 23t21.5 19
t21.5 18.5t19.5 21.5t17.5 24t23.5 19q23 23 51.5 42t59.5 35.5t62.5 31t60.5 28.5q26 32 51.5 65t56.5 62q10 10 18 19.5t8 24.5q-19 0 -40 2t-39 9.5t-29.5 22t-11.5 39.5q0 13 7.5 41t20 56t28 49t30.5 21q9 0 10.5 -8t1.5 -14q0 -19 -8 -35.5t-17.5 -33t-17.5 -33
t-8 -35.5q0 -20 13 -34.5t33 -14.5q11 0 20.5 6t18.5 13t18 13t19 6t16.5 -12t6.5 -20q0 -16 -10 -28.5t-20 -23.5q-23 -25 -44.5 -50.5t-41.5 -52.5q13 10 26 20.5t27 18.5q17 9 33.5 17t30.5 20q10 8 24 21.5t30 26.5t31.5 23t27.5 11q0 -1 0.5 -2t0.5 -2zM435 504
q0 -6 -3.5 -14t-8.5 -16.5t-10.5 -16t-10.5 -10.5q-15 -11 -30.5 -20.5t-29.5 -22.5q-3 -3 -12.5 -12t-20 -18.5t-19.5 -17t-11 -7.5t-2.5 0.5t-2.5 0.5q-5 0 -9 -2.5t-9 -2.5t-8 4t-3 9q0 3 4 7q7 6 14 11t14 11q28 27 54 57q8 10 16 23.5t17.5 26t21 21.5t26.5 9
q7 0 15 -6.5t8 -13.5z" />
    <glyph glyph-name="thorn" unicode="&#xfe;" horiz-adv-x="453" 
d="M668 554q0 -7 -6 -13q-17 -18 -38 -31.5t-40 -28.5q-26 -21 -49 -45.5t-49 -45.5l-248 -205l-7 -6.5t-17 -16t-22 -21t-23 -21.5q10 3 19.5 7t19.5 9q17 9 35 20t35 21t34 16.5t33 6.5q19 0 28.5 -1.5t20.5 -9.5q7 -5 11.5 -19.5t4.5 -23.5q0 -20 -16.5 -37.5t-36 -31.5
t-36 -25.5t-16.5 -20.5q0 -8 8 -11t14 -3q14 0 38.5 8t48.5 18q28 11 59 27q1 0 1 -3q0 -7 -14 -15.5t-36 -18t-48 -18.5t-50 -16t-43.5 -11.5t-26.5 -4.5t-13.5 1.5t-6.5 10.5q0 21 20 41t44 37.5t44 32.5t20 27q0 3 -6 11.5t-11 8.5q-30 0 -57 -12.5t-53 -26.5
q-23 -13 -46 -28.5t-46 -29.5q-33 -21 -61 -44t-55 -47.5t-54.5 -49t-57.5 -48.5q-31 -25 -56.5 -54t-51.5 -58q-19 -21 -39.5 -40t-40.5 -39q-32 -31 -70.5 -73.5t-80 -84t-84.5 -75.5t-82 -48q-7 -2 -24.5 -5.5t-24.5 -3.5q-5 0 0 6.5t5 11.5q0 13 6 19.5t15.5 9t20 3.5
t19.5 3q17 4 32 18t29 31t28 33t31 24q20 25 44 45t47 43q65 65 126.5 131.5t129.5 127.5q15 14 28.5 28t27.5 28q26 28 51.5 54t54.5 50q11 9 19.5 19.5t19.5 18.5q-14 -10 -26.5 -16.5t-25.5 -11.5t-26.5 -10.5t-29.5 -12.5q-2 0 -5.5 0.5t-3.5 2.5q0 6 7 11t12 7
q40 22 74.5 43.5t68.5 52.5q23 22 50.5 37.5t50.5 37.5q9 9 17 18.5t16 18.5q23 24 47 46t49 43q21 18 39 38t39 38q15 12 41.5 35t55.5 45.5t57 39t46 16.5q6 0 12 -4t6 -11z" />
    <glyph glyph-name="ydieresis" unicode="&#xff;" horiz-adv-x="342" 
d="M279 343q0 -4 -5 -7.5t-11 -6.5q-7 -4 -16 -7q-10 0 -18 4.5t-14 10.5t-9 12t-3 9q0 15 7.5 33t25.5 18q12 0 20 -7t13 -17t7.5 -21.5t2.5 -20.5zM439 336q0 -1 -6 -5t-13.5 -8.5t-14 -8t-8.5 -3.5q-6 0 -13.5 4.5t-13.5 11.5t-10.5 14.5t-4.5 13.5q0 7 6 12t14.5 8
t17.5 4t14 1q8 0 17 1t14 -7t6 -17.5t-5 -20.5zM-6 -197q-26 -14 -54 -25.5t-54 -25.5q-20 -11 -37 -25.5t-34 -28.5q-20 -16 -44 -36t-45 -43.5t-35 -49t-14 -53.5v-9.5t1 -9.5q13 6 24.5 12.5t22.5 16.5q30 28 61.5 61t57.5 65q34 42 74 77t76 74zM360 63q0 -3 -5 -7.5
t-11 -9.5t-12 -9l-9 -6q-9 -7 -16.5 -15t-15.5 -16q-32 -31 -68 -57.5t-73 -51.5q-19 -13 -38.5 -23.5t-36.5 -25.5q-34 -30 -61.5 -66t-59.5 -69q-51 -53 -102 -103.5t-103 -101.5q-10 -10 -25 -21t-31.5 -20.5t-33.5 -16t-31 -6.5q-3 0 -6 1t-3 5q0 10 8 30.5t18.5 44
t21.5 44t17 30.5q7 13 17.5 23t21.5 19t21.5 18.5t19.5 21.5t17.5 24t23.5 19q23 23 51.5 42t59.5 35.5t62.5 31t60.5 28.5q26 32 51.5 65t56.5 62q10 10 18 19.5t8 24.5q-19 0 -40 2t-39 9.5t-29.5 22t-11.5 39.5q0 13 7.5 41t20 56t28 49t30.5 21q9 0 10.5 -8t1.5 -14
q0 -19 -8 -35.5t-17.5 -33t-17.5 -33t-8 -35.5q0 -20 13 -34.5t33 -14.5q11 0 20.5 6t18.5 13t18 13t19 6t16.5 -12t6.5 -20q0 -16 -10 -28.5t-20 -23.5q-23 -25 -44.5 -50.5t-41.5 -52.5q13 10 26 20.5t27 18.5q17 9 33.5 17t30.5 20q10 8 24 21.5t30 26.5t31.5 23t27.5 11
q0 -1 0.5 -2t0.5 -2z" />
    <glyph glyph-name="OE" unicode="&#x152;" horiz-adv-x="1326" 
d="M552 347q0 13 -9.5 23t-22.5 16.5t-28 10t-25 3.5q-6 0 -16 -2q-26 -6 -47.5 -8t-42 -6t-40 -13t-40.5 -28q-20 -19 -36 -41.5t-30 -45.5q35 -14 71.5 -19t73.5 -5q30 0 63.5 3.5t62 15.5t47.5 34.5t19 61.5zM1310 630q2 -5 4 -12t2 -12q0 -6 -9.5 -14.5t-15.5 -8.5
q-19 0 -23 9.5t-5.5 20.5t-7.5 20.5t-28 9.5q-8 0 -26.5 -9t-42.5 -22.5t-50 -30.5t-49 -33t-40.5 -29.5t-23.5 -20.5q-10 -11 -18 -22.5t-16 -24.5q5 -26 5.5 -50t2.5 -48t8 -47.5t21 -46.5q5 -7 5.5 -11t0.5 -12t-6.5 -13.5t-14.5 -5.5q-2 0 -3 0.5t-3 0.5l-24 24
q-39 18 -81 20q-23 -9 -41 -20t-32.5 -24t-28 -29t-27.5 -36q-5 -7 -10.5 -15t-8.5 -16t-3.5 -17t-0.5 -18q0 -17 2.5 -34t4.5 -34q15 -19 34 -36t45 -17q49 0 96.5 10.5t95.5 21.5q24 5 47 14.5t45 20.5l44 22t46 19q4 4 16 17.5t25.5 28t25.5 25.5t16 11q3 0 8.5 -0.5
t5.5 -5.5q0 -2 -4.5 -9t-10 -15.5t-11 -16.5t-7.5 -10q-36 -43 -94 -78.5t-124.5 -60.5t-134 -39t-122.5 -14q-33 0 -54.5 14.5t-33.5 37t-15 50.5t0 56q-39 -41 -88.5 -82.5t-106 -74.5t-116.5 -54t-118 -21q-86 0 -130 41t-44 129q0 32 5.5 66t16 66.5t26.5 62.5t38 54
q-12 9 -25 26t-23.5 37t-17 40.5t-6.5 35.5q0 10 4 18.5t16 8.5q6 0 8 -6.5t4 -10.5q6 -20 11 -35.5t12 -29.5t16.5 -27.5t25.5 -27.5q23 26 46 49t48.5 42t54 33.5t63.5 23.5q15 11 33 14t36 3q21 0 45.5 -6t45.5 -18t35.5 -30t14.5 -43q0 -20 -3.5 -33t-10 -23.5
t-16.5 -20.5l-23 -23q-21 -21 -39.5 -35t-38 -23t-42.5 -12.5t-53 -3.5q-44 0 -89.5 12.5t-83.5 34.5q-33 -55 -52 -116.5t-19 -125.5q0 -38 16 -62.5t58 -24.5q48 0 96.5 3.5t93.5 23.5q60 25 108 52t88 60.5t72.5 77.5t61.5 104q26 54 46 113.5t20 119.5q0 17 -7.5 33
t-20.5 29t-29 20.5t-33 7.5q-13 0 -37.5 -1t-50.5 -3.5t-49 -6.5t-32 -10q-3 -2 -9.5 -8t-13.5 -12t-13 -10.5t-9 -4.5q-9 0 -11 13t-2 19q0 10 13.5 18.5t34 15t45.5 11t48.5 7.5t42.5 4.5t28 1.5q34 0 65 -6.5t54.5 -22t37 -41.5t13.5 -65q0 -42 -11.5 -82.5t-28.5 -78.5
q25 14 52.5 22t56.5 6q-5 14 -6.5 27.5t-1.5 27.5q0 19 4.5 42t13 46t19.5 43t24 34q10 10 29 26t42 34.5t49 36.5t50 33t44.5 24t33.5 9q9 0 24.5 -4.5t30 -12.5t25 -18t9.5 -21z" />
    <glyph glyph-name="oe" unicode="&#x153;" horiz-adv-x="422" 
d="M189 83q0 4 -6 10t-14 11.5t-16 9.5t-12 4q-13 0 -34.5 -15t-42 -35.5t-35.5 -42.5t-15 -36q0 -8 6 -12t13 -4q6 0 11.5 1t10.5 3q23 6 41.5 12t34 15.5t28.5 23.5t25 37q5 10 5 18zM366 166q0 10 -6.5 16t-16.5 6q-9 0 -22.5 -2.5t-21.5 -7.5q-7 -4 -16.5 -13.5
t-18.5 -21.5t-15.5 -23.5t-6.5 -19.5q0 -3 3 -5t5 -4q6 0 19.5 6t28.5 13.5t28 15.5t18 13q6 6 11.5 13t10.5 14zM443 63q0 -6 -11 -13.5t-16 -10.5q-37 -23 -72.5 -36t-79.5 -13q-23 0 -40 12.5t-25 33.5q-8 -8 -15.5 -14.5t-18.5 -12.5q-8 -5 -15 -12t-15 -13
q-20 -14 -42 -22.5t-45 -15.5q-12 -4 -23.5 -8t-24.5 -4q-18 0 -27 12.5t-9 29.5q0 15 6.5 27t16 23.5t19.5 22t16 22.5q5 9 7 16t5 13t8 12t15 12q6 4 20 8t22 4q15 8 34 14t36 6t31 -14q14 10 27 13q6 8 10 11q14 13 26 23.5t25 18.5t28 12.5t36 4.5q10 0 21 -1t21 -5
t16.5 -11.5t6.5 -20.5t-14.5 -29.5t-34 -32.5t-39.5 -28.5t-31 -17.5q-16 -7 -32 -13t-30 -16q-2 -6 -2 -10q0 -6 5 -10t11.5 -7t13.5 -4.5t12 -1.5q40 0 83.5 17t79.5 33q4 0 4 -4z" />
    <glyph glyph-name="Scaron" unicode="&#x160;" horiz-adv-x="958" 
d="M904 648q0 9 -10.5 16t-24.5 12t-28 8t-21 3q-35 0 -61.5 -12.5t-55.5 -29.5q24 -17 52 -25.5t57 -8.5q9 0 24.5 0.5t30.5 4t26 11t11 21.5zM929 643q0 -19 -14 -30.5t-34 -18t-41 -8.5t-34 -2q-35 0 -67.5 11t-59.5 34q-15 -10 -33.5 -26t-36 -34.5t-32 -38t-22.5 -35.5
q-14 -30 -21.5 -62.5t-12.5 -64.5q-8 -50 -18 -99.5t-26 -96.5t-40.5 -90.5t-60.5 -81.5q-12 -13 -30.5 -27.5t-39.5 -26.5t-42.5 -20t-39.5 -8q-38 0 -71.5 5.5t-58.5 20.5t-39.5 43t-14.5 73q0 18 8.5 39.5t21 42.5t27.5 39t29 29q9 7 29.5 17t44 19t45.5 15.5t33 6.5
q6 0 9 -4.5t3 -9.5t-11.5 -10t-25.5 -10.5t-28 -9.5t-18 -6q-29 -11 -53.5 -30t-42.5 -43t-28 -53t-10 -61q0 -14 10.5 -28t25.5 -26t31.5 -19.5t29.5 -7.5h26.5t26.5 1q48 4 85 36.5t64 78t43.5 96.5t23.5 91q4 22 6 44t5 44q8 57 31 111.5t56 101.5q22 30 55.5 52.5
t65.5 40.5q-5 4 -12 10t-13.5 12.5t-11.5 14t-5 13.5q0 2 2 6t4 4q6 0 14.5 -5.5t17.5 -13t17 -15t12 -11.5q38 24 79 44.5t88 20.5q19 0 39.5 -15t27.5 -32q1 -2 1 -5t1 -5q3 -8 6.5 -13.5t3.5 -13.5zM1074 957q0 -3 -10 -12t-25.5 -21.5t-34.5 -25.5t-36 -24.5t-30 -18.5
t-18 -7q-14 0 -22 15t-8 27q0 9 1.5 32t5.5 47t12 43t20 19q5 0 7.5 -10t2.5 -14q0 -8 -4 -16t-4 -16t3.5 -14t3.5 -14t3 -18t13 -10q9 0 25 7.5t33 17t31 17t19 7.5q2 0 7 -4.5t5 -6.5z" />
    </font>
</defs>
</svg>
