<svg xmlns="http://www.w3.org/2000/svg" width="61" height="66" viewBox="0 0 61 66"><g><g><path fill="#72c671" d="M60.97 24.026l-2.947 38.953C57.895 64.673 56.47 66 54.782 66H6.218c-1.689 0-3.113-1.326-3.241-3.02L.03 24.026c-.406-5.367 3.253-10.173 8.51-11.181l8.42-1.613a4.542 4.542 0 0 0 3.673-4.464v-3.5C20.633 1.467 22.09 0 23.883 0h13.234c1.792 0 3.25 1.466 3.25 3.269v3.5a4.542 4.542 0 0 0 3.672 4.463l8.42 1.613c5.258 1.008 8.917 5.814 8.51 11.18zm-9.119-7.97l-8.42-1.613c-3.66-.701-6.315-3.929-6.315-7.675v-3.5l-13.233.001v3.5c0 3.745-2.655 6.973-6.314 7.674l-8.42 1.614c-3.631.696-6.158 4.015-5.877 7.72l2.947 38.954h7.102l1.57-7.554-5.478-24.099c-.2-.88.347-1.756 1.222-1.958a1.625 1.625 0 0 1 1.947 1.23l5.558 24.448c.052.23.054.468.006.698l-1.504 7.235h27.715l-1.504-7.235a1.645 1.645 0 0 1 .007-.698l5.557-24.448a1.625 1.625 0 0 1 1.947-1.23 1.635 1.635 0 0 1 1.222 1.958l-5.477 24.1 1.57 7.553h7.103l2.946-38.953c.28-3.706-2.246-7.026-5.877-7.721zm-20.05 4.751V49.13c0 .722-.583 1.308-1.301 1.308s-1.3-.586-1.3-1.308V20.807c0-.722.582-1.308 1.3-1.308.718 0 1.3.586 1.3 1.308z"/></g></g></svg>