<svg xmlns="http://www.w3.org/2000/svg" width="54" height="107" viewBox="0 0 54 107"><g><g><path d="M37.062 38.35c-.058.09-1.581 2.588 3.61 6.168 3.55 2.448 2.537 6.03 1.488 7.616a10.74 10.74 0 0 1-9.396 5.526c-1.79 0-3.572-.458-5.151-1.323-1.558-.853-2.277-2.367-2.91-3.703-.552-1.162-1.028-2.166-1.92-2.655-.422-.23-.92-.338-1.566-.338-.537 0-1.107.071-1.71.147-.65.081-1.32.165-2.003.165-1.04 0-1.92-.205-2.69-.626a10.645 10.645 0 0 1-5.14-6.394 10.623 10.623 0 0 1 .88-8.118c.194-.418 1.668-3.347 4.865-3.347.76 0 1.555.172 2.363.512 1.623.682 3.051 1.028 4.245 1.028 2.294 0 2.915-1.295 2.92-1.308a.94.94 0 0 1 .04-.08L41.489 1.608A3.107 3.107 0 0 1 45.705.383l6.685 3.662a3.079 3.079 0 0 1 1.487 1.85c.232.794.14 1.632-.259 2.358l-16.502 30.01a.903.903 0 0 1-.054.087zm-1.553-1.007l14.816-26.945-5.331-2.517a.923.923 0 0 1-.414-1.24.927.927 0 0 1 1.242-.414l5.4 2.54.772-1.404a1.24 1.24 0 0 0 .105-.951 1.242 1.242 0 0 0-.6-.747l-6.686-3.662a1.255 1.255 0 0 0-1.701.495L29.16 27.873l4.897 2.443a.923.923 0 1 1-.828 1.654l-4.96-2.476-1.647 2.994c-.189.383-1.327 2.368-4.594 2.368-1.442 0-3.112-.394-4.964-1.173-.58-.244-1.133-.367-1.644-.367-1.79 0-2.789 1.537-3.09 2.087l9.555 5.202a.923.923 0 0 1-.445 1.735.924.924 0 0 1-.442-.113l-9.429-5.133a8.745 8.745 0 0 0-.446 2.17c.026.01.052.018.077.031l3.269 1.74a.923.923 0 1 1-.872 1.631l-2.374-1.263a8.808 8.808 0 0 0 4.484 6.303c.496.272 1.067.398 1.798.398.567 0 1.152-.073 1.772-.15.634-.08 1.289-.162 1.94-.162.959 0 1.762.186 2.457.567 1.42.777 2.072 2.153 2.704 3.484.563 1.187 1.095 2.308 2.127 2.874a8.894 8.894 0 0 0 4.26 1.094 8.889 8.889 0 0 0 7.792-4.602.853.853 0 0 1 .044-.071c.203-.308 1.924-3.095-.982-5.1-2.682-1.85-4.223-3.794-4.579-5.779-.285-1.589.3-2.649.47-2.916zm4.558 32.529c.157 1.894-.678 5.518-4.97 5.963-6.264.648-6.15 3.656-6.146 3.686.002.03.004.06.004.089v24.29a3.106 3.106 0 0 1-3.105 3.1h-7.626a3.106 3.106 0 0 1-3.105-3.1V79.61c0-.034.002-.068.005-.101.007-.107.139-3.029-6.137-3.674-4.293-.442-5.131-4.067-4.976-5.962.022-5.888 4.826-10.67 10.727-10.67 1.777 0 3.136.981 4.336 1.848 1.043.754 1.944 1.405 2.963 1.405 1.019 0 1.92-.65 2.963-1.405 1.2-.866 2.56-1.849 4.337-1.849 5.903 0 10.709 4.783 10.73 10.67zm-1.847.126a.916.916 0 0 1-.004-.084c0-.13-.004-.26-.01-.39H28.195a.925.925 0 1 1 0-1.848h9.734c-.996-3.807-4.47-6.625-8.592-6.625-1.178 0-2.184.728-3.25 1.498-1.195.864-2.431 1.756-4.05 1.756-1.619 0-2.854-.892-4.05-1.756-1.065-.77-2.072-1.498-3.25-1.498-4.893 0-8.874 3.976-8.874 8.863a.902.902 0 0 1-.004.083c-.03.368-.195 3.638 3.318 3.999 3.244.334 5.532 1.298 6.8 2.868 1.016 1.256 1.015 2.466.994 2.782v12.17h1.855a.925.925 0 1 1 0 1.849H16.97v3.153h5.559a.925.925 0 1 1 0 1.849H16.97v5.234c0 .69.562 1.25 1.253 1.25h7.626c.691 0 1.253-.56 1.253-1.25V79.637c-.03-.593.038-4.837 7.803-5.641 3.606-.373 3.327-3.85 3.314-3.998zM11.328 57.143c-4.657 0-8.59 3.812-8.63 3.851a.928.928 0 0 1-1.11.145C-1.073 59.62.27 51.98.95 49.424c1.327-4.987 2.835-4.987 3.33-4.987.798 0 1.455.564 1.954 1.676 2.037 4.545 5.09 5.498 7.291 5.498 1.292 0 2.206-.328 2.215-.332.023-.008.045-.016.068-.022 1.247-.36 2.41-.542 3.458-.542 2.492 0 3.845 1.002 4.541 1.843.871 1.052 1.214 2.471.94 3.893-.428 2.22-1.83 3.441-3.948 3.441-1.493 0-3.325-.583-5.602-1.783a8.22 8.22 0 0 0-3.869-.966zm0-1.848c1.657 0 3.25.397 4.734 1.18 1.976 1.04 3.57 1.568 4.737 1.569 1.23 0 1.867-.58 2.13-1.942.168-.878-.031-1.74-.55-2.366-.634-.767-1.71-1.173-3.113-1.173-.866 0-1.847.155-2.916.462-.227.079-1.33.435-2.825.435-2.25 0-6.41-.857-8.981-6.593a2.42 2.42 0 0 0-.295-.517c-.844.729-2.23 5.066-2.39 9.309-.066 1.751.117 2.776.317 3.329 1.502-1.238 5.004-3.693 9.153-3.693zM40.65 10.573a.927.927 0 0 1 1.234-.44l4.14 1.958a.924.924 0 1 1-.793 1.67l-4.14-1.957a.924.924 0 0 1-.44-1.23z"/><path fill="#72c671" d="M37.062 38.35c-.058.09-1.581 2.588 3.61 6.168 3.55 2.448 2.537 6.03 1.488 7.616a10.74 10.74 0 0 1-9.396 5.526c-1.79 0-3.572-.458-5.151-1.323-1.558-.853-2.277-2.367-2.91-3.703-.552-1.162-1.028-2.166-1.92-2.655-.422-.23-.92-.338-1.566-.338-.537 0-1.107.071-1.71.147-.65.081-1.32.165-2.003.165-1.04 0-1.92-.205-2.69-.626a10.645 10.645 0 0 1-5.14-6.394 10.623 10.623 0 0 1 .88-8.118c.194-.418 1.668-3.347 4.865-3.347.76 0 1.555.172 2.363.512 1.623.682 3.051 1.028 4.245 1.028 2.294 0 2.915-1.295 2.92-1.308a.94.94 0 0 1 .04-.08L41.489 1.608A3.107 3.107 0 0 1 45.705.383l6.685 3.662a3.079 3.079 0 0 1 1.487 1.85c.232.794.14 1.632-.259 2.358l-16.502 30.01a.903.903 0 0 1-.054.087zm-1.553-1.007l14.816-26.945-5.331-2.517a.923.923 0 0 1-.414-1.24.927.927 0 0 1 1.242-.414l5.4 2.54.772-1.404a1.24 1.24 0 0 0 .105-.951 1.242 1.242 0 0 0-.6-.747l-6.686-3.662a1.255 1.255 0 0 0-1.701.495L29.16 27.873l4.897 2.443a.923.923 0 1 1-.828 1.654l-4.96-2.476-1.647 2.994c-.189.383-1.327 2.368-4.594 2.368-1.442 0-3.112-.394-4.964-1.173-.58-.244-1.133-.367-1.644-.367-1.79 0-2.789 1.537-3.09 2.087l9.555 5.202a.923.923 0 0 1-.445 1.735.924.924 0 0 1-.442-.113l-9.429-5.133a8.745 8.745 0 0 0-.446 2.17c.026.01.052.018.077.031l3.269 1.74a.923.923 0 1 1-.872 1.631l-2.374-1.263a8.808 8.808 0 0 0 4.484 6.303c.496.272 1.067.398 1.798.398.567 0 1.152-.073 1.772-.15.634-.08 1.289-.162 1.94-.162.959 0 1.762.186 2.457.567 1.42.777 2.072 2.153 2.704 3.484.563 1.187 1.095 2.308 2.127 2.874a8.894 8.894 0 0 0 4.26 1.094 8.889 8.889 0 0 0 7.792-4.602.853.853 0 0 1 .044-.071c.203-.308 1.924-3.095-.982-5.1-2.682-1.85-4.223-3.794-4.579-5.779-.285-1.589.3-2.649.47-2.916zm4.558 32.529c.157 1.894-.678 5.518-4.97 5.963-6.264.648-6.15 3.656-6.146 3.686.002.03.004.06.004.089v24.29a3.106 3.106 0 0 1-3.105 3.1h-7.626a3.106 3.106 0 0 1-3.105-3.1V79.61c0-.034.002-.068.005-.101.007-.107.139-3.029-6.137-3.674-4.293-.442-5.131-4.067-4.976-5.962.022-5.888 4.826-10.67 10.727-10.67 1.777 0 3.136.981 4.336 1.848 1.043.754 1.944 1.405 2.963 1.405 1.019 0 1.92-.65 2.963-1.405 1.2-.866 2.56-1.849 4.337-1.849 5.903 0 10.709 4.783 10.73 10.67zm-1.847.126a.916.916 0 0 1-.004-.084c0-.13-.004-.26-.01-.39H28.195a.925.925 0 1 1 0-1.848h9.734c-.996-3.807-4.47-6.625-8.592-6.625-1.178 0-2.184.728-3.25 1.498-1.195.864-2.431 1.756-4.05 1.756-1.619 0-2.854-.892-4.05-1.756-1.065-.77-2.072-1.498-3.25-1.498-4.893 0-8.874 3.976-8.874 8.863a.902.902 0 0 1-.004.083c-.03.368-.195 3.638 3.318 3.999 3.244.334 5.532 1.298 6.8 2.868 1.016 1.256 1.015 2.466.994 2.782v12.17h1.855a.925.925 0 1 1 0 1.849H16.97v3.153h5.559a.925.925 0 1 1 0 1.849H16.97v5.234c0 .69.562 1.25 1.253 1.25h7.626c.691 0 1.253-.56 1.253-1.25V79.637c-.03-.593.038-4.837 7.803-5.641 3.606-.373 3.327-3.85 3.314-3.998zM11.328 57.143c-4.657 0-8.59 3.812-8.63 3.851a.928.928 0 0 1-1.11.145C-1.073 59.62.27 51.98.95 49.424c1.327-4.987 2.835-4.987 3.33-4.987.798 0 1.455.564 1.954 1.676 2.037 4.545 5.09 5.498 7.291 5.498 1.292 0 2.206-.328 2.215-.332.023-.008.045-.016.068-.022 1.247-.36 2.41-.542 3.458-.542 2.492 0 3.845 1.002 4.541 1.843.871 1.052 1.214 2.471.94 3.893-.428 2.22-1.83 3.441-3.948 3.441-1.493 0-3.325-.583-5.602-1.783a8.22 8.22 0 0 0-3.869-.966zm0-1.848c1.657 0 3.25.397 4.734 1.18 1.976 1.04 3.57 1.568 4.737 1.569 1.23 0 1.867-.58 2.13-1.942.168-.878-.031-1.74-.55-2.366-.634-.767-1.71-1.173-3.113-1.173-.866 0-1.847.155-2.916.462-.227.079-1.33.435-2.825.435-2.25 0-6.41-.857-8.981-6.593a2.42 2.42 0 0 0-.295-.517c-.844.729-2.23 5.066-2.39 9.309-.066 1.751.117 2.776.317 3.329 1.502-1.238 5.004-3.693 9.153-3.693zM40.65 10.573a.927.927 0 0 1 1.234-.44l4.14 1.958a.924.924 0 1 1-.793 1.67l-4.14-1.957a.924.924 0 0 1-.44-1.23z"/></g></g></svg>