<svg xmlns="http://www.w3.org/2000/svg" width="13" height="20" viewBox="0 0 13 20"><g><g><path fill="#75c774" d="M11.093 1.853A6.208 6.208 0 0 1 13 6.319c0 1.766-1.17 3.894-2.19 5.754a37.694 37.694 0 0 0-.85 1.593L6.974 19.71a.531.531 0 0 1-.946 0L3.04 13.666c-.238-.485-.536-1.028-.841-1.593C1.17 10.213 0 8.085 0 6.32c0-1.745.73-3.323 1.907-4.466A6.578 6.578 0 0 1 6.504 0c1.788 0 3.42.709 4.589 1.853zm-2.34 2.272c.574.558.932 1.333.932 2.194 0 .854-.358 1.628-.931 2.186a3.222 3.222 0 0 1-2.25.905c-.88 0-1.676-.348-2.257-.905a3.042 3.042 0 0 1 0-4.38 3.255 3.255 0 0 1 2.257-.904c.88 0 1.676.347 2.25.904zm-2.25.117c-.595 0-1.124.231-1.511.608a2.032 2.032 0 0 0 0 2.931c.387.376.916.608 1.512.608.589 0 1.118-.232 1.505-.608a2.027 2.027 0 0 0 0-2.931 2.148 2.148 0 0 0-1.505-.608zm0-3.222a5.49 5.49 0 0 0-3.85 1.557A5.183 5.183 0 0 0 1.05 6.319c0 1.52 1.103 3.518 2.071 5.277.313.572.611 1.122.864 1.628l2.518 5.089 2.511-5.089c.254-.506.552-1.056.864-1.628.969-1.759 2.071-3.757 2.071-5.277a5.2 5.2 0 0 0-1.593-3.742A5.503 5.503 0 0 0 6.504 1.02z"/></g></g></svg>