<?xml version="1.0" encoding="utf-8"?>
<!-- Generator: Adobe Illustrator 17.0.0, SVG Export Plug-In . SVG Version: 6.00 Build 0)  -->
<!DOCTYPE svg PUBLIC "-//W3C//DTD SVG 1.1//EN" "http://www.w3.org/Graphics/SVG/1.1/DTD/svg11.dtd">
<svg version="1.1" id="Forma_1_1_" xmlns="http://www.w3.org/2000/svg" xmlns:xlink="http://www.w3.org/1999/xlink" x="0px" y="0px"
	 width="79px" height="71px" viewBox="0 0 79 71" enable-background="new 0 0 79 71" xml:space="preserve">
<g id="Forma_1">
	<g>
		<path fill-rule="evenodd" clip-rule="evenodd" fill="#72C671" d="M68.193,25.824l-0.568-0.006c-7.922,0-15.05,4.397-18.674,11.283
			c-2.28-1.021-4.752-1.602-7.326-1.602c-4.252,0-8.252,1.506-11.418,4.128c-0.061-2.772-0.425-5.533-0.78-7.985
			c-0.304-2.097-0.596-4.131-0.615-5.825l8.216,0.001c1.301,0,2.526-0.504,3.447-1.418l6.5-6.454c1.858-1.845,1.871-4.804,0.097-6.7
			c0.619-0.922,0.915-2.026,0.801-3.154c-0.144-1.448-0.927-2.743-2.147-3.55L41.781,1.93C39.875,0.668,37.655,0,35.362,0
			c-4.78,0-9.273,1.849-12.653,5.205c-6.226,6.182-11.125,13.261-14.565,21.04c-4.145,9.373-6.246,16.288-6.246,20.551
			c0,2.442-0.213,4.426-0.633,5.898c-0.898,3.143,0.516,6.497,3.437,8.155C16.406,67.489,29.717,71,43.197,71h2.35
			c8.355,0,16.611-1.33,24.537-3.954l1.138-0.378C75.874,65.13,79,60.824,79,55.954V37.128C79,31.051,74.152,25.98,68.193,25.824z
			 M70.192,63.608l-1.138,0.378c-7.592,2.512-15.501,3.787-23.507,3.787h-2.35c-12.915,0-25.669-3.363-36.882-9.726
			c-1.622-0.92-2.412-2.759-1.923-4.472c0.503-1.757,0.757-4.039,0.757-6.779c0-3.76,2.065-10.416,5.973-19.252
			c3.275-7.413,7.948-14.16,13.886-20.057c2.766-2.747,6.443-4.259,10.355-4.259c1.649,0,3.245,0.481,4.616,1.388l3.945,2.611
			c0.408,0.27,0.668,0.701,0.716,1.184c0.049,0.484-0.122,0.957-0.467,1.3l-5.191,5.155c-0.555,0.552-1.401,0.687-2.103,0.339
			c-0.53-0.263-0.889-0.747-0.984-1.328s0.091-1.153,0.509-1.57l1.493-1.483c0.635-0.63,0.635-1.652,0-2.282
			c-0.635-0.63-1.663-0.63-2.298,0l-1.493,1.483c-1.166,1.158-1.685,2.752-1.42,4.37c0.265,1.617,1.263,2.964,2.739,3.697
			c1.952,0.968,4.308,0.593,5.854-0.944l3.555-3.53c0.439,0.628,0.406,1.487-0.157,2.047l-6.5,6.455
			c-0.303,0.301-0.722,0.473-1.149,0.473l-7.588-0.001c0.102-0.167,0.2-0.34,0.332-0.471c0.635-0.63,0.635-1.652,0-2.282
			s-1.663-0.63-2.298,0c-2.658,2.64-2.012,7.101-1.265,12.266c0.387,2.682,0.789,5.456,0.789,8.239c0,6.647-5.066,8.062-5.281,8.119
			c-0.863,0.222-1.387,1.094-1.17,1.954c0.184,0.734,0.846,1.223,1.574,1.223c0.13,0,0.263-0.016,0.395-0.049
			c1.946-0.483,5.135-2.337,6.737-6.14c0.022-0.029,0.058-0.041,0.079-0.072c2.711-4.163,7.305-6.648,12.291-6.648
			c3.882,0,7.538,1.494,10.295,4.207c0.638,0.627,1.668,0.624,2.298-0.01c0.632-0.633,0.628-1.655-0.01-2.282
			c-0.752-0.74-1.576-1.378-2.428-1.966c3.054-5.875,9.111-9.632,15.846-9.632l0.481,0.006c4.215,0.11,7.644,3.733,7.644,8.076
			v18.827h0C75.75,59.432,73.517,62.508,70.192,63.608z"/>
	</g>
</g>
</svg>
